<?xml version="1.0" standalone="no"?>
<!DOCTYPE svg PUBLIC "-//W3C//DTD SVG 1.1//EN" "http://www.w3.org/Graphics/SVG/1.1/DTD/svg11.dtd" >
<svg>
<metadata>
Created by FontForge 20090914 at Wed Aug 26 08:04:22 2015
 By www-data
Copyright (c) Andrew Paglinawan, 2008. All rights reserved.
</metadata>
<defs>
<font id="QuicksandLight-Regular" horiz-adv-x="613" >
  <font-face 
    font-family="Quicksand"
    font-weight="300"
    font-stretch="normal"
    units-per-em="1000"
    panose-1="2 7 3 3 0 0 0 6 0 0"
    ascent="800"
    descent="-200"
    x-height="486.999"
    cap-height="700"
    bbox="-24 -214 1133 923.001"
    underline-thickness="50"
    underline-position="-50"
    unicode-range="U+0020-U+2122"
  />
<missing-glyph horiz-adv-x="500" 
 />
    <glyph glyph-name=".notdef" horiz-adv-x="500" 
 />
    <glyph glyph-name="space" unicode=" " horiz-adv-x="300" 
 />
    <glyph glyph-name="space" unicode="&#xa0;" horiz-adv-x="300" 
 />
    <glyph glyph-name="exclam" unicode="!" horiz-adv-x="252" 
d="M93 37c0 3.33301 1.16699 6.16602 3.5 8.49902s5.5 3.5 9.5 3.5c3.33301 0 6.16602 -1.16699 8.49902 -3.5s3.5 -5.16602 3.5 -8.49902v-24c0 -4 -1.16699 -7.16699 -3.5 -9.5s-5.16602 -3.5 -8.49902 -3.5c-8.66699 -0 -13 4.33301 -13 13v24zM93 687
c0 8.66699 4.33301 12.999 13 12.999c3.33301 0 6.16602 -1.16699 8.49902 -3.5s3.5 -5.5 3.5 -9.5v-520c0 -3.33301 -1.16699 -6.16602 -3.5 -8.49902s-5.16602 -3.5 -8.49902 -3.5c-8.66699 0 -13 4 -13 12v520z" />
    <glyph glyph-name="quotedbl" unicode="&#x22;" horiz-adv-x="410" 
d="M100 676c2.66699 17.333 12 26 28 26h19c10.667 0 16 -5.66699 16 -17c0 -3.33301 -0.5 -7 -1.5 -11s-2.16699 -8.33301 -3.5 -13l-57 -201c-4 -12 -9.66699 -18 -17 -18c-4.66699 0 -8.5 1.33301 -11.5 4s-3.83301 7.66699 -2.5 15zM280 676c2.66699 17.333 12 26 28 26
h19c10.667 0 16 -5.66699 16 -17c0 -3.33301 -0.5 -7 -1.5 -11s-2.16699 -8.33301 -3.5 -13l-57 -201c-4 -12 -9.66699 -18 -17 -18c-4.66699 0 -8.5 1.33301 -11.5 4s-3.83301 7.66699 -2.5 15z" />
    <glyph glyph-name="numbersign" unicode="#" horiz-adv-x="700" 
d="M216 227h227l41 256h-227zM152 28l28 172h-111c-6.66699 0 -12.334 0.5 -17.001 1.5s-7 4.83301 -7 11.5s2.33301 10.667 7 12s10.334 2 17.001 2h119l41 256h-120c-6.66699 0 -12.334 0.5 -17.001 1.5s-7 4.83301 -7 11.5s2.33301 10.667 7 12s10.334 2 17.001 2h128
l28 175c1.33301 6.66699 2.5 12 3.5 16s4.83301 6 11.5 6c8.66699 0 13.167 -3 13.5 -9s-0.166992 -12.667 -1.5 -20l-27 -168h227l28 175c1.33301 6.66699 2.5 12 3.5 16s4.83301 6 11.5 6c8.66699 0 13.167 -3 13.5 -9s-0.166992 -12.667 -1.5 -20l-27 -168h110
c6.66699 0 12.334 -0.5 17.001 -1.5s7 -4.83301 7 -11.5s-2.33301 -10.667 -7 -12s-10.334 -2 -17.001 -2h-118l-41 -256h119c6.66699 0 12.334 -0.5 17.001 -1.5s7 -4.83301 7 -11.5s-2.33301 -10.667 -7 -12s-10.334 -2 -17.001 -2h-127l-29 -179
c-1.33301 -6.66699 -2.5 -12 -3.5 -16s-4.83301 -6 -11.5 -6c-8.66699 0 -13.167 3 -13.5 9s0.166992 12.667 1.5 20l28 172h-227l-29 -179c-1.33301 -6.66699 -2.5 -12 -3.5 -16s-4.83301 -6 -11.5 -6c-8.66699 0 -13.167 3 -13.5 9s0.166992 12.667 1.5 20z" />
    <glyph glyph-name="dollar" unicode="$" horiz-adv-x="632" 
d="M489 70c21.333 15.333 37.832 33 49.499 53s17.5 41.333 17.5 64s-5.5 42.667 -16.5 60s-26.833 33 -47.5 47c-19.333 13.333 -42.833 24.666 -70.5 33.999s-58.167 17.333 -91.5 24v-332c32 0.666992 61.333 5.33398 88 14.001s50.334 20.667 71.001 36zM166.999 432
c17.333 -12 38 -22.332 62 -30.999s50.333 -16 79 -22v304c-27.333 -1.33301 -52.833 -6 -76.5 -14s-44.5 -18.667 -62.5 -32c-19.333 -14 -34.333 -30.167 -45 -48.5s-16 -37.833 -16 -58.5s5 -38.834 15 -54.501s24.667 -30.167 44 -43.5zM578.999 187.001
c0 -26.667 -6.66992 -51.4941 -20.0029 -74.4941s-31.333 -43 -54 -60s-49 -30.333 -79 -40s-62 -14.834 -96 -15.501v-24c0 -6 -0.5 -11.167 -1.5 -15.5s-4.5 -6.5 -10.5 -6.5s-9.16699 2.16699 -9.5 6.5s-0.5 9.5 -0.5 15.5v24c-24.667 1.33301 -48.667 5.33301 -72 12
s-45.166 14.667 -65.499 24s-39.333 19.666 -57 30.999s-33.167 22.666 -46.5 33.999c-2.66699 2 -4.16699 4.66699 -4.5 8s0.5 6.33301 2.5 9c5.33301 5.33301 10.666 5.66602 15.999 0.999023c12.667 -10.667 27.5 -21.334 44.5 -32.001s35.167 -20.5 54.5 -29.5
s39.833 -16.667 61.5 -23s43.834 -10.166 66.501 -11.499v336c-30.667 6 -59.167 13.667 -85.5 23s-49.166 20.666 -68.499 33.999c-21.333 14 -38.166 30.667 -50.499 50s-18.5 41.666 -18.5 66.999c0 24 6 46.333 18 67s28 38.834 48 54.501s43.5 28.334 70.5 38.001
s55.833 15.167 86.5 16.5v27c0 6 0.166992 11.167 0.5 15.5s3.5 6.5 9.5 6.5s9.5 -2.16699 10.5 -6.5s1.5 -9.5 1.5 -15.5v-27c22 -0.666992 42.667 -3.66699 62 -9s37.5 -11.833 54.5 -19.5s33.167 -16.334 48.5 -26.001l43 -27.5
c2.66699 -1.33301 4.33398 -3.5 5.00098 -6.5s0 -6.16699 -2 -9.5c-1.33301 -2.66699 -3.5 -4.16699 -6.5 -4.5s-5.83301 0.166992 -8.5 1.5l-43 26.5c-14.667 9 -30 17.167 -46 24.5s-32.833 13.5 -50.5 18.5s-36.5 7.83301 -56.5 8.5v-308
c35.333 -7.33301 67.666 -15.833 96.999 -25.5s55.333 -21.834 78 -36.501c22.667 -15.333 40.667 -33.333 54 -54s20 -44.667 20 -72z" />
    <glyph glyph-name="ampersand" unicode="&#x26;" horiz-adv-x="696" 
d="M49 224c0 41.333 9.99512 79.1709 29.9951 113.504s46.667 61.166 80 80.499c-16 15.333 -28.667 33.166 -38 53.499s-14 42.5 -14 66.5c0 22.667 4.33301 43.834 13 63.501s20.167 36.834 34.5 51.501s31.333 26.167 51 34.5s40.5 12.5 62.5 12.5
c22.667 0 43.834 -4.16699 63.501 -12.5s36.834 -19.833 51.501 -34.5s26.334 -31.834 35.001 -51.501s13 -40.834 13 -63.501c0 -8.66699 -4.33301 -13 -13 -13c-3.33301 0 -6.33301 1.33301 -9 4s-4 5.66699 -4 9c0 18.667 -3.5 36.334 -10.5 53.001
s-16.833 31.334 -29.5 44.001s-27.334 22.5 -44.001 29.5s-34.334 10.5 -53.001 10.5s-36.167 -3.5 -52.5 -10.5s-30.666 -16.833 -42.999 -29.5s-22 -27.334 -29 -44.001s-10.5 -34.334 -10.5 -53.001c0 -23.333 5 -44.666 15 -63.999s24 -35.333 42 -48
c0.666992 -0.666992 1.16699 -1.33398 1.5 -2.00098s0.833008 -1.33398 1.5 -2.00098l1 -1c2 -6.66699 0.333008 -11.667 -5 -15c-2 -2 -4 -3 -6 -3c-32.667 -17.333 -59 -41.833 -79 -73.5s-30 -66.834 -30 -105.501c0 -27.333 5.16699 -53.166 15.5 -77.499
s24.5 -45.5 42.5 -63.5s39.167 -32.167 63.5 -42.5s50.166 -15.5 77.499 -15.5c28 0 54.167 5.16699 78.5 15.5s45.5 24.5 63.5 42.5s32.167 39.167 42.5 63.5s15.5 50.166 15.5 77.499c0 18 -2.66699 36.667 -8 56h-6c-6.66699 1.33301 -12.667 2 -18 2h-17
c-34 0 -60.833 -3.66699 -80.5 -11s-34.5 -15.666 -44.5 -24.999c-9.33301 -9.33301 -15.666 -19.666 -18.999 -30.999s-5 -21.666 -5 -30.999c0 -4 0.166992 -7.5 0.5 -10.5s0.5 -5.83301 0.5 -8.5c0 -1.33301 0.166992 -2.33301 0.5 -3s0.5 -1.33398 0.5 -2.00098v-1
c2.66699 -7.33301 0.333984 -13 -6.99902 -17h-4c-6 0 -10.333 3 -13 9c-0.666992 2.66699 -1.33398 5.66699 -2.00098 9s-1.16699 6.83301 -1.5 10.5s-0.5 8.16699 -0.5 13.5c0 11.333 2 24.166 6 38.499s12.667 28.166 26 41.499c13.333 12.667 31.5 23 54.5 31
s52.5 12 88.5 12h17.5c5.66699 0 11.834 -0.333008 18.501 -1h6c18 0 33.667 4.66699 47 14c6.66699 5.33301 11.667 11.666 15 18.999s5.66602 17 6.99902 29c0 4.66699 -0.333008 9.33398 -1 14.001s-1.66699 9.66699 -3 15c-1.33301 3.33301 -1 6.5 1 9.5
s4.66699 4.83301 8 5.5s6.5 0.166992 9.5 -1.5s4.83301 -4.5 5.5 -8.5c2.66699 -10 4 -21.333 4 -34c0.666992 -15.333 -2 -28.833 -8 -40.5s-13.667 -21.167 -23 -28.5c-11.333 -9.33301 -23.666 -15 -36.999 -17c4.66699 -18 7 -37.333 7 -58
c0 -31.333 -5.83301 -60.5 -17.5 -87.5s-27.667 -50.667 -48 -71s-44.166 -36.333 -71.499 -48s-56.666 -17.5 -87.999 -17.5s-60.5 5.83301 -87.5 17.5s-50.667 27.667 -71 48s-36.333 44 -48 71s-17.5 56.167 -17.5 87.5z" />
    <glyph glyph-name="quotesingle" unicode="'" horiz-adv-x="230" 
d="M100 676c2.66699 17.333 12 26 28 26h19c10.667 0 16 -5.66699 16 -17c0 -3.33301 -0.5 -7 -1.5 -11s-2.16699 -8.33301 -3.5 -13l-57 -201c-4 -12 -9.66699 -18 -17 -18c-4.66699 0 -8.5 1.33301 -11.5 4s-3.83301 7.66699 -2.5 15z" />
    <glyph glyph-name="parenleft" unicode="(" horiz-adv-x="430" 
d="M119 25c-16.667 36 -28.834 77.835 -36.501 125.502s-11.5 98.5 -11.5 152.5s3.83301 104.833 11.5 152.5s19.834 89.834 36.501 126.501s38.834 66.167 66.501 88.5s61.167 33.166 100.5 32.499c4 0 7.5 -1.33301 10.5 -4s4.5 -6 4.5 -10s-1.5 -7.5 -4.5 -10.5
s-6.5 -4.5 -10.5 -4.5c-32.667 0 -60.334 -8.83301 -83.001 -26.5s-41.667 -43.5 -57 -77.5s-26.833 -73.833 -34.5 -119.5s-11.5 -94.834 -11.5 -147.501s3.83301 -101.834 11.5 -147.501s19.167 -85.167 34.5 -118.5c15.333 -34 34.333 -60 57 -78s50.334 -27 83.001 -27
c4 0 7.5 -1.33301 10.5 -4s4.5 -6 4.5 -10s-1.5 -7.5 -4.5 -10.5s-6.5 -4.5 -10.5 -4.5c-39.333 0 -72.833 11.167 -100.5 33.5s-49.834 51.833 -66.501 88.5z" />
    <glyph glyph-name="parenright" unicode=")" horiz-adv-x="430" 
d="M242 25c-16.667 -36.667 -38.834 -66.1689 -66.501 -88.502s-61.167 -33.5 -100.5 -33.5c-4 0 -7.5 1.5 -10.5 4.5s-4.5 6.5 -4.5 10.5s1.5 7.33301 4.5 10s6.5 4 10.5 4c32.667 0 60.334 9 83.001 27s41.667 44 57 78c15.333 33.333 26.833 72.833 34.5 118.5
s11.5 94.834 11.5 147.501s-3.83301 101.834 -11.5 147.501s-19.167 85.5 -34.5 119.5s-34.333 59.833 -57 77.5s-50.334 26.5 -83.001 26.5c-4 0 -7.5 1.5 -10.5 4.5s-4.5 6.5 -4.5 10.5s1.5 7.33301 4.5 10s6.5 4 10.5 4c39.333 0.666992 72.833 -10.166 100.5 -32.499
s49.834 -51.833 66.501 -88.5s28.834 -78.834 36.501 -126.501s11.5 -98.5 11.5 -152.5s-3.83301 -104.833 -11.5 -152.5s-19.834 -89.5 -36.501 -125.5z" />
    <glyph glyph-name="asterisk" unicode="*" horiz-adv-x="430" 
d="M203 533l-91 -62c-6 -4 -11.333 -6 -16 -6c-5.33301 0 -10 2.16699 -14 6.5s-6 9.16602 -6 14.499c0 4.66699 1.5 8.66699 4.5 12s6.16699 5.66602 9.5 6.99902l103 49l-103 49c-9.33301 4.66699 -14 11 -14 19c0 5.33301 2 10 6 14s8.66699 6.33301 14 7
c3.33301 0 6 -0.5 8 -1.5s4.66699 -2.5 8 -4.5l91 -62l-8 109c-0.666992 6 1 11.167 5 15.5s9 6.5 15 6.5s11 -2.16699 15 -6.5s5.66699 -9.5 5 -15.5l-8 -109l91 62c6 4 11.333 6 16 6c5.33301 0 10 -2.16699 14 -6.5s6 -9.16602 6 -14.499s-1.5 -9.5 -4.5 -12.5
s-6.16699 -5.16699 -9.5 -6.5l-103 -49l103 -49c3.33301 -1.33301 6.5 -3.5 9.5 -6.5s4.5 -7.16699 4.5 -12.5s-2 -10.166 -6 -14.499s-8.66699 -6.5 -14 -6.5c-4.66699 0 -10 2 -16 6l-91 62l8 -109c0.666992 -6 -1 -11.167 -5 -15.5s-9 -6.5 -15 -6.5s-11 2.16699 -15 6.5
s-5.66699 9.5 -5 15.5z" />
    <glyph glyph-name="plus" unicode="+" horiz-adv-x="620" 
d="M293 116l-0.00195312 211h-211c-5.33301 0 -9.66602 1.66699 -12.999 5s-5 7.66602 -5 12.999c0 11.333 6 17 18 17h211v212c0 11.333 6 17 18 17c4 0 7.83301 -1.5 11.5 -4.5s5.5 -7.16699 5.5 -12.5v-212h212c4 0 7.83301 -1.5 11.5 -4.5s5.5 -7.16699 5.5 -12.5
s-1.83301 -9.66602 -5.5 -12.999s-7.5 -5 -11.5 -5h-212v-211c0 -5.33301 -1.83301 -9.66602 -5.5 -12.999s-7.5 -5 -11.5 -5c-5.33301 0 -9.66602 1.66699 -12.999 5s-5 7.66602 -5 12.999z" />
    <glyph glyph-name="comma" unicode="," horiz-adv-x="230" 
d="M54 -90c0 5.33301 2.66504 9.66797 7.99805 13.001c18 10 30.667 21 38 33s10.333 26.667 9 44c-7.33301 2 -13.666 5.83301 -18.999 11.5s-8 13.5 -8 23.5v21c0 9.33301 3.16699 17.166 9.5 23.499s14.166 9.5 23.499 9.5s17.166 -3.16699 23.499 -9.5
s9.5 -14.166 9.5 -23.499v-25c0 -28 -2.16699 -50 -6.5 -66s-11.166 -28.667 -20.499 -38s-19.166 -17 -29.499 -23s-17.833 -9 -22.5 -9c-3.33301 0 -6.66602 1.16699 -9.99902 3.5s-5 6.16602 -5 11.499z" />
    <glyph glyph-name="hyphen" unicode="-" horiz-adv-x="408" 
d="M76 340c-6.66699 0 -10 3 -10 9c0 7.33301 3.33301 11 10 11h228c6 0 9 -3.66699 9 -11c0 -6 -3 -9 -9 -9h-228z" />
    <glyph glyph-name="hyphen" unicode="&#xad;" horiz-adv-x="408" 
d="M76 340c-6.66699 0 -10 3 -10 9c0 7.33301 3.33301 11 10 11h228c6 0 9 -3.66699 9 -11c0 -6 -3 -9 -9 -9h-228z" />
    <glyph glyph-name="period" unicode="." horiz-adv-x="230" 
d="M82 26c0 9.33301 3.33301 17.333 10 24s14.667 10 24 10s17.333 -3.33301 24 -10s10 -14.667 10 -24s-3.33301 -17.333 -10 -24s-14.667 -10 -24 -10s-17.333 3.33301 -24 10s-10 14.667 -10 24z" />
    <glyph glyph-name="slash" unicode="/" horiz-adv-x="422" 
d="M82 1c-7.33301 3.33301 -9.33301 9.00098 -6 17.001l283 672c1.33301 3.33301 3.5 5.66602 6.5 6.99902s6.16699 1.33301 9.5 0s5.83301 -3.5 7.5 -6.5s1.83398 -6.16699 0.500977 -9.5l-285 -673c-1.33301 -5.33301 -5 -8 -11 -8
c-2.66699 -0 -4.33398 0.333008 -5.00098 1z" />
    <glyph glyph-name="zero" unicode="0" horiz-adv-x="710" 
d="M155 581c-19.333 -29.333 -35 -63.666 -47 -102.999s-18 -81.666 -18 -126.999c0 -46 6 -88.833 18 -128.5s27.667 -74.167 47 -103.5c19.333 -30 41.833 -53.167 67.5 -69.5s52.5 -24.5 80.5 -24.5c28.667 0 55.834 8.16699 81.501 24.5s48.167 39.5 67.5 69.5
c20 29.333 35.833 63.833 47.5 103.5s17.5 82.5 17.5 128.5c0 45.333 -5.83301 87.666 -17.5 126.999s-27.5 73.666 -47.5 102.999c-19.333 30 -41.833 53.167 -67.5 69.5s-52.834 24.5 -81.501 24.5c-28 0 -54.833 -8.16699 -80.5 -24.5s-48.167 -39.5 -67.5 -69.5zM65 351
c0 46.667 6 91.167 18 133.5s28.667 79.333 50 111s46.5 57 75.5 76s60.5 28.5 94.5 28.5s65.667 -9.5 95 -28.5s54.666 -44.333 75.999 -76s38 -68.667 50 -111s18 -86.833 18 -133.5c0 -47.333 -6 -92.166 -18 -134.499s-28.667 -79.5 -50 -111.5
s-46.666 -57.5 -75.999 -76.5s-61 -28.5 -95 -28.5s-65.5 9.5 -94.5 28.5s-54.167 44.5 -75.5 76.5s-38 69.167 -50 111.5s-18 87.166 -18 134.499z" />
    <glyph glyph-name="one" unicode="1" horiz-adv-x="335" 
d="M33 596c-1.33301 2.66699 -1.66699 5.66602 -1 8.99902s2.66699 6 6 8l140 83c7.33301 5.33301 13.333 4 18 -4c3.33301 -7.33301 1.33301 -13 -6 -17l-140 -84c-1.33301 -0.666992 -3.33301 -1 -6 -1c-2 0 -4 0.333008 -6 1s-3.66699 2.33398 -5 5.00098z
M171.999 685.999c0 3.33301 1.16699 6.33301 3.5 9s5.16602 4 8.49902 4c4 0 7.16699 -1.33301 9.5 -4s3.5 -5.66699 3.5 -9v-673c0 -8.66699 -4.33301 -13 -13 -13c-3.33301 0 -6.16602 1.33301 -8.49902 4s-3.5 5.66699 -3.5 9v673z" />
    <glyph glyph-name="two" unicode="2" horiz-adv-x="590" 
d="M48 5c-5.33301 6 -5 11.998 1 17.998l338 305c21.333 20 37.666 42.833 48.999 68.5s17 52.167 17 79.5c0 23.333 -4.33301 46.5 -13 69.5s-21.667 44.167 -39 63.5c-19.333 21.333 -42 37.666 -68 48.999s-52.333 17 -79 17c-24 0 -47.5 -4.33301 -70.5 -13
s-44.167 -21.667 -63.5 -39l-35 -32c-6.66699 -5.33301 -12.667 -5.33301 -18 0c-2.66699 2.66699 -3.83398 5.83398 -3.50098 9.50098s1.83301 6.5 4.5 8.5l35 33c22 19.333 45.833 33.833 71.5 43.5s52.167 14.5 79.5 14.5c30.667 0 60.5 -6.16699 89.5 -18.5
s54.5 -30.5 76.5 -54.5c19.333 -21.333 33.833 -45.166 43.5 -71.499s14.5 -52.833 14.5 -79.5c0 -30.667 -6.16699 -60.5 -18.5 -89.5s-31.166 -54.5 -56.499 -76.5l-314 -285h377c3.33301 0 6.16602 -1.16699 8.49902 -3.5s3.5 -5.16602 3.5 -8.49902
s-1.16699 -6.33301 -3.5 -9s-5.16602 -4 -8.49902 -4h-404h-3h-1c-5.33301 0 -8.66602 1.66699 -9.99902 5z" />
    <glyph glyph-name="three" unicode="3" horiz-adv-x="610" 
d="M264 466c26 -2.66699 51.333 -9.5 76 -20.5s46.667 -26.5 66 -46.5c22.667 -22.667 39.667 -48.167 51 -76.5s17 -57.5 17 -87.5s-5.66699 -59.333 -17 -88s-28.333 -54.667 -51 -78c-23.333 -22.667 -49.166 -39.667 -77.499 -51s-57.5 -17 -87.5 -17h-1
c-30 0 -59.167 5.5 -87.5 16.5s-53.833 28.167 -76.5 51.5c-6 6 -6 12 0 18s12 6 18 0c20.667 -20 43.5 -35 68.5 -45s50.833 -15 77.5 -15c27.333 0 53.666 5 78.999 15s48 25.333 68 46c20.667 20 36 42.667 46 68s15 51.666 15 78.999c0 26 -5 51.667 -15 77
s-25 48.333 -45 69c-20.667 20 -43.5 35 -68.5 45s-50.833 15 -77.5 15c-5.33301 0 -9.33301 2 -12 6l-1 1c-2.66699 2.66699 -4 5.83398 -4 9.50098s1.33301 6.83398 4 9.50098l202 208h-309c-8.66699 0 -13 4.33301 -13 13s4.33301 13 13 13h339
c8.66699 0 13 -4.33301 13 -13c0 -2.66699 -0.333008 -4.66699 -1 -6c-1.33301 -2.66699 -2.33301 -4.33398 -3 -5.00098z" />
    <glyph glyph-name="four" unicode="4" horiz-adv-x="664" 
d="M470 174v474l-383 -474h383zM470 149h-407h-2c-2.66699 0 -5.33398 1 -8.00098 3c-6 6 -6.66699 11.667 -2 17l422 525l2 2c2.66699 2 5.33398 3 8.00098 3c4 0 7.33301 -2 10 -6c0.666992 -0.666992 1 -1.16699 1 -1.5s0.333008 -0.833008 1 -1.5
c0 -0.666992 0.166992 -1.16699 0.5 -1.5s0.5 -0.833008 0.5 -1.5v-2v-511h61c8.66699 0 13 -4 13 -12c0 -8.66699 -4.33301 -13 -13 -13h-61v-136c0 -8.66699 -4.33301 -13 -13 -13c-3.33301 -0 -6.33301 1.33301 -9 4s-4 5.66699 -4 9v136z" />
    <glyph glyph-name="five" unicode="5" horiz-adv-x="605" 
d="M229 0c-29.333 0 -58.1699 5.66797 -86.5029 17.001s-54.166 28.666 -77.499 51.999c-2.66699 2 -4 4.83301 -4 8.5s1.33301 6.83398 4 9.50098c6 6 12 6 18 0c20.667 -20 43.667 -35.167 69 -45.5s51 -15.5 77 -15.5c26.667 0 52.834 5.16699 78.501 15.5
s48.5 25.5 68.5 45.5c20.667 20.667 36 43.667 46 69s15 51.333 15 78c0 26 -5 51.833 -15 77.5s-25.333 48.5 -46 68.5c-20 20 -42.5 35 -67.5 45s-51.167 15 -78.5 15c-26.667 0 -52.5 -5 -77.5 -15s-48.167 -25 -69.5 -45c-1.33301 -2.66699 -3.83301 -4 -7.5 -4
s-6.83398 1 -9.50098 3c-1.33301 0 -2 0.666992 -2 2l-1 1c-2 3.33301 -2.66699 6.66602 -2 9.99902l35 295c1.33301 6 4.33301 9.66699 9 11c2.66699 1.33301 5 2 7 2h338c3.33301 0 6.33301 -1.33301 9 -4s4 -5.66699 4 -9c0 -8.66699 -4.33301 -13 -13 -13h-329l-30 -254
c20.667 15.333 42.834 26.833 66.501 34.5s47.834 11.5 72.501 11.5c30 0 59.333 -5.5 88 -16.5s54.667 -28.167 78 -51.5c22 -22.667 38.667 -48.167 50 -76.5s17 -57.5 17 -87.5s-5.66699 -59.333 -17 -88s-28.666 -54.334 -51.999 -77.001
c-22.667 -23.333 -48.334 -40.666 -77.001 -51.999s-58 -17 -88 -17z" />
    <glyph glyph-name="six" unicode="6" horiz-adv-x="642" 
d="M92 227c0 -28 5.33301 -54.333 16 -79s25 -46 43 -64s39.167 -32.333 63.5 -43s50.5 -16 78.5 -16s54.167 5.33301 78.5 16s45.666 25 63.999 43s32.833 39.333 43.5 64s16.334 51 17.001 79c-0.666992 28 -6.33398 54.167 -17.001 78.5s-25.167 45.5 -43.5 63.5
s-39.666 32.333 -63.999 43s-50.5 16 -78.5 16s-54.167 -5.33301 -78.5 -16s-45.5 -25 -63.5 -43s-32.333 -39.167 -43 -63.5s-16 -50.5 -16 -78.5zM67 205c-2 20 -3.00098 40.6689 -3.00098 62.002c0 47.333 5.33301 95.666 16 144.999s28 95 52 137s56 77 96 105
s89 43.333 147 46c8.66699 0 13 -4.33301 13 -13c0 -3.33301 -1 -6.16602 -3 -8.49902s-4.66699 -3.5 -8 -3.5c-54 -2.66699 -98.833 -16.5 -134.5 -41.5s-65.167 -57.167 -88.5 -96.5c-18 -30.667 -32 -63.667 -42 -99s-16.667 -71 -20 -107
c18.667 36.667 45.834 66.167 81.501 88.5s75.5 33.5 119.5 33.5c31.333 0 60.833 -5.83301 88.5 -17.5s51.667 -27.834 72 -48.501s36.666 -44.667 48.999 -72s18.5 -56.666 18.5 -87.999s-6.16699 -60.833 -18.5 -88.5s-28.666 -51.834 -48.999 -72.501
s-44.333 -36.834 -72 -48.501s-57.167 -17.5 -88.5 -17.5c-29.333 0 -57 5.16699 -83 15.5s-49 24.5 -69 42.5s-36.5 39.167 -49.5 63.5s-20.833 50.833 -23.5 79.5c-0.666992 0.666992 -1 2 -1 4z" />
    <glyph glyph-name="seven" unicode="7" horiz-adv-x="587" 
d="M178 1c-7.33301 3.33301 -9.66602 9 -6.99902 17l275 655h-369c-8.66699 0 -13 4.33301 -13 13c0 3.33301 1.33301 6.33301 4 9s5.66699 4 9 4h390c3.33301 0 6.33301 -1.33301 9 -4s4 -5.66699 4 -9c0 -2 -1.33301 -5 -4 -9l-282 -669c-1.33301 -5.33301 -5 -8 -11 -8
c-0.666992 0 -1.33398 0.166992 -2.00098 0.5s-1.66699 0.5 -3 0.5z" />
    <glyph glyph-name="eight" unicode="8" horiz-adv-x="630" 
d="M164 561c0 -15.333 3 -29.833 9 -43.5s14.167 -25.667 24.5 -36s22.333 -18.5 36 -24.5s28.5 -9 44.5 -9c15.333 0 29.833 3 43.5 9s25.667 14.167 36 24.5s18.5 22.333 24.5 36s9 28.167 9 43.5c0 16 -3 30.833 -9 44.5s-14.167 25.667 -24.5 36s-22.333 18.5 -36 24.5
s-28.167 9 -43.5 9c-16 0 -30.833 -3 -44.5 -9s-25.667 -14.167 -36 -24.5s-18.5 -22.333 -24.5 -36s-9 -28.5 -9 -44.5zM80 222c0 -27.333 5.16699 -53 15.5 -77s24.5 -44.833 42.5 -62.5s39 -31.667 63 -42s49.667 -15.5 77 -15.5s53 5.16699 77 15.5s45 24.333 63 42
s32.167 38.5 42.5 62.5s15.5 49.667 15.5 77s-5.16699 53 -15.5 77s-24.5 45 -42.5 63s-39 32.167 -63 42.5s-49.667 15.5 -77 15.5s-53 -5.16699 -77 -15.5s-45 -24.5 -63 -42.5s-32.167 -39 -42.5 -63s-15.5 -49.667 -15.5 -77zM139 561
c0 19.333 3.66895 37.5 11.002 54.5s17.166 31.667 29.499 44s27 22.166 44 29.499s35.167 11 54.5 11c18.667 0 36.5 -3.66699 53.5 -11s31.667 -17.166 44 -29.499s22.166 -27 29.499 -44s11 -35.167 11 -54.5c0 -28 -7.33301 -53 -22 -75s-33.667 -38.667 -57 -50
c23.333 -6.66699 45 -16.667 65 -30s37.333 -29.5 52 -48.5s26.167 -40 34.5 -63s12.5 -47.167 12.5 -72.5c0 -30.667 -5.83301 -59.5 -17.5 -86.5s-27.667 -50.5 -48 -70.5s-44 -35.833 -71 -47.5s-55.833 -17.5 -86.5 -17.5s-59.5 5.83301 -86.5 17.5
s-50.667 27.5 -71 47.5s-36.333 43.5 -48 70.5s-17.5 55.833 -17.5 86.5c0 25.333 4.16699 49.5 12.5 72.5s19.833 44 34.5 63s32 35.167 52 48.5s41.667 23.333 65 30c-24 11.333 -43.333 28 -58 50s-22 47 -22 75z" />
    <glyph glyph-name="nine" unicode="9" horiz-adv-x="642" 
d="M91 473c0 -28 5.33301 -54.166 16 -78.499s25.167 -45.5 43.5 -63.5s39.833 -32.333 64.5 -43s51 -16 79 -16s54.167 5.33301 78.5 16s45.5 25 63.5 43s32.333 39.167 43 63.5s16 50.5 16 78.5c0 6.66699 -0.333008 11.667 -1 15v4v1c-2.66699 26 -9.66699 50 -21 72
s-26 41.167 -44 57.5s-38.5 29.166 -61.5 38.499s-47.5 14 -73.5 14c-28 0 -54.333 -5.33301 -79 -16s-46.167 -25 -64.5 -43s-32.833 -39.333 -43.5 -64s-16 -51 -16 -79zM66 473.001c0 31.333 6.00391 60.833 18.0039 88.5s28.333 51.667 49 72s44.834 36.5 72.501 48.5
s57.167 18 88.5 18c29.333 0 57.166 -5.33301 83.499 -16s49.5 -25.334 69.5 -44.001s36.333 -40.667 49 -66s20.334 -52.666 23.001 -81.999c1.33301 -9.33301 2.33301 -19 3 -29s1 -20 1 -30c0 -47.333 -5.33301 -95.666 -16 -144.999s-28 -95 -52 -137
c-25.333 -42 -57.666 -77 -96.999 -105s-88 -43.333 -146 -46c-8.66699 0 -13 4.33301 -13 13c-0.666992 3.33301 0.166016 6.16602 2.49902 8.49902s5.16602 3.5 8.49902 3.5c54 2.66699 98.667 16.667 134 42s64.666 57.333 87.999 96c17.333 30 31.166 62.667 41.499 98
s17.166 71 20.499 107c-18.667 -36 -45.667 -65.167 -81 -87.5s-75 -33.5 -119 -33.5c-31.333 0 -60.833 5.83301 -88.5 17.5s-51.834 27.834 -72.501 48.501s-37 44.667 -49 72s-18 56.666 -18 87.999z" />
    <glyph glyph-name="colon" unicode=":" horiz-adv-x="240" 
d="M87 56c0 9.33301 3.16699 17.166 9.5 23.499s14.166 9.5 23.499 9.5s17.166 -3.16699 23.499 -9.5s9.5 -14.166 9.5 -23.499v-27c0 -9.33301 -3.16699 -17.166 -9.5 -23.499s-14.166 -9.5 -23.499 -9.5s-17.166 3.16699 -23.499 9.5s-9.5 14.166 -9.5 23.499v27zM87 481
c0 9.33301 3.16699 17.166 9.5 23.499s14.166 9.5 23.499 9.5s17.166 -3.16699 23.499 -9.5s9.5 -14.166 9.5 -23.499v-27c0 -9.33301 -3.16699 -17.166 -9.5 -23.499s-14.166 -9.5 -23.499 -9.5s-17.166 3.16699 -23.499 9.5s-9.5 14.166 -9.5 23.499v27z" />
    <glyph glyph-name="semicolon" unicode=";" horiz-adv-x="240" 
d="M59 -90c0 5.33301 2.66504 9.66797 7.99805 13.001c18 10 30.667 21 38 33s10.333 26.667 9 44c-7.33301 2 -13.666 5.83301 -18.999 11.5s-8 13.5 -8 23.5v21c0 9.33301 3.16699 17.166 9.5 23.499s14.166 9.5 23.499 9.5s17.166 -3.16699 23.499 -9.5
s9.5 -14.166 9.5 -23.499v-25c0 -28 -2.16699 -50 -6.5 -66s-11.166 -28.667 -20.499 -38s-19.166 -17 -29.499 -23s-17.833 -9 -22.5 -9c-3.33301 0 -6.66602 1.16699 -9.99902 3.5s-5 6.16602 -5 11.499zM86.998 481.002c0 9.33301 3.16699 17.166 9.5 23.499
s14.166 9.5 23.499 9.5s17.166 -3.16699 23.499 -9.5s9.5 -14.166 9.5 -23.499v-27c0 -9.33301 -3.16699 -17.166 -9.5 -23.499s-14.166 -9.5 -23.499 -9.5s-17.166 3.16699 -23.499 9.5s-9.5 14.166 -9.5 23.499v27z" />
    <glyph glyph-name="semicolon" unicode="&#x37e;" horiz-adv-x="240" 
d="M59 -90c0 5.33301 2.66504 9.66797 7.99805 13.001c18 10 30.667 21 38 33s10.333 26.667 9 44c-7.33301 2 -13.666 5.83301 -18.999 11.5s-8 13.5 -8 23.5v21c0 9.33301 3.16699 17.166 9.5 23.499s14.166 9.5 23.499 9.5s17.166 -3.16699 23.499 -9.5
s9.5 -14.166 9.5 -23.499v-25c0 -28 -2.16699 -50 -6.5 -66s-11.166 -28.667 -20.499 -38s-19.166 -17 -29.499 -23s-17.833 -9 -22.5 -9c-3.33301 0 -6.66602 1.16699 -9.99902 3.5s-5 6.16602 -5 11.499zM86.998 481.002c0 9.33301 3.16699 17.166 9.5 23.499
s14.166 9.5 23.499 9.5s17.166 -3.16699 23.499 -9.5s9.5 -14.166 9.5 -23.499v-27c0 -9.33301 -3.16699 -17.166 -9.5 -23.499s-14.166 -9.5 -23.499 -9.5s-17.166 3.16699 -23.499 9.5s-9.5 14.166 -9.5 23.499v27z" />
    <glyph glyph-name="less" unicode="&#x3c;" horiz-adv-x="620" 
d="M396 4l-329.999 332.999c-0.666992 0 -1 0.333008 -1 1c-2.66699 2.66699 -4 4.66699 -4 6c-0.666992 1.33301 -1 3.33301 -1 6c0.666992 2 1.66699 4.33301 3 7l2 2l1 1l330 334c7.33301 7.33301 14.666 7.33301 21.999 0c4.66699 -7.33301 4.66699 -14.666 0 -21.999
l-322 -324l322 -323c4.66699 -7.33301 4.66699 -14.333 0 -21c-2.66699 -2.66699 -6.66699 -4 -12 -4c-4 -0 -7.33301 1.33301 -10 4z" />
    <glyph glyph-name="equal" unicode="=" horiz-adv-x="620" 
d="M94 439c-4.66699 0 -8.33398 1.16699 -11.001 3.5s-4 5.16602 -4 8.49902c0 4 1.33301 7.5 4 10.5s6.33398 4.5 11.001 4.5h342c4 0 7.5 -1.5 10.5 -4.5s4.5 -6.5 4.5 -10.5c0 -3.33301 -1.5 -6.16602 -4.5 -8.49902s-6.5 -3.5 -10.5 -3.5h-342zM94 231
c-10 0 -15.001 4.33301 -15.001 13c0 4 1.33301 7.66699 4 11s6.33398 5 11.001 5h342c4 0 7.5 -1.66699 10.5 -5s4.5 -7 4.5 -11s-1.5 -7.16699 -4.5 -9.5s-6.5 -3.5 -10.5 -3.5h-342z" />
    <glyph glyph-name="greater" unicode="&#x3e;" horiz-adv-x="620" 
d="M115 4c-2.66699 -2.66699 -5.99805 -3.99707 -9.99805 -3.99707c-5.33301 0 -9.33301 1.33301 -12 4c-4.66699 6.66699 -4.66699 13.667 0 21l321 323l-321 324c-4.66699 7.33301 -4.66699 14.666 0 21.999c7.33301 7.33301 14.666 7.33301 21.999 0l329 -334
c0.666992 0 1 -0.166992 1 -0.5s0.333008 -0.5 1 -0.5c0 -0.666992 0.166992 -1 0.5 -1s0.5 -0.333008 0.5 -1c0.666992 -0.666992 1.66699 -2.33398 3 -5.00098c0 -1.33301 0.166992 -2.33301 0.5 -3s0.166016 -1.66699 -0.500977 -3v-2
c-0.666992 -0.666992 -1.66699 -2.33398 -3 -5.00098l-1 -1l-1 -1z" />
    <glyph glyph-name="question" unicode="?" horiz-adv-x="534" 
d="M212 35c0 3.33301 1.16797 6.16504 3.50098 8.49805s5.16602 3.5 8.49902 3.5s6.16602 -1.16699 8.49902 -3.5s3.5 -5.16602 3.5 -8.49902v-23c0 -3.33301 -1.16699 -6.16602 -3.5 -8.49902s-5.16602 -3.5 -8.49902 -3.5c-8 0 -12 4 -12 12v23zM212.001 285.999
l-0.00488281 2v1c0 8 4 12 12 12c25.333 0 49.333 5 72 15s42.5 23.5 59.5 40.5s30.333 36.833 40 59.5s14.5 46.667 14.5 72c0 26 -4.83301 50.333 -14.5 73s-23 42.5 -40 59.5s-36.833 30.5 -59.5 40.5s-46.667 15 -72 15c-35.333 0 -67.166 -8.5 -95.499 -25.5
s-50.833 -39.833 -67.5 -68.5c-4.66699 -6 -10 -7.33301 -16 -4c-7.33301 4.66699 -8.66602 10 -3.99902 16c18 32 43 57.667 75 77s68 29 108 29c28.667 0 55.834 -5.5 81.501 -16.5s48 -26.167 67 -45.5s34.167 -41.833 45.5 -67.5s17 -53.167 17 -82.5
c0 -28 -5.33301 -54.5 -16 -79.5s-25 -47 -43 -66s-39 -34.333 -63 -46s-49.667 -18.167 -77 -19.5v-122c0 -3.33301 -1.16699 -6.16602 -3.5 -8.49902s-5.16602 -3.5 -8.49902 -3.5s-6.16602 1.16699 -8.49902 3.5s-3.5 5.16602 -3.5 8.49902v131z" />
    <glyph glyph-name="at" unicode="@" horiz-adv-x="980" 
d="M257 350c0 -21.333 3.83301 -41.5 11.5 -60.5s18.167 -35.5 31.5 -49.5s28.833 -25.167 46.5 -33.5s36.5 -12.5 56.5 -12.5s38.833 4.16699 56.5 12.5s33.334 19.5 47.001 33.5s24.334 30.5 32.001 49.5s11.5 39.167 11.5 60.5c0 22 -3.83301 42.5 -11.5 61.5
s-18.334 35.5 -32.001 49.5s-29.334 25.167 -47.001 33.5s-36.5 12.5 -56.5 12.5s-38.833 -4.16699 -56.5 -12.5s-33.167 -19.5 -46.5 -33.5s-23.833 -30.5 -31.5 -49.5s-11.5 -39.5 -11.5 -61.5zM53 350c0 48.667 9.16406 94.333 27.4971 137s43.333 79.834 75 111.501
s68.834 56.667 111.501 75s88 27.5 136 27.5c48.667 0 94.334 -9.16699 137.001 -27.5s79.834 -43.333 111.501 -75s56.667 -68.834 75 -111.501s27.5 -88.334 27.5 -137.001c0 -28.667 -3.33301 -56.5 -10 -83.5s-16.334 -52.5 -29.001 -76.5c0 -0.666992 -2 -4 -6 -10
s-9.5 -13 -16.5 -21s-15.667 -15.833 -26 -23.5s-22.5 -13.5 -36.5 -17.5c-3.33301 0 -6.5 -0.166992 -9.5 -0.5s-6.16699 -0.5 -9.5 -0.5c-10.667 0 -20 2.16699 -28 6.5s-14.333 10.166 -19 17.499c-9.33301 11.333 -14 24.666 -14 39.999v76
c-15.333 -26.667 -35.666 -48.167 -60.999 -64.5s-54 -24.5 -86 -24.5c-23.333 0 -45.5 4.83301 -66.5 14.5s-39.333 22.834 -55 39.501s-28 36 -37 58s-13.5 45.333 -13.5 70s4.5 48 13.5 70s21.333 41.333 37 58s34 29.667 55 39s43.167 14 66.5 14
c24 0 46.333 -4.66699 67 -14s38.667 -22.333 54 -39s27.5 -36 36.5 -58s13.5 -45.333 13.5 -70v-7v-3v-156c0 -4 0.833008 -8.66699 2.5 -14s4.16699 -10 7.5 -14s7 -7.16699 11 -9.5s9.33301 -3.5 16 -3.5c6 0 10.333 1 13 3c15.333 2.66699 28.5 9.5 39.5 20.5
s19.167 20.167 24.5 27.5c0.666992 1.33301 1.33398 2.33301 2.00098 3s1.33398 1.66699 2.00098 3s1 2.33301 1 3c11.333 21.333 20 44.5 26 69.5s9 50.833 9 77.5c0 44.667 -8.5 86.834 -25.5 126.501s-40.167 74.167 -69.5 103.5s-63.833 52.5 -103.5 69.5
s-81.834 25.5 -126.501 25.5s-86.667 -8.5 -126 -25.5s-73.666 -40.167 -102.999 -69.5s-52.5 -63.833 -69.5 -103.5s-25.5 -81.834 -25.5 -126.501s8.5 -86.667 25.5 -126s40.167 -73.666 69.5 -102.999s63.666 -52.5 102.999 -69.5s81.333 -25.5 126 -25.5
c29.333 0 56 3.33301 80 10c8 1.33301 13.667 -1.66699 17 -9c1.33301 -8 -2 -13.667 -10 -17c-13.333 -3.33301 -27.333 -5.83301 -42 -7.5s-29.667 -2.5 -45 -2.5c-48 0 -93.333 9.16699 -136 27.5s-79.834 43.333 -111.501 75s-56.667 68.834 -75 111.501
s-27.5 88 -27.5 136z" />
    <glyph glyph-name="A" unicode="A" horiz-adv-x="646" 
d="M157 216h330l-165 438zM497 190l-350.001 -0.00292969l-67 -179c-1.33301 -6 -5 -9 -11 -9c-0.666992 0 -1.33398 0.166992 -2.00098 0.5s-1.66699 0.5 -3 0.5c-7.33301 3.33301 -9.33301 9 -6 17l252 672c2 6.66699 6.33301 9.33398 13 8.00098
c5.33301 0 9.66602 -2.66699 12.999 -8l252 -672c1.33301 -3.33301 1.33301 -6.66602 0 -9.99902s-3.66602 -5.66602 -6.99902 -6.99902c-1.33301 0 -2.16602 -0.166992 -2.49902 -0.5s-0.833008 -0.5 -1.5 -0.5c-5.33301 0 -9.66602 3 -12.999 9z" />
    <glyph glyph-name="B" unicode="B" horiz-adv-x="594" 
d="M277 390c20 0 38.5 3.66602 55.5 10.999s32 17.5 45 30.5s23.333 28 31 45s11.5 35.5 11.5 55.5c0 19.333 -3.83301 37.666 -11.5 54.999s-18 32.333 -31 45s-28 22.834 -45 30.501s-35.5 11.834 -55.5 12.501h-148v-285h148zM323 24.999
c23.333 0 45.333 4.49902 66 13.499s38.5 21.167 53.5 36.5s26.833 33.333 35.5 54s13 42.667 13 66c0 22.667 -4.33301 44.334 -13 65.001s-20.5 38.5 -35.5 53.5s-32.833 27 -53.5 36s-42.667 13.5 -66 13.5h-194v-338h194zM104 686.998
c0 8.66699 4.33691 13.001 13.0039 13.001h2h158c23.333 0 45.166 -4.5 65.499 -13.5s38.166 -21 53.499 -36s27.5 -32.833 36.5 -53.5s13.5 -42.334 13.5 -65.001c0 -32 -8 -60.833 -24 -86.5s-37 -45.834 -63 -60.501c22.667 -4 43.667 -11.833 63 -23.5
s36 -25.834 50 -42.501s25 -35.667 33 -57s12 -43.666 12 -66.999c0 -27.333 -5 -52.833 -15 -76.5s-23.833 -44.167 -41.5 -61.5s-38.334 -31.166 -62.001 -41.499s-48.834 -15.5 -75.501 -15.5h-204h-2c-8.66699 0 -13 4.33301 -13 13v674z" />
    <glyph glyph-name="C" unicode="C" horiz-adv-x="771" 
d="M73 356c0 48.667 9.50098 94.499 28.501 137.499s45 80.5 78 112.5s71.5 57.333 115.5 76s91 28 141 28c43.333 0 84.333 -7 123 -21s73.334 -32.667 104.001 -56c7.33301 -6 8.66602 -12 3.99902 -18c-3.33301 -3.33301 -6.66602 -5.16602 -9.99902 -5.49902
s-6.33301 0.833984 -9 3.50098c-29.333 22.667 -61.833 40.167 -97.5 52.5s-73.834 18.5 -114.501 18.5c-46 0 -89.5 -8.66699 -130.5 -26s-76.833 -40.833 -107.5 -70.5s-54.834 -64.334 -72.501 -104.001s-26.5 -82.167 -26.5 -127.5c0 -46 8.83301 -89 26.5 -129
s41.834 -74.833 72.501 -104.5s66.5 -53.167 107.5 -70.5s84.5 -26 130.5 -26c40 0 77.833 6.16699 113.5 18.5s68.167 29.833 97.5 52.5c7.33301 4.66699 13.666 4 18.999 -2c2.66699 -2.66699 3.66699 -5.66699 3 -9s-2.66699 -6.33301 -6 -9
c-32 -23.333 -67 -42 -105 -56s-78.667 -21 -122 -21c-50 0 -97 9.5 -141 28.5s-82.5 44.5 -115.5 76.5s-59 69.5 -78 112.5s-28.5 89.167 -28.5 138.5z" />
    <glyph glyph-name="D" unicode="D" horiz-adv-x="719" 
d="M251 25c44.667 0.666992 86.834 9.50293 126.501 26.5029s74.167 40.167 103.5 69.5s52.5 63.666 69.5 102.999s25.5 81.666 25.5 126.999c0 44.667 -8.5 86.667 -25.5 126s-40.167 73.666 -69.5 102.999s-63.833 52.5 -103.5 69.5s-81.834 25.5 -126.501 25.5h-122v-650
h122zM104 687.003c0 8.66699 4.33301 13.002 13 13.002h1h133c48.667 0 94.167 -9.16699 136.5 -27.5s79.333 -43.333 111 -75s56.667 -68.667 75 -111s27.5 -87.5 27.5 -135.5c0 -48.667 -9.16699 -94.334 -27.5 -137.001s-43.333 -79.834 -75 -111.501
s-68.667 -56.667 -111 -75s-87.833 -27.5 -136.5 -27.5h-133h-1c-8.66699 0 -13 4.33301 -13 13v674z" />
    <glyph glyph-name="E" unicode="E" horiz-adv-x="593" 
d="M118 0h-1.99902c-8 -0 -12 4.33301 -12 13v674c0 7.33301 4 11.666 12 12.999h1h1h371c8 0 12 -4.33301 12 -13c0 -8 -4 -12 -12 -12h-360v-312h317c3.33301 0 6.16602 -1.16699 8.49902 -3.5s3.5 -5.16602 3.5 -8.49902c0 -8.66699 -4 -13 -12 -13h-317v-313h360
c8 0 12 -4 12 -12c0 -8.66699 -4 -13 -12 -13h-370h-1z" />
    <glyph glyph-name="F" unicode="F" horiz-adv-x="605" 
d="M104 13l0.000976562 673.999c0 8.66699 3.66699 13 11 13h2h1h371c8 0 12 -4.33301 12 -13c0 -8 -4 -12 -12 -12h-361v-312h318c3.33301 0 6.16602 -1.16699 8.49902 -3.5s3.5 -5.16602 3.5 -8.49902c0 -8.66699 -4 -13 -12 -13h-318v-325
c0 -8.66699 -4.33301 -13 -13 -13c-7.33301 -0 -11 4.33301 -11 13z" />
    <glyph glyph-name="G" unicode="G" horiz-adv-x="814" 
d="M437 332c-3.33301 0 -6.33301 1.16797 -9 3.50098s-4 5.16602 -4 8.49902c0 4 1.33301 7.33301 4 10s5.66699 4 9 4h227h2c8 0 12 -4.66699 12 -14v-254c0 -1.33301 -0.333008 -2.33301 -1 -3v-2c-1.33301 -3.33301 -2.66602 -5.66602 -3.99902 -6.99902
c-31.333 -24 -66.5 -43 -105.5 -57s-80.5 -21 -124.5 -21c-51.333 0 -99.333 9.5 -144 28.5s-83.834 44.833 -117.501 77.5s-60.167 71 -79.5 115s-29 91 -29 141c0 49.333 9.66699 95.833 29 139.5s45.833 81.667 79.5 114s72.834 58 117.501 77s92.667 28.5 144 28.5
c44 0 85.5 -6.83301 124.5 -20.5s74.167 -32.834 105.5 -57.501c7.33301 -5.33301 8.33301 -12 3 -20c-2 -2.66699 -5 -4.16699 -9 -4.5s-7.33301 0.833984 -10 3.50098c-29.333 23.333 -62.166 41.5 -98.499 54.5s-74.833 19.5 -115.5 19.5
c-47.333 0 -92 -8.83301 -134 -26.5s-78.5 -41.667 -109.5 -72s-55.5 -65.666 -73.5 -105.999s-27 -83.5 -27 -129.5c0 -46.667 9 -90.334 27 -131.001s42.5 -76.167 73.5 -106.5s67.5 -54.333 109.5 -72s86.667 -26.5 134 -26.5c39.333 0 76.666 6.16699 111.999 18.5
s67.666 29.166 96.999 50.499v237h-215z" />
    <glyph glyph-name="H" unicode="H" horiz-adv-x="709" 
d="M527 13v325h-398v-325c0 -3.33301 -1.16699 -6.33301 -3.5 -9s-5.16602 -4 -8.49902 -4c-8.66699 -0 -13 4.33301 -13 13v674c0 8.66699 4.33301 13 13 13c3.33301 0 6.16602 -1.33301 8.49902 -4s3.5 -5.66699 3.5 -9v-324h398v324c0 8.66699 4 13 12 13
c8.66699 0 13 -4.33301 13 -13v-674c0 -8.66699 -4.33301 -13 -13 -13c-8 -0 -12 4.33301 -12 13z" />
    <glyph glyph-name="I" unicode="I" horiz-adv-x="305" 
d="M111 13v674c0 8.66699 4.33301 13 13 13c3.33301 0 6.16602 -1.16699 8.49902 -3.5s3.5 -5.5 3.5 -9.5v-674c0 -4 -1.16699 -7.16699 -3.5 -9.5s-5.16602 -3.5 -8.49902 -3.5c-8.66699 -0 -13 4.33301 -13 13z" />
    <glyph glyph-name="J" unicode="J" horiz-adv-x="594" 
d="M45 162c-1.33301 3.33301 -1.33594 6.50098 -0.00292969 9.50098s3.66602 5.16699 6.99902 6.5c8 2 13.667 -0.666992 17 -8c6.66699 -21.333 16.334 -40.833 29.001 -58.5s27.667 -32.834 45 -45.501s36.333 -22.667 57 -30s42.667 -11 66 -11
c28.667 0.666992 55.667 6.5 81 17.5s47.5 25.833 66.5 44.5s34 40.667 45 66s16.5 52.333 16.5 81v453c0 8.66699 3.66699 13 11 13c8.66699 0 13 -4.33301 13 -13v-453c0 -32 -6.16699 -62.333 -18.5 -91s-29 -53.5 -50 -74.5s-45.667 -37.667 -74 -50
s-58.5 -18.5 -90.5 -18.5c-26 0 -50.667 4 -74 12s-44.666 19.167 -63.999 33.5s-36.166 31.5 -50.499 51.5s-25.166 41.667 -32.499 65z" />
    <glyph glyph-name="K" unicode="K" horiz-adv-x="715" 
d="M104 13l0.000976562 673c0 3.33301 1.16699 6.33301 3.5 9s5.5 4 9.5 4c3.33301 0 6.33301 -1.33301 9 -4s4 -5.66699 4 -9v-450l459 459c6.66699 5.33301 12.667 5.33301 18 0c6 -6 6 -12 0 -18l-286 -286l287 -369c5.33301 -7.33301 5 -13.333 -1 -18
c-2.66699 -2.66699 -5.33398 -4 -8.00098 -4c-2 0 -3.83301 0.5 -5.5 1.5s-3.16699 2.16699 -4.5 3.5l-286 368l-171 -172l-2 -2v-186c0 -3.33301 -1.33301 -6.33301 -4 -9s-5.66699 -4 -9 -4c-8.66699 -0 -13 4.33301 -13 13z" />
    <glyph glyph-name="L" unicode="L" horiz-adv-x="563" 
d="M119 0h-2c-8.66699 -0 -13 4.33301 -13 13v674c0 8.66699 4.33301 13 13 13c8 0 12 -4.33301 12 -13v-662h361c8.66699 0 13 -4 13 -12c0 -8.66699 -4.33301 -13 -13 -13h-371z" />
    <glyph glyph-name="M" unicode="M" horiz-adv-x="844" 
d="M664 13l-0.00195312 636l-255 -355c-3.33301 -3.33301 -7 -5 -11 -5h-2c-5.33301 0 -9 1.66699 -11 5l-256 356v-637c0 -8.66699 -4 -13 -12 -13c-8.66699 -0 -13 4.33301 -13 13v673c0 3.33301 1.33301 6.33301 4 9s5.66699 4 9 4c1.33301 0 2.33301 -0.333008 3 -1
c2 0 5 -1.33301 9 -4l268 -372l268 372c2.66699 2.66699 5.33398 4 8.00098 4c0.666992 0.666992 1.66699 1 3 1c4 0 7.16699 -1.33301 9.5 -4s3.5 -5.66699 3.5 -9v-673c0 -8.66699 -4.33301 -13 -13 -13c-3.33301 -0 -6.16602 1.33301 -8.49902 4s-3.5 5.66699 -3.5 9z
" />
    <glyph glyph-name="N" unicode="N" horiz-adv-x="771" 
d="M589 9l-460 639v-635c0 -8.66699 -4 -13 -12 -13c-3.33301 -0 -6.33301 1.33301 -9 4s-4 5.66699 -4 9v669v3c0 4 1.66699 7.66699 5 11c7.33301 4 13.333 3.33301 18 -2l462 -642v630c0 3.33301 1.33301 6.33301 4 9s5.66699 4 9 4c8 0 12 -4.33301 12 -13v-669
c0 -8.66699 -4 -13 -12 -13c-6 0 -10 2.66699 -12 8c-0.666992 0 -1 0.333008 -1 1z" />
    <glyph glyph-name="O" unicode="O" horiz-adv-x="850" 
d="M100 349c0 -46 8.33301 -89.333 25 -130s39.167 -76 67.5 -106s61.5 -53.833 99.5 -71.5s78.667 -26.834 122 -27.501c42.667 0.666992 83 9.83398 121 27.501s71.167 41.5 99.5 71.5s51 65.333 68 106s25.5 84 25.5 130c0 46.667 -8.5 90.334 -25.5 131.001
s-39.667 76.167 -68 106.5s-61.5 54.166 -99.5 71.499s-78.333 26 -121 26c-43.333 0 -84 -8.66699 -122 -26s-71.167 -41.166 -99.5 -71.499s-50.833 -65.833 -67.5 -106.5s-25 -84.334 -25 -131.001zM73 349c0 50 9 97 27 141s42.333 82.167 73 114.5s66.667 58 108 77
s85.666 28.5 132.999 28.5s91.666 -9.5 132.999 -28.5s77.333 -44.667 108 -77s55 -70.5 73 -114.5s27.333 -91 28 -141c-0.666992 -50 -10 -97 -28 -141s-42.333 -82.333 -73 -115s-66.667 -58.5 -108 -77.5s-85.666 -28.5 -132.999 -28.5s-91.666 9.5 -132.999 28.5
s-77.333 44.833 -108 77.5s-55 71 -73 115s-27 91 -27 141z" />
    <glyph glyph-name="P" unicode="P" horiz-adv-x="583" 
d="M322 337c23.333 0 45.166 4.33301 65.499 13s38.166 20.5 53.499 35.5s27.5 32.833 36.5 53.5s13.5 42.667 13.5 66s-4.5 45.333 -13.5 66s-21.167 38.667 -36.5 54s-33.166 27.5 -53.499 36.5s-42.166 13.5 -65.499 13.5h-193v-338h193zM104 687
c0 8.66699 4.33301 12.998 13 12.998h2h203c26.667 0 51.834 -5.16699 75.501 -15.5s44.334 -24.166 62.001 -41.499s31.667 -38 42 -62s15.5 -49.333 15.5 -76c0 -27.333 -5.16699 -52.666 -15.5 -75.999s-24.333 -43.833 -42 -61.5s-38.334 -31.5 -62.001 -41.5
s-48.834 -15 -75.501 -15h-193v-298c0 -8.66699 -4 -13 -12 -13c-8.66699 -0 -13 4.33301 -13 13v674z" />
    <glyph glyph-name="Q" unicode="Q" horiz-adv-x="844" 
d="M93 354c0 -45.333 8.16699 -88 24.5 -128s38.5 -74.833 66.5 -104.5s60.5 -53 97.5 -70s76.5 -25.5 118.5 -25.5c42.667 0 83 8.5 121 25.5s71 40.333 99 70s50.167 64.5 66.5 104.5s24.5 82.667 24.5 128c0 46 -8.16699 89 -24.5 129s-38.5 74.833 -66.5 104.5
s-61 53 -99 70s-78.333 25.5 -121 25.5c-42 0 -81.5 -8.5 -118.5 -25.5s-69.5 -40.333 -97.5 -70s-50.167 -64.5 -66.5 -104.5s-24.5 -83 -24.5 -129zM807 -71c5.33301 -6 4.66602 -12.332 -2.00098 -18.999c-26.667 -20.667 -52.834 -35.5 -78.501 -44.5
s-51.167 -13.5 -76.5 -13.5c-32 0 -62.167 5.5 -90.5 16.5s-56.166 24.5 -83.499 40.5c-15.333 9.33301 -30.833 15.833 -46.5 19.5s-30.834 5.5 -45.501 5.5c-22.667 0 -42.667 -2.66699 -60 -8s-30 -9.66602 -38 -12.999c-1.33301 -1.33301 -2.33301 -2 -3 -2
s-1.33398 -0.333008 -2.00098 -1l-1 -1c-7.33301 -2.66699 -12.333 -2.33398 -15 0.999023c-1.33301 0.666992 -2.33301 1.66699 -3 3s-1.66699 2.66602 -3 3.99902c-1.33301 3.33301 -1.5 6.66602 -0.5 9.99902s3.5 5.66602 7.5 6.99902l143 67h-9
c-46 0 -89.167 9.16699 -129.5 27.5s-75.666 43.5 -105.999 75.5s-54.333 69.5 -72 112.5s-26.5 88.833 -26.5 137.5s8.83301 94.667 26.5 138s41.667 81.166 72 113.499s65.666 57.833 105.999 76.5s83.5 28 129.5 28c46.667 0 90.334 -9.33301 131.001 -28
s76.167 -44.167 106.5 -76.5s54.333 -70.166 72 -113.499s26.5 -89.333 26.5 -138c0 -36.667 -5.16699 -71.834 -15.5 -105.501s-24.666 -64.667 -42.999 -93s-40.333 -53.666 -66 -75.999s-53.834 -40.166 -84.501 -53.499l-143 -67c16 0 33 -1.83301 51 -5.5
s35.667 -11.167 53 -22.5c26.667 -15.333 53.334 -28.166 80.001 -38.499s54 -15.5 82 -15.5c21.333 0 43.5 4 66.5 12s47.167 22 72.5 42c2.66699 2 5.83398 2.83301 9.50098 2.5s6.5 -1.83301 8.5 -4.5z" />
    <glyph glyph-name="R" unicode="R" horiz-adv-x="625" 
d="M308 337l1.99902 0.000976562c22.667 0 44.167 4.5 64.5 13.5s38.166 21 53.499 36s27.333 32.667 36 53s13 42.166 13 65.499s-4.5 45.333 -13.5 66s-21.167 38.667 -36.5 54s-33.166 27.5 -53.499 36.5s-42.166 13.5 -65.499 13.5h-193v-338h193zM483.999 38.001
c-6 10 -10.6689 23.8291 -14.002 41.4961s-5 41.5 -5 71.5c0 24.667 -4.83301 45.667 -14.5 63s-21.5 32.333 -35.5 45s-28.667 22.5 -44 29.5s-28.666 12.5 -39.999 16.5c-4 1.33301 -7.66699 2.33301 -11 3s-6 1.33398 -8 2.00098c-2.66699 0.666992 -5 1 -7 1h-190v-298
c0 -8.66699 -4 -13 -12 -13c-8.66699 0 -13 4.33301 -13 13v674c0 8.66699 4.33301 13 13 13h1h1h203c26.667 0 51.834 -5.16699 75.501 -15.5s44.334 -24.166 62.001 -41.499s31.667 -38 42 -62s15.5 -49.333 15.5 -76c0 -22 -3.5 -43 -10.5 -63s-16.667 -38.167 -29 -54.5
s-27.166 -30.333 -44.499 -42s-36 -20.5 -56 -26.5c12 -5.33301 24 -11.333 36 -18c10.667 -6 21.5 -13.667 32.5 -23s20.833 -20.166 29.5 -32.499s15.667 -26.333 21 -42s8 -33.167 8 -52.5c0 -28.667 1.66699 -51 5 -67s6.66602 -27.667 9.99902 -35
c4.66699 -7.33301 8.16699 -11.166 10.5 -11.499s3.83301 -0.5 4.5 -0.5h2c3.33301 0.666992 6.5 0.166992 9.5 -1.5s4.83301 -4.16699 5.5 -7.5c1.33301 -3.33301 1.16602 -6.5 -0.500977 -9.5s-4.16699 -4.83301 -7.5 -5.5c-0.666992 -1.33301 -3.66699 -2 -9 -2
s-11.333 2 -18 6s-12.667 11 -18 21z" />
    <glyph glyph-name="S" unicode="S" horiz-adv-x="667" 
d="M71 102c-2.66699 2 -4.16504 4.66797 -4.49805 8.00098s0.5 6.33301 2.5 9c5.33301 5.33301 10.666 5.66602 15.999 0.999023c14 -11.333 29.833 -22.666 47.5 -33.999s37 -21.5 58 -30.5s43.167 -16.5 66.5 -22.5s47 -9 71 -9c32.667 0 63 4.5 91 13.5
s52.667 21.167 74 36.5s37.833 33 49.5 53s17.5 41.333 17.5 64s-5.5 42.667 -16.5 60s-26.833 33 -47.5 47s-45.334 25.833 -74.001 35.5s-60.667 17.5 -96 23.5l-2 1c-33.333 6 -64 13.833 -92 23.5s-52.667 21.5 -74 35.5s-38.166 30.667 -50.499 50
s-18.5 41.666 -18.5 66.999c0 24.667 6.5 47.834 19.5 69.501s30.167 40.334 51.5 56.001s46.333 28 75 37s59 13.5 91 13.5c22.667 0 44 -2.5 64 -7.5s39 -11.5 57 -19.5s34.833 -16.833 50.5 -26.5l44.5 -28.5c2.66699 -1.33301 4.33398 -3.5 5.00098 -6.5
s0 -6.16699 -2 -9.5c-1.33301 -2.66699 -3.5 -4.16699 -6.5 -4.5s-5.83301 0.166992 -8.5 1.5l-44 28c-15.333 9.33301 -31.333 17.666 -48 24.999s-34.334 13.333 -53.001 18s-38.334 7 -59.001 7c-30 0 -58.167 -4.16699 -84.5 -12.5s-49.166 -19.5 -68.499 -33.5
s-34.333 -30.167 -45 -48.5s-16 -37.833 -16 -58.5s5 -38.834 15 -54.501s24.667 -30.167 44 -43.5s42.333 -24.5 69 -33.5s56 -16.5 88 -22.5h2c36 -7.33301 69 -15.833 99 -25.5s56.667 -22.167 80 -37.5c22.667 -15.333 40.667 -33.333 54 -54s20 -44.667 20 -72
s-6.83301 -52.5 -20.5 -75.5s-32.167 -43 -55.5 -60s-50.333 -30.333 -81 -40s-63.334 -14.5 -98.001 -14.5c-26 0 -51.5 3.16699 -76.5 9.5s-48.5 14.333 -70.5 24s-42.333 20.5 -61 32.5s-35 23.667 -49 35z" />
    <glyph glyph-name="T" unicode="T" horiz-adv-x="648" 
d="M294 13v662h-231c-8.66699 0 -13 4 -13 12c0 8.66699 4.33301 13 13 13h487c8.66699 0 13 -4.33301 13 -13c0 -8 -4.33301 -12 -13 -12h-230v-662c0 -3.33301 -1.33301 -6.33301 -4 -9s-5.66699 -4 -9 -4c-8.66699 -0 -13 4.33301 -13 13z" />
    <glyph glyph-name="U" unicode="U" horiz-adv-x="814" 
d="M105 281v406c0 8.66699 4.33301 13 13 13c8 0 12 -4.33301 12 -13v-406c0 -35.333 6.66699 -68.5 20 -99.5s31.5 -58 54.5 -81s50 -41.167 81 -54.5s64.167 -20.333 99.5 -21c34.667 0.666992 67.5 7.66699 98.5 21s58 31.5 81 54.5s41.333 50 55 81
s20.5 64.167 20.5 99.5v406c0 8.66699 4.33301 13 13 13c3.33301 0 6.33301 -1.33301 9 -4s4 -5.66699 4 -9v-406c0 -39.333 -7.5 -76 -22.5 -110s-35.167 -63.667 -60.5 -89s-55 -45.333 -89 -60s-70.333 -22 -109 -22s-75 7.33301 -109 22s-63.667 34.667 -89 60
s-45.333 55 -60 89s-22 70.667 -22 110z" />
    <glyph glyph-name="V" unicode="V" horiz-adv-x="750" 
d="M349 1c-0.666992 0 -1.66699 0.666016 -3 1.99902c-1.33301 0.666992 -2.66602 2.33398 -3.99902 5.00098l-283 673c-1.33301 3.33301 -1.5 6.5 -0.5 9.5s3.16699 5.16699 6.5 6.5c7.33301 3.33301 13.333 1.33301 18 -6l271 -645l272 645
c1.33301 3.33301 3.5 5.5 6.5 6.5s6.16699 0.833008 9.5 -0.5s5.66602 -3.5 6.99902 -6.5s1.33301 -6.16699 0 -9.5l-283 -673l-1 -1c-1.33301 -3.33301 -3.33301 -5.33301 -6 -6h-1c-0.666992 -0.666992 -2 -1 -4 -1h-1h-2z" />
    <glyph glyph-name="W" unicode="W" horiz-adv-x="1102" 
d="M771 1c-3.33301 0.666992 -5.66309 3.33008 -6.99609 7.99707l-196 469l-198 -470c-1.33301 -3.33301 -3.66602 -5.66602 -6.99902 -6.99902h-1c-0.666992 -0.666992 -1.66699 -1 -3 -1h-1c-2 0 -3.33301 0.333008 -4 1h-1c-0.666992 0 -1.66699 0.666992 -3 2
c-0.666992 0 -1 0.333008 -1 1c-2 2 -3 4 -3 6l-282 671c-2 3.33301 -2.33301 6.5 -1 9.5s3.66602 5.16699 6.99902 6.5s6.66602 1.5 9.99902 0.5s5.66602 -3.16699 6.99902 -6.5l271 -646l196 465c2 6 6.33301 9 13 9c6 1.33301 10.667 -1.66699 14 -9l195 -465l272 646
c4.66699 6.66699 10.334 8.66699 17.001 6c3.33301 -1.33301 5.66602 -3.5 6.99902 -6.5s1.33301 -6.16699 0 -9.5l-283 -673c-0.666992 -1.33301 -1.33398 -2.16602 -2.00098 -2.49902s-1.33398 -1.16602 -2.00098 -2.49902l-2 -1c-2.66699 -1.33301 -4.66699 -2 -6 -2h-1
h-1c-1.33301 -0 -2.33301 0.333008 -3 1h-1z" />
    <glyph glyph-name="X" unicode="X" horiz-adv-x="722" 
d="M79 3c-6 5.33301 -6.66699 11 -2 17l240 329l-240 330c-2 2.66699 -3 5.66699 -3 9s1.66699 6 5 8c2.66699 2 5.83398 2.83301 9.50098 2.5s6.5 -1.83301 8.5 -4.5l235 -323l236 323c4.66699 6 10.667 6.66699 18 2c2.66699 -2 4.16699 -4.66699 4.5 -8
s-0.166992 -6.33301 -1.5 -9l-241 -330l241 -329c3.33301 -6 2.33301 -11.667 -3 -17c-3.33301 -2 -6 -3 -8 -3c-1.33301 0 -3 0.5 -5 1.5s-3.66699 2.16699 -5 3.5l-236 323l-235 -323c-1.33301 -1.33301 -2.83301 -2.5 -4.5 -3.5s-3.5 -1.5 -5.5 -1.5
c-2.66699 0 -5.33398 1 -8.00098 3z" />
    <glyph glyph-name="Y" unicode="Y" horiz-adv-x="604" 
d="M304 13l0.000976562 329l-245 337c-2.66699 2.66699 -3.66699 5.66699 -3 9s2.66699 6 6 8c2.66699 2 5.66699 2.83301 9 2.5s6 -1.83301 8 -4.5l238 -327l237 327c6 6 12 6.66699 18 2c7.33301 -5.33301 8.66602 -11 3.99902 -17l-247 -337v-329
c0 -8.66699 -4 -13 -12 -13c-8.66699 -0 -13 4.33301 -13 13z" />
    <glyph glyph-name="Z" unicode="Z" horiz-adv-x="667" 
d="M84 673c-8.66699 0 -13 4.33398 -13 13.001c0 3.33301 1.16699 6.33301 3.5 9s5.5 4 9.5 4h491c4 0 7.16699 -1.33301 9.5 -4s3.5 -5.66699 3.5 -9c0 -1.33301 -0.166992 -2.33301 -0.5 -3s-0.5 -1.33398 -0.5 -2.00098l-1 -2c-0.666992 -1.33301 -1.16699 -2 -1.5 -2
s-0.833008 -0.333008 -1.5 -1l-475 -651h467c8.66699 0 13 -4 13 -12c0 -8.66699 -4.33301 -13 -13 -13h-490h-1c-8.66699 -0 -13 4.33301 -13 13c0 4.66699 1.66699 8 5 10l473 650h-465z" />
    <glyph glyph-name="bracketleft" unicode="[" horiz-adv-x="430" 
d="M98 674c0 7.33301 2.5 13.5 7.5 18.5s11.167 7.5 18.5 7.5h232c5.33301 0 9.66602 -1 12.999 -3s5 -5.66699 5 -11s-1.66699 -8.33301 -5 -9s-7.66602 -1 -12.999 -1h-233v-782h233c5.33301 0 9.66602 -0.833008 12.999 -2.5s5 -5.16699 5 -10.5s-1.66699 -8.5 -5 -9.5
s-7.66602 -1.5 -12.999 -1.5h-232c-7.33301 0 -13.5 2.5 -18.5 7.5s-7.5 11.167 -7.5 18.5v778z" />
    <glyph glyph-name="backslash" unicode="\" horiz-adv-x="448" 
d="M364 2c-0.666992 -0.666992 -2.33398 -1.00098 -5.00098 -1.00098c-6 0 -9.66699 2.66699 -11 8l-285 673c-1.33301 3.33301 -1.16602 6.5 0.500977 9.5s4.16699 5.16699 7.5 6.5s6.5 1.33301 9.5 0s5.16699 -3.66602 6.5 -6.99902l283 -672
c3.33301 -8 1.33301 -13.667 -6 -17z" />
    <glyph glyph-name="bracketright" unicode="]" horiz-adv-x="430" 
d="M331 -104c0 -7.33301 -2.5 -13.5 -7.5 -18.5s-11.167 -7.5 -18.5 -7.5h-232c-5.33301 0 -9.66602 0.5 -12.999 1.5s-5 4.16699 -5 9.5s1.66699 8.83301 5 10.5s7.66602 2.5 12.999 2.5h233v782h-233c-5.33301 0 -9.66602 0.333008 -12.999 1s-5 3.66699 -5 9
s1.66699 9 5 11s7.66602 3 12.999 3h232c7.33301 0 13.5 -2.5 18.5 -7.5s7.5 -11.167 7.5 -18.5v-778z" />
    <glyph glyph-name="asciicircum" unicode="^" horiz-adv-x="500" 
d="M93 173c-6 0.666992 -9.33203 4.99902 -9.99902 12.999s0.666016 13.333 3.99902 16l179 137c8.66699 6.66699 16 10 22 10s13.333 -3.33301 22 -10l178 -137c3.33301 -2.66699 5.66602 -5.83398 6.99902 -9.50098s2 -7.5 2 -11.5c0 -8.66699 -3.66699 -12.667 -11 -12
s-13.666 3.33398 -18.999 8.00098l-178 141l-180 -141c-3.33301 -2.66699 -6 -4.16699 -8 -4.5s-4.66699 -0.166016 -8 0.500977z" />
    <glyph glyph-name="underscore" unicode="_" horiz-adv-x="600" 
d="M-2 -160c-6 0 -11.167 1.33301 -15.5 4s-6.5 7 -6.5 13s2.16699 10.333 6.5 13s9.5 4 15.5 4h334c6 0 11.167 -1.33301 15.5 -4s6.5 -7 6.5 -13s-2.16699 -10.333 -6.5 -13s-9.5 -4 -15.5 -4h-334z" />
    <glyph glyph-name="grave" unicode="`" horiz-adv-x="500" 
d="M271 598l-12.001 4.49902c-2.66699 1 -6.66699 4.5 -12 10.5l-71 77c-3.33301 3.33301 -6.16602 6.5 -8.49902 9.5s-2.83301 5.83301 -1.5 8.5s2.33301 5.83398 3 9.50098s5.66699 5.5 15 5.5c10.667 0 20 -6 28 -18l62 -93c2.66699 -4 4 -7.66699 4 -11
c0 -4.66699 -2.33301 -5.66699 -7 -3z" />
    <glyph glyph-name="a" unicode="a" horiz-adv-x="619" 
d="M271 25c28 0 54.5 5.66699 79.5 17s46.833 27 65.5 47s33.5 43.333 44.5 70s16.5 55.334 16.5 86.001c0 30 -5.5 58.333 -16.5 85s-25.833 50 -44.5 70s-40.5 35.667 -65.5 47s-51.5 17 -79.5 17s-54.5 -5.66699 -79.5 -17s-46.833 -27 -65.5 -47
s-33.5 -43.333 -44.5 -70s-16.5 -55 -16.5 -85c0 -30.667 5.5 -59.334 16.5 -86.001s25.833 -50 44.5 -70s40.5 -35.667 65.5 -47s51.5 -17 79.5 -17zM490 490c3.33301 0 6.16699 -1.33301 8.5 -4s3.5 -5.66699 3.5 -9v-464c0 -8.66699 -4 -13 -12 -13
c-8.66699 -0 -13 4.33301 -13 13v122c-19.333 -40 -47.166 -72.5 -83.499 -97.5s-77.166 -37.5 -122.499 -37.5c-32 0 -62 6.5 -90 19.5s-52.5 30.667 -73.5 53s-37.5 48.333 -49.5 78s-18 61.167 -18 94.5s6 64.833 18 94.5s28.5 55.667 49.5 78s45.5 40 73.5 53
s58 19.5 90 19.5c45.333 0 86.166 -12.5 122.499 -37.5s64.166 -57.5 83.499 -97.5v122c0 3.33301 1.16699 6.33301 3.5 9s5.5 4 9.5 4z" />
    <glyph glyph-name="b" unicode="b" horiz-adv-x="660" 
d="M118 246c0 -30.667 5.66699 -59.335 17 -86.002s26.5 -50 45.5 -70s41.333 -35.833 67 -47.5s52.834 -17.5 81.501 -17.5c29.333 0 56.833 5.83301 82.5 17.5s48.167 27.5 67.5 47.5s34.666 43.333 45.999 70s17 55.334 17 86.001c0 30 -5.66699 58.333 -17 85
s-26.666 50 -45.999 70s-41.833 35.667 -67.5 47s-53.167 17 -82.5 17c-28 0 -54.5 -5.5 -79.5 -16.5s-47.167 -26 -66.5 -45s-34.833 -41.167 -46.5 -66.5s-17.834 -52.666 -18.501 -81.999v-9zM93 233.999v11.9971v10v429c0 3.33301 1.16699 6.66602 3.5 9.99902
s5.5 5 9.5 5c3.33301 0 6.16602 -1.66699 8.49902 -5s3.5 -6.66602 3.5 -9.99902v-330c10 20 22.167 38.333 36.5 55s30.666 30.834 48.999 42.501s38 20.834 59 27.501s43.167 10 66.5 10c32.667 0 63.5 -6.5 92.5 -19.5s54.333 -30.5 76 -52.5s38.667 -47.833 51 -77.5
s18.5 -61.167 18.5 -94.5c0 -34 -6.16699 -65.833 -18.5 -95.5s-29.333 -55.667 -51 -78s-47 -40 -76 -53s-59.833 -19.5 -92.5 -19.5c-23.333 0 -45.5 3.33301 -66.5 10s-40.667 15.834 -59 27.501s-34.666 25.667 -48.999 42s-26.5 34.5 -36.5 54.5v-121
c0 -3.33301 -1.16699 -6.33301 -3.5 -9s-5.16602 -4 -8.49902 -4c-8.66699 0 -13 4.33301 -13 13v221z" />
    <glyph glyph-name="c" unicode="c" horiz-adv-x="571" 
d="M58 245c0 34 6.66699 65.832 20 95.499s31.333 55.5 54 77.5s49.334 39.5 80.001 52.5s63.334 19.5 98.001 19.5c29.333 0 57.333 -4.5 84 -13.5s50.667 -22.167 72 -39.5c5.33301 -5.33301 5.66602 -11.666 0.999023 -18.999
c-4 -5.33301 -9.66699 -5.66602 -17 -0.999023c-19.333 15.333 -41 27.166 -65 35.499s-49 12.5 -75 12.5c-32 0 -61.667 -5.83301 -89 -17.5s-51.333 -27.5 -72 -47.5s-36.834 -43.333 -48.501 -70s-17.5 -55 -17.5 -85s5.83301 -58.333 17.5 -85s27.834 -50 48.501 -70
s44.667 -35.833 72 -47.5s57 -17.5 89 -17.5c26 0 51 4.33301 75 13s45.667 20.667 65 36c2.66699 1.33301 5.66699 1.83301 9 1.5s6 -1.83301 8 -4.5c4.66699 -6.66699 4.33398 -12.667 -0.999023 -18c-21.333 -16.667 -45.333 -29.667 -72 -39s-54.667 -14 -84 -14
c-34.667 0 -67.334 6.5 -98.001 19.5s-57.334 30.667 -80.001 53s-40.667 48.333 -54 78s-20 61.167 -20 94.5z" />
    <glyph glyph-name="d" unicode="d" horiz-adv-x="660" 
d="M509 255c-1.33301 29.333 -7.66895 56.667 -19.002 82s-26.666 47.5 -45.999 66.5s-41.5 34 -66.5 45s-51.5 16.5 -79.5 16.5c-29.333 0 -56.833 -5.66699 -82.5 -17s-48.167 -27 -67.5 -47s-34.666 -43.333 -45.999 -70s-17 -55 -17 -85
c0 -30.667 5.66699 -59.334 17 -86.001s26.666 -50 45.999 -70s41.833 -35.833 67.5 -47.5s53.167 -17.5 82.5 -17.5c28.667 0 55.834 5.83301 81.501 17.5s48 27.5 67 47.5s34.167 43.333 45.5 70s17 55.334 17 86.001v9zM533.997 13.001
c0 -8.66699 -4.33301 -12.9971 -13 -12.9971c-3.33301 0 -6.16602 1.33301 -8.49902 4s-3.5 5.66699 -3.5 9v121c-10 -20 -22.167 -38.167 -36.5 -54.5s-30.666 -30.333 -48.999 -42s-38.166 -20.834 -59.499 -27.501s-43.333 -10 -66 -10c-33.333 0 -64.333 6.5 -93 19.5
s-53.834 30.667 -75.501 53s-38.667 48.333 -51 78s-18.5 61.5 -18.5 95.5c0 33.333 6.16699 64.833 18.5 94.5s29.333 55.5 51 77.5s46.834 39.5 75.501 52.5s59.667 19.5 93 19.5c22.667 0 44.667 -3.33301 66 -10s41.166 -15.834 59.499 -27.501
s34.666 -25.834 48.999 -42.501s26.5 -35 36.5 -55v330c0 3.33301 1.16699 6.66602 3.5 9.99902s5.16602 5 8.49902 5c4 0 7.16699 -1.66699 9.5 -5s3.5 -6.66602 3.5 -9.99902v-429v-10v-12v-221z" />
    <glyph glyph-name="e" unicode="e" horiz-adv-x="609" 
d="M296 464c-27.333 0 -53.1689 -4.83301 -77.502 -14.5s-45.833 -23.167 -64.5 -40.5s-34.167 -37.666 -46.5 -60.999s-20.166 -48.666 -23.499 -75.999h422c-3.33301 27.333 -11.166 52.666 -23.499 75.999s-27.833 43.666 -46.5 60.999s-40 30.833 -64 40.5
s-49.333 14.5 -76 14.5zM295.997 0c-32.667 0.666992 -63.3369 7.49707 -92.0039 20.4971s-53.834 30.5 -75.501 52.5s-38.667 47.833 -51 77.5s-18.833 61.167 -19.5 94.5c0.666992 34 7.16699 65.833 19.5 95.5s29.333 55.667 51 78s46.834 39.833 75.501 52.5
s59.334 19 92.001 19c31.333 0 60.666 -5.83301 87.999 -17.5s51.5 -27.667 72.5 -48s38.167 -44.166 51.5 -71.499s21 -57 23 -89v-1v-2v-1c-0.666992 -3.33301 -2 -6.16602 -4 -8.49902s-4.66699 -3.5 -8 -3.5h-436v-3c0 -30 5.5 -58.333 16.5 -85s26.167 -50 45.5 -70
s42 -35.833 68 -47.5s53.667 -17.5 83 -17.5c37.333 0 71.333 9.16699 102 27.5s55.334 42.5 74.001 72.5c4 5.33301 10 6.33301 18 3c2.66699 -1.33301 4.33398 -3.66602 5.00098 -6.99902s0 -6.66602 -2 -9.99902c-21.333 -32.667 -49.166 -59.334 -83.499 -80.001
s-72.166 -31 -113.499 -31z" />
    <glyph glyph-name="f" unicode="f" horiz-adv-x="362" 
d="M280 701c8.66699 0 13.002 -4 13.002 -12c0 -8.66699 -4.33301 -13 -13 -13c-34.667 0 -59 -8 -73 -24c-7.33301 -8 -13 -19.5 -17 -34.5s-6 -34.167 -6 -57.5v-66h84c8 0 12 -4.33301 12 -13s-4 -13 -12 -13h-84v-454c0 -8.66699 -4.33301 -13 -13 -13
s-13 4.33301 -13 13v454h-80c-8.66699 0 -13 4.33301 -13 13s4.33301 13 13 13h80v66c0 50 10 86.333 30 109c11.333 12 24.666 20.333 39.999 25s32.666 7 51.999 7z" />
    <glyph glyph-name="g" unicode="g" horiz-adv-x="660" 
d="M497 245c0 30.667 -5.5 59.334 -16.5 86.001s-25.833 50 -44.5 70s-40.5 35.667 -65.5 47s-51.5 17 -79.5 17s-54.5 -5.66699 -79.5 -17s-46.833 -27 -65.5 -47s-33.5 -43.333 -44.5 -70s-16.5 -55.334 -16.5 -86.001s5.5 -59.334 16.5 -86.001
s25.833 -49.834 44.5 -69.501s40.5 -35.167 65.5 -46.5s51.5 -17 79.5 -17s54.5 5.66699 79.5 17s46.833 26.833 65.5 46.5s33.5 42.834 44.5 69.501s16.5 55.334 16.5 86.001zM509 490c8.66699 0 13.001 -4.33301 13.001 -13v-449c0 -32 -6 -62.167 -18 -90.5
s-28.5 -53 -49.5 -74s-45.5 -37.5 -73.5 -49.5s-58 -18 -90 -18c-18.667 0 -36.334 2.16699 -53.001 6.5s-33 10.166 -49 17.499c-6.66699 4.66699 -8.33398 10.334 -5.00098 17.001c3.33301 6 9 8 17 6c14 -7.33301 28.333 -12.833 43 -16.5s30.334 -5.5 47.001 -5.5
c28.667 0.666992 55.5 6.5 80.5 17.5s46.833 25.667 65.5 44s33.334 40 44.001 65s16 51.833 16 80.5v107c-18.667 -40 -46.334 -72.5 -83.001 -97.5s-77.667 -37.5 -123 -37.5c-32 0 -62 6.5 -90 19.5s-52.5 30.667 -73.5 53s-37.5 48.333 -49.5 78s-18 61.167 -18 94.5
c0 34 6 65.833 18 95.5s28.5 55.5 49.5 77.5s45.5 39.5 73.5 52.5s58 19.5 90 19.5c45.333 0 86.333 -12.5 123 -37.5s64.334 -57.167 83.001 -96.5v121c0 3.33301 1.16699 6.33301 3.5 9s5.16602 4 8.49902 4z" />
    <glyph glyph-name="h" unicode="h" 
d="M465 13l0.00390625 277.998c0 24 -4.5 46.5 -13.5 67.5s-21.333 39.333 -37 55s-34 28 -55 37s-43.5 13.5 -67.5 13.5c-23.333 0 -45.333 -4.33301 -66 -13s-38.834 -20.5 -54.501 -35.5s-28.334 -32.667 -38.001 -53s-14.834 -41.833 -15.501 -64.5v-285
c0 -5.33301 -1.66699 -9 -5 -11c-2.66699 -1.33301 -4.33398 -2 -5.00098 -2h-2c-3.33301 0 -6.33301 1 -9 3c-2.66699 2.66699 -4 5.33398 -4 8.00098v2v278v8v388c0 8.66699 4.33301 13 13 13c8 0 12 -4.33301 12 -13v-300c17.333 30.667 41.166 55.5 71.499 74.5
s64.5 28.5 102.5 28.5c27.333 0 53 -5.16699 77 -15.5s45 -24.5 63 -42.5s32.167 -39.167 42.5 -63.5s15.5 -50.166 15.5 -77.499v-278c0 -3.33301 -1.16699 -6.33301 -3.5 -9s-5.16602 -4 -8.49902 -4c-8.66699 -0 -13 4.33301 -13 13z" />
    <glyph glyph-name="i" unicode="i" horiz-adv-x="281" 
d="M94 635c0 8.66699 4.33301 13 13 13c3.33301 0 6.16602 -1.16699 8.49902 -3.5s3.5 -5.5 3.5 -9.5v-24c0 -3.33301 -1.16699 -6.16602 -3.5 -8.49902s-5.16602 -3.5 -8.49902 -3.5c-4 0 -7.16699 1.16699 -9.5 3.5s-3.5 5.16602 -3.5 8.49902v24zM94 478
c0 8 4.33301 12 13 12c3.33301 0 6.16602 -1 8.49902 -3s3.5 -5 3.5 -9v-465c0 -3.33301 -1.16699 -6.33301 -3.5 -9s-5.16602 -4 -8.49902 -4c-8.66699 -0 -13 4.33301 -13 13v465z" />
    <glyph glyph-name="j" unicode="j" horiz-adv-x="249" 
d="M60 637c0 8.66699 4.33301 12.999 13 12.999c3.33301 0 6.5 -1.33301 9.5 -4s4.5 -5.66699 4.5 -9v-24c0 -3.33301 -1.5 -6.16602 -4.5 -8.49902s-6.16699 -3.5 -9.5 -3.5c-8.66699 0 -13 4 -13 12v24zM-5 -192.001c0 9.33301 4 14 12 14c14 0 26 4.83301 36 14.5
s15 22.167 15 37.5v604c0 3.33301 1.16699 6.16602 3.5 8.49902s5.16602 3.5 8.49902 3.5s6.5 -1.16699 9.5 -3.5s4.5 -5.16602 4.5 -8.49902v-604c0 -21.333 -7.5 -39.5 -22.5 -54.5s-33.167 -22.5 -54.5 -22.5c-3.33301 0 -6.16602 1.16699 -8.49902 3.5
s-3.5 4.83301 -3.5 7.5z" />
    <glyph glyph-name="k" unicode="k" horiz-adv-x="560" 
d="M93 13l-0.000976562 674c0 8.66699 4.33301 13 13 13c3.33301 0 6.16602 -1.33301 8.49902 -4s3.5 -5.66699 3.5 -9v-519l322 322c5.33301 5.33301 11.333 5.33301 18 0c6 -6 6 -12 0 -18l-203 -203l203 -247c4.66699 -6.66699 4 -13 -2 -19c-2 -2 -4.33301 -3 -7 -3
c-5.33301 0 -8.66602 1.66699 -9.99902 5l-203 245l-115 -115c-1.33301 -1.33301 -2.33301 -2 -3 -2v-120c0 -3.33301 -1.16699 -6.33301 -3.5 -9s-5.16602 -4 -8.49902 -4c-8.66699 -0 -13 4.33301 -13 13z" />
    <glyph glyph-name="l" unicode="l" horiz-adv-x="249" 
d="M100 13v674c0 8.66699 4.33301 13 13 13c8 0 12 -4.33301 12 -13v-674c0 -8.66699 -4 -13 -12 -13c-8.66699 -0 -13 4.33301 -13 13z" />
    <glyph glyph-name="m" unicode="m" horiz-adv-x="951" 
d="M829 13l-0.000976562 279.002c0 24 -4.5 46.5 -13.5 67.5s-21.167 39.333 -36.5 55s-33.333 28 -54 37s-42.667 13.5 -66 13.5s-45.333 -4.33301 -66 -13s-38.667 -20.5 -54 -35.5s-27.666 -32.667 -36.999 -53s-14.333 -41.833 -15 -64.5v-7v-279
c0 -2 -0.333008 -3.33301 -1 -4c0 -0.666992 -0.166992 -1.16699 -0.5 -1.5s-0.5 -0.833008 -0.5 -1.5c-0.666992 -0.666992 -1 -1.33398 -1 -2.00098c-2.66699 -2.66699 -6 -4 -10 -4c-8 0 -12 4.33301 -12 13v279c0 24 -4.5 46.5 -13.5 67.5s-21.333 39.333 -37 55
s-33.834 28 -54.501 37s-43 13.5 -67 13.5c-23.333 0 -45.166 -4.33301 -65.499 -13s-38.166 -20.5 -53.499 -35.5s-27.666 -32.667 -36.999 -53s-14.333 -41.833 -15 -64.5v-286c0 -2 -0.666992 -4.33301 -2 -7c-0.666992 -0.666992 -1 -1.33398 -1 -2.00098
c-0.666992 0 -1 -0.166992 -1 -0.5s-0.333008 -0.5 -1 -0.5c-2 -2 -4.33301 -3 -7 -3h-3c-7.33301 1.33301 -11 5.66602 -11 12.999v279c0 4 0.166992 8 0.5 12s0.833008 8 1.5 12v161c0 8.66699 4 13 12 13c3.33301 0 6.16602 -1.16699 8.49902 -3.5s3.5 -5.5 3.5 -9.5v-89
c17.333 30.667 40.833 55.334 70.5 74.001s63.167 28 100.5 28c20.667 0 40.667 -3.16699 60 -9.5s37 -15.166 53 -26.499s30 -24.833 42 -40.5s21.667 -32.834 29 -51.501c14 38 37.667 68.833 71 92.5s71.333 35.5 114 35.5c26.667 0 52 -5.16699 76 -15.5
s44.667 -24.5 62 -42.5s31.166 -39 41.499 -63s15.5 -49.667 15.5 -77v-279c0 -8.66699 -4 -13 -12 -13c-3.33301 -0 -6.33301 1.33301 -9 4s-4 5.66699 -4 9z" />
    <glyph glyph-name="n" unicode="n" 
d="M463 13l0.00195312 278.998c0 24 -4.5 46.667 -13.5 68s-21.333 39.666 -37 54.999s-34 27.5 -55 36.5s-43.167 13.5 -66.5 13.5s-45.5 -4.5 -66.5 -13.5s-39.333 -21.167 -55 -36.5s-28.167 -33.666 -37.5 -54.999s-14 -44 -14 -68v-279c0 -3.33301 -1 -6 -3 -8
c-2 -3.33301 -5 -5 -9 -5h-2h-2c-0.666992 0.666992 -1.16699 1 -1.5 1s-0.833008 0.333008 -1.5 1c-0.666992 0 -1.66699 0.666992 -3 2c-0.666992 0.666992 -1 1.33398 -1 2.00098c-1.33301 1.33301 -2 3 -2 5v2v279v8v178c0 8 4.33301 12 13 12c8 0 12 -4 12 -12v-90
c17.333 30.667 41.166 55.334 71.499 74.001s64.166 28 101.499 28c26.667 0 52 -5.16699 76 -15.5s45 -24.5 63 -42.5s32.167 -39 42.5 -63s15.5 -49.667 15.5 -77v-279c0 -8.66699 -4.33301 -13 -13 -13c-8 -0 -12 4.33301 -12 13z" />
    <glyph glyph-name="o" unicode="o" horiz-adv-x="625" 
d="M95 245c0 -30 5.5 -58.333 16.5 -85s25.833 -50 44.5 -70s40.5 -35.833 65.5 -47.5s51.5 -17.5 79.5 -17.5s54.667 5.83301 80 17.5s47.333 27.5 66 47.5s33.5 43.333 44.5 70s16.5 55 16.5 85c0 30.667 -5.5 59.334 -16.5 86.001s-25.833 50 -44.5 70
s-40.667 35.667 -66 47s-52 17 -80 17s-54.5 -5.66699 -79.5 -17s-46.833 -27 -65.5 -47s-33.5 -43.333 -44.5 -70s-16.5 -55.334 -16.5 -86.001zM70 245c0 34 6 65.833 18 95.5s28.5 55.5 49.5 77.5s45.5 39.5 73.5 52.5s58 19.5 90 19.5s62 -6.5 90 -19.5
s52.5 -30.5 73.5 -52.5s37.667 -47.833 50 -77.5s18.5 -61.5 18.5 -95.5c0 -33.333 -6.16699 -64.833 -18.5 -94.5s-29 -55.667 -50 -78s-45.5 -40 -73.5 -53s-58 -19.5 -90 -19.5s-62 6.5 -90 19.5s-52.5 30.667 -73.5 53s-37.5 48.333 -49.5 78s-18 61.167 -18 94.5z" />
    <glyph glyph-name="p" unicode="p" horiz-adv-x="660" 
d="M118 248c0 -30 5.50098 -58.167 16.501 -84.5s26 -49.333 45 -69s41.167 -35.167 66.5 -46.5s52.333 -17 81 -17s55.834 5.66699 81.501 17s48 26.833 67 46.5s34 42.667 45 69s16.5 54.5 16.5 84.5s-5.5 58.167 -16.5 84.5s-26 49.333 -45 69s-41.333 35.167 -67 46.5
s-52.834 17 -81.501 17c-28 0 -54.333 -5.5 -79 -16.5s-46.5 -25.833 -65.5 -44.5s-34.333 -40.667 -46 -66s-17.834 -52.333 -18.501 -81v-9zM93.001 238v9.99902v10v219c0 8.66699 4.33301 13 13 13c8 0 12 -4.33301 12 -13v-121c19.333 40 47.5 72.333 84.5 97
s78.5 37 124.5 37c32.667 0 63.5 -6.33301 92.5 -19s54 -30 75 -52s37.667 -47.667 50 -77s18.5 -60.666 18.5 -93.999s-6.16699 -64.833 -18.5 -94.5s-29 -55.5 -50 -77.5s-46 -39.333 -75 -52s-59.833 -19 -92.5 -19c-46 0 -87.5 12.333 -124.5 37
s-65.167 56.667 -84.5 96v-339c0 -8.66699 -4 -13 -12 -13c-8.66699 0 -13 4.33301 -13 13v439z" />
    <glyph glyph-name="q" unicode="q" horiz-adv-x="660" 
d="M505 257c-1.33301 28.667 -7.66699 55.667 -19 81s-26.5 47.333 -45.5 66s-40.833 33.5 -65.5 44.5s-51 16.5 -79 16.5c-28.667 0 -55.834 -5.66699 -81.501 -17s-48 -26.833 -67 -46.5s-34 -42.667 -45 -69s-16.5 -54.5 -16.5 -84.5s5.5 -58.167 16.5 -84.5
s26 -49.333 45 -69s41.333 -35.167 67 -46.5s52.834 -17 81.501 -17s55.667 5.66699 81 17s47.5 26.833 66.5 46.5s34 42.667 45 69s16.5 54.5 16.5 84.5v9zM529.999 -201c0 -8.66699 -4.33301 -12.999 -13 -12.999c-8 0 -12 4.33301 -12 13v339
c-19.333 -39.333 -47.5 -71.333 -84.5 -96s-78.5 -37 -124.5 -37c-33.333 0 -64.333 6.33301 -93 19s-53.5 30 -74.5 52s-37.667 47.833 -50 77.5s-18.5 61.167 -18.5 94.5s6.16699 64.666 18.5 93.999s29 55 50 77s45.833 39.333 74.5 52s59.667 19 93 19
c46 0 87.5 -12.333 124.5 -37s65.167 -57 84.5 -97v121c0 8.66699 4 13 12 13c8.66699 0 13 -4.33301 13 -13v-219v-10v-10v-439z" />
    <glyph glyph-name="r" unicode="r" horiz-adv-x="439" 
d="M94 13l-0.00195312 229.001c-0.666992 1.33301 -0.666992 3.33301 0 6v229c0 3.33301 1.16699 6.33301 3.5 9s5.16602 4 8.49902 4c8 0 12 -4.33301 12 -13v-166c4 9.33301 8.5 18.833 13.5 28.5s10.833 19.5 17.5 29.5c9.33301 14 20.333 28.333 33 43
s27.167 27.667 43.5 39s34.333 20.666 54 27.999s41.167 11 64.5 11c8.66699 0 13 -4.33301 13 -13s-4.33301 -13 -13 -13c-31.333 0 -58.666 -6.5 -81.999 -19.5s-43.333 -28.833 -60 -47.5c-17.333 -20 -32 -41.333 -44 -64s-21.333 -41.667 -28 -57
c-2 -5.33301 -3.66699 -10 -5 -14s-2.66602 -7.66699 -3.99902 -11l-3 -9v-229c0 -8.66699 -4 -13 -12 -13c-3.33301 0 -6.16602 1.16699 -8.49902 3.5s-3.5 5.5 -3.5 9.5z" />
    <glyph glyph-name="s" unicode="s" horiz-adv-x="492" 
d="M57 70c-3.33301 2 -5 4.50195 -5 7.50195s1 5.83301 3 8.5c2 3.33301 4.66699 5.33301 8 6s6.66602 -0.666016 9.99902 -3.99902c18 -14.667 41.333 -28.834 70 -42.501s59.334 -20.5 92.001 -20.5c21.333 0 41.166 3 59.499 9s34.5 14 48.5 24
c29.333 20.667 44 46 44 76c-0.666992 27.333 -14.334 50.333 -41.001 69c-27.333 17.333 -65 30.666 -113 39.999h-3c-22.667 3.33301 -43.667 8.16602 -63 14.499s-36.333 14.833 -51 25.5c-14.667 9.33301 -26.5 21.166 -35.5 35.499s-13.5 30.166 -13.5 47.499
c0 18 4.5 34.5 13.5 49.5s21.167 28 36.5 39s33 19.667 53 26s41.333 9.5 64 9.5c31.333 0 59 -6.16699 83 -18.5s45.667 -25.166 65 -38.499c3.33301 -2 5.16602 -4.66699 5.49902 -8s-0.166992 -6.33301 -1.5 -9c-4.66699 -7.33301 -10.667 -8.66602 -18 -3.99902
c-19.333 12.667 -39.666 24.667 -60.999 36s-45.666 17 -72.999 17c-20.667 0 -39.667 -2.83301 -57 -8.5s-32.333 -13.167 -45 -22.5c-26 -20 -39 -42.667 -39 -68c0 -24.667 12.333 -45.334 37 -62.001c12.667 -8.66699 28 -16 46 -22s38 -11.333 60 -16h1
c24.667 -5.33301 47.334 -11 68.001 -17s39 -14.333 55 -25c15.333 -10.667 27.833 -23.5 37.5 -38.5s14.5 -32.167 14.5 -51.5s-4.83301 -37.166 -14.5 -53.499s-22.5 -30.5 -38.5 -42.5s-34.667 -21.333 -56 -28s-44 -10 -68 -10c-18.667 0 -36.5 2.16699 -53.5 6.5
s-33.167 9.83301 -48.5 16.5s-29.333 14.167 -42 22.5s-24 16.5 -34 24.5z" />
    <glyph glyph-name="t" unicode="t" horiz-adv-x="400" 
d="M244 490c8.66699 0 13 -4.33301 13 -13c0 -8 -4.33301 -12 -13 -12h-80v-390c0 -14 5 -26 15 -36s22 -15 36 -15c8.66699 0 13 -4 13 -12c0 -8.66699 -4.33301 -13 -13 -13c-21.333 0 -39.333 7.33301 -54 22s-22 32.667 -22 54v390h-84c-8.66699 0 -13 4 -13 12
c0 8.66699 4.33301 13 13 13h84v196c0 8.66699 4 13 12 13c8.66699 0 13 -4.33301 13 -13v-196h80z" />
    <glyph glyph-name="u" unicode="u" 
d="M83 198l0.000976562 279c0 8.66699 4.33301 13 13 13c3.33301 0 6.16602 -1.33301 8.49902 -4s3.5 -5.66699 3.5 -9v-279c0 -24 4.5 -46.5 13.5 -67.5s21.167 -39.333 36.5 -55s33.5 -28 54.5 -37s43.167 -13.5 66.5 -13.5c24 0 46.333 4.5 67 13.5
s38.834 21.333 54.501 37s28 34 37 55s13.5 43.5 13.5 67.5v279c0 3.33301 1.33301 6.33301 4 9s5.66699 4 9 4c8.66699 0 13 -4.33301 13 -13v-279c0 -27.333 -5.16699 -53 -15.5 -77s-24.5 -45 -42.5 -63s-39 -32.167 -63 -42.5s-49.667 -15.5 -77 -15.5
s-52.833 5.16699 -76.5 15.5s-44.334 24.5 -62.001 42.5s-31.667 39 -42 63s-15.5 49.667 -15.5 77z" />
    <glyph glyph-name="v" unicode="v" horiz-adv-x="582" 
d="M251 8l-194.999 462.999c-1.33301 3.33301 -1.33301 6.5 0 9.5s3.66602 5.16699 6.99902 6.5c7.33301 3.33301 12.666 1 15.999 -7l184 -435l184 435c2.66699 8.66699 7.66699 11 15 7c3.33301 -1.33301 5.83301 -3.5 7.5 -6.5s1.83398 -6.16699 0.500977 -9.5l-195 -462
c0 -1.33301 -0.666992 -2.66602 -2 -3.99902c-3.33301 -3.33301 -6.33301 -5 -9 -5h-1h-3c-4 1.33301 -7 4 -9 8z" />
    <glyph glyph-name="w" unicode="w" horiz-adv-x="861" 
d="M551 1c-1.33301 0 -2.66309 0.667969 -3.99609 2.00098s-2 2.33301 -2 3c-0.666992 0 -1 0.333008 -1 1v1l-132 314l-132 -314c-2 -4.66699 -5 -7.33398 -9 -8.00098h-4h-2c-0.666992 0 -2.33398 0.666992 -5.00098 2c-3.33301 2 -5 4.66699 -5 8l-194 461
c-1.33301 3.33301 -1.33301 6.5 0 9.5s3.66602 5.16699 6.99902 6.5s6.66602 1.5 9.99902 0.5s5.66602 -3.16699 6.99902 -6.5l183 -436l131 312c2 6 6.66699 8.33301 14 7c4.66699 0 8.66699 -2.33301 12 -7l131 -312l184 436c2.66699 7.33301 8 9.33301 16 6
c3.33301 -1.33301 5.66602 -3.5 6.99902 -6.5s1.33301 -6.16699 0 -9.5l-195 -463c0 -2 -1.33301 -3.66699 -4 -5c-3.33301 -2 -5.66602 -3 -6.99902 -3c-2.66699 -0 -4.66699 0.333008 -6 1z" />
    <glyph glyph-name="x" unicode="x" horiz-adv-x="570" 
d="M73 3c-2.66699 1.33301 -4.16797 3.66699 -4.50098 7s0.5 6.66602 2.5 9.99902l164 225l-164 224c-2 2.66699 -2.83301 5.66699 -2.5 9s1.83301 6 4.5 8c7.33301 4 13.333 3 18 -3l160 -218l157 218c2.66699 2.66699 5.66699 4.33398 9 5.00098s6.33301 0 9 -2
c3.33301 -2 5.33301 -4.66699 6 -8s0 -6.33301 -2 -9l-163 -224l163 -225c4.66699 -7.33301 3.33398 -13 -3.99902 -17c-0.666992 -2 -2.66699 -3 -6 -3c-5.33301 0 -9.33301 1.66699 -12 5l-157 218l-160 -218c-2.66699 -3.33301 -6 -5 -10 -5c-3.33301 0 -6 1 -8 3z" />
    <glyph glyph-name="y" unicode="y" horiz-adv-x="588" 
d="M52 198l-0.00390625 278.997c0 8.66699 4.33301 13 13 13c3.33301 0 6.16602 -1.33301 8.49902 -4s3.5 -5.66699 3.5 -9v-279c0 -23.333 4.5 -45.5 13.5 -66.5s21.333 -39.167 37 -54.5s33.834 -27.5 54.501 -36.5s43 -13.5 67 -13.5c22.667 0 44 4.33301 64 13
s37.667 20.334 53 35.001s27.5 32 36.5 52s14.167 41.333 15.5 64v286v2c0 0.666992 0.666992 2.33398 2 5.00098c0 0.666992 0.333008 1 1 1l3 3c2.66699 1.33301 5 2 7 2h2c0.666992 0 1.16699 -0.166992 1.5 -0.5s0.833008 -0.5 1.5 -0.5l3 -3l1 -1c2 -2 3 -4.66699 3 -8
v-449c0 -31.333 -6 -61 -18 -89s-28.333 -52.5 -49 -73.5s-45 -37.5 -73 -49.5s-58 -18 -90 -18c-18 0 -35.333 2.16699 -52 6.5s-32.667 10.166 -48 17.499c-8 3.33301 -9.66699 9 -5 17c1.33301 3.33301 3.5 5.5 6.5 6.5s5.83301 0.833008 8.5 -0.5
c14 -7.33301 28.333 -12.833 43 -16.5s30.334 -5.5 47.001 -5.5c28.667 0 55.334 5.33301 80.001 16s46.334 25.334 65.001 44.001s33.334 40.5 44.001 65.5s16 51.5 16 79.5v74c-16 -30 -39 -54.167 -69 -72.5s-63.333 -27.5 -100 -27.5c-27.333 0 -53 5.16699 -77 15.5
s-44.833 24.333 -62.5 42s-31.667 38.334 -42 62.001s-15.5 49.167 -15.5 76.5z" />
    <glyph glyph-name="z" unicode="z" horiz-adv-x="554" 
d="M76 464c-8 0 -11.9951 4.33105 -11.9951 12.998c0 3.33301 1.16699 6.33301 3.5 9s5.16602 4 8.49902 4h336c3.33301 0 5.66602 -0.166992 6.99902 -0.5s2.66602 -1.16602 3.99902 -2.49902c2 -1.33301 3.66699 -4 5 -8v-2v-2c0 -0.666992 -0.166992 -1.16699 -0.5 -1.5
s-0.5 -0.833008 -0.5 -1.5c-0.666992 -2 -2.33398 -4.33301 -5.00098 -7l-322 -440h315c4 0 7.16699 -1.16699 9.5 -3.5s3.5 -5.16602 3.5 -8.49902c0 -8.66699 -4.33301 -13 -13 -13h-339c-2.66699 -0 -4.33398 0.333008 -5.00098 1
c-2.66699 1.33301 -4.33398 2.33301 -5.00098 3c-2 2 -3.16699 4.5 -3.5 7.5s0.833984 5.83301 3.50098 8.5l324 444h-314z" />
    <glyph glyph-name="braceleft" unicode="{" horiz-adv-x="480" 
d="M406 -139c-42 8.66699 -76.168 19.1641 -102.501 31.4971s-46.833 26.666 -61.5 42.999s-24.5 35 -29.5 56s-7.5 44.5 -7.5 70.5v79c0 19.333 -1.66699 36.833 -5 52.5s-9.66602 29 -18.999 40s-22.166 19.5 -38.499 25.5s-37.5 9 -63.5 9c-16 0 -24 6.33301 -24 19
s8 19 24 19c26 0 47.167 3 63.5 9s29.166 14.5 38.499 25.5s15.666 24.333 18.999 40s5 33.167 5 52.5v79c0 26 2.5 49.5 7.5 70.5s14.833 39.667 29.5 56s35.167 30.666 61.5 42.999s60.5 22.833 102.5 31.5c5.33301 1.33301 10.166 1.66602 14.499 0.999023
s6.5 -4 6.5 -10c0 -4 -1.16699 -6.83301 -3.5 -8.5s-5.16602 -3.16699 -8.49902 -4.5c-36 -9.33301 -65.833 -19.666 -89.5 -30.999s-42.167 -24.166 -55.5 -38.499s-22.666 -31 -27.999 -50s-8 -40.833 -8 -65.5v-75c0 -22 -2.5 -41 -7.5 -57s-12 -29.667 -21 -41
s-19.833 -20.666 -32.5 -27.999s-27 -13.333 -43 -18c16.667 -5.33301 31.5 -11.666 44.5 -18.999s23.833 -16.5 32.5 -27.5s15.334 -24.5 20.001 -40.5s7 -35 7 -57v-75c0 -24.667 2.66699 -46.5 8 -65.5s14.666 -35.667 27.999 -50s31.833 -27.166 55.5 -38.499
s53.5 -21.666 89.5 -30.999c3.33301 -1.33301 6.16602 -3 8.49902 -5s3.5 -5 3.5 -9c0 -6 -2.16699 -9.16699 -6.5 -9.5s-9.16602 0.166992 -14.499 1.5z" />
    <glyph glyph-name="bar" unicode="|" horiz-adv-x="286" 
d="M121 780c0 6 0.666992 11.167 2 15.5s5 6.5 11 6.5s10.167 -2.16699 12.5 -6.5s3.5 -9.5 3.5 -15.5v-890c0 -6 -1.16699 -11.167 -3.5 -15.5s-6.5 -6.5 -12.5 -6.5s-9.66699 2.16699 -11 6.5s-2 9.5 -2 15.5v890z" />
    <glyph glyph-name="braceright" unicode="}" horiz-adv-x="480" 
d="M74 -139c-5.33301 -1.33301 -10.167 -1.83008 -14.5 -1.49707s-6.5 3.5 -6.5 9.5c0 4 1.16699 7 3.5 9s5.16602 3.66699 8.49902 5c36 9.33301 65.833 19.666 89.5 30.999s42.167 24.166 55.5 38.499s22.666 31 27.999 50s8 40.833 8 65.5v75c0 22 2.33301 41 7 57
s11.334 29.5 20.001 40.5s19.5 20.167 32.5 27.5s27.833 13.666 44.5 18.999c-16 4.66699 -30.333 10.667 -43 18s-23.5 16.666 -32.5 27.999s-16 25 -21 41s-7.5 35 -7.5 57v75c0 24.667 -2.66699 46.5 -8 65.5s-14.666 35.667 -27.999 50s-31.833 27.166 -55.5 38.499
s-53.5 21.666 -89.5 30.999c-3.33301 1.33301 -6.16602 2.83301 -8.49902 4.5s-3.5 4.5 -3.5 8.5c0 6 2.16699 9.33301 6.5 10s9.16602 0.333984 14.499 -0.999023c42 -8.66699 76.167 -19.167 102.5 -31.5s46.833 -26.666 61.5 -42.999s24.5 -35 29.5 -56
s7.5 -44.5 7.5 -70.5v-79c0 -19.333 1.66699 -36.833 5 -52.5s9.66602 -29 18.999 -40s22.166 -19.5 38.499 -25.5s37.5 -9 63.5 -9c16 0 24 -6.33301 24 -19s-8 -19 -24 -19c-26 0 -47.167 -3 -63.5 -9s-29.166 -14.5 -38.499 -25.5s-15.666 -24.333 -18.999 -40
s-5 -33.167 -5 -52.5v-79c0 -26 -2.5 -49.5 -7.5 -70.5s-14.833 -39.667 -29.5 -56s-35.167 -30.666 -61.5 -42.999s-60.5 -22.833 -102.5 -31.5z" />
    <glyph glyph-name="asciitilde" unicode="~" horiz-adv-x="460" 
d="M117 253c-1.33301 -3.33301 -3.00195 -6.16504 -5.00195 -8.49805s-5.66699 -3.5 -11 -3.5c-10.667 0 -16 4.33301 -16 13c0 1.33301 0.5 3.66602 1.5 6.99902s1.83301 5.66602 2.5 6.99902c2.66699 8 6.83398 15.5 12.501 22.5s12 13.333 19 19s14.5 10.167 22.5 13.5
s15.333 5 22 5c9.33301 0 19.666 -2 30.999 -6s22.833 -8.33301 34.5 -13l33.5 -13c10.667 -4 20.334 -6 29.001 -6c20.667 0 37.334 14.333 50.001 43c1.33301 3.33301 2.66602 7 3.99902 11s4.33301 6 9 6c5.33301 0 9.66602 -1.5 12.999 -4.5s5 -7.16699 5 -12.5
c0 -4 -0.666992 -8 -2 -12c-6.66699 -20 -16.667 -36.333 -30 -49s-29.666 -19 -48.999 -19c-9.33301 0 -19.5 2 -30.5 6s-22.167 8.5 -33.5 13.5s-22.666 9.5 -33.999 13.5s-21.333 6 -30 6c-20.667 0 -36.667 -13 -48 -39z" />
    <glyph glyph-name="exclamdown" unicode="&#xa1;" horiz-adv-x="252" 
d="M93 687c0 8.66699 4.33301 13 13 13c3.33301 0 6.16602 -1.16699 8.49902 -3.5s3.5 -5.5 3.5 -9.5v-24c0 -3.33301 -1.16699 -6.16602 -3.5 -8.49902s-5.16602 -3.5 -8.49902 -3.5c-4 0 -7.16699 1.16699 -9.5 3.5s-3.5 5.16602 -3.5 8.49902v24zM93 533
c0 8 4.33301 11.999 13 11.999c3.33301 0 6.16602 -1.16699 8.49902 -3.5s3.5 -5.16602 3.5 -8.49902v-520c0 -4 -1.16699 -7.16699 -3.5 -9.5s-5.16602 -3.5 -8.49902 -3.5c-8.66699 -0 -13 4.33301 -13 13v520z" />
    <glyph glyph-name="cent" unicode="&#xa2;" horiz-adv-x="581" 
d="M313 464c-31.333 0 -60.833 -5.83301 -88.5 -17.5s-51.667 -27.5 -72 -47.5s-36.333 -43.333 -48 -70s-17.5 -55 -17.5 -85c0 -36 8 -69.167 24 -99.5s38 -55.5 66 -75.5l194 387c-20 5.33301 -39.333 8 -58 8zM152 -10c-3.33301 1.33301 -5.66406 3.5 -6.99707 6.5
s-1.33301 6.16699 0 9.5l21 41c-32 22.667 -57.333 51.167 -76 85.5s-28 71.5 -28 111.5c0 34 6.66699 65.833 20 95.5s31.333 55.5 54 77.5s49.167 39.5 79.5 52.5s62.833 19.5 97.5 19.5c12 0 23.667 -0.833008 35 -2.5s22.666 -4.16699 33.999 -7.5l20 39
c1.33301 3.33301 3.5 5.66602 6.5 6.99902s6.16699 1.33301 9.5 0c3.33301 -0.666992 6 -2.5 8 -5.5s2.33301 -6.16699 1 -9.5l-20 -39c11.333 -4.66699 22.166 -9.83398 32.499 -15.501s20.166 -12.167 29.499 -19.5c5.33301 -5.33301 5.66602 -11.666 0.999023 -18.999
c-4 -5.33301 -9.66699 -5.66602 -17 -0.999023c-19.333 14 -38.333 24.667 -57 32l-199 -392c35.333 -20.667 74 -31 116 -31c26 0 51 4.33301 75 13s45.667 20.667 65 36c2.66699 1.33301 5.66699 1.83301 9 1.5s6 -1.83301 8 -4.5
c4.66699 -6.66699 4.33398 -12.667 -0.999023 -18c-21.333 -16.667 -45.333 -29.667 -72 -39s-54.667 -14 -84 -14c-23.333 0 -45.666 3 -66.999 9s-41.333 14.333 -60 25l-19 -37c0 -5.33301 -3.33301 -8 -10 -8c-2.66699 0 -4.33398 0.333008 -5.00098 1z" />
    <glyph glyph-name="sterling" unicode="&#xa3;" horiz-adv-x="644" 
d="M66 -1c0 5.33301 3.99707 8.66797 11.9971 10.001l78 9v293h-66c-6.66699 0 -12.334 0.166992 -17.001 0.5s-7 3.83301 -7 10.5s2.33301 10.667 7 12s10.334 2 17.001 2h66v128c0 38 5.5 72.333 16.5 103s27.167 56.667 48.5 78c18.667 18.667 40.667 33 66 43
s53.333 15 84 15c48.667 0 88.667 -9 120 -27s58 -40 80 -66c4.66699 -6 7 -12.333 7 -19c0 -7.33301 -1.66699 -10.666 -5 -9.99902s-7.66602 1 -12.999 1c-4.66699 0 -9.16699 3.33301 -13.5 10s-7.83301 11.334 -10.5 14.001c-20 22.667 -42.667 40.667 -68 54
s-57.666 20 -96.999 20c-24 0 -48.333 -4.83301 -73 -14.5s-44 -21.5 -58 -35.5c-8 -8 -15.667 -18.167 -23 -30.5s-13.666 -25.833 -18.999 -40.5s-9.5 -30 -12.5 -46s-4.5 -32 -4.5 -48v-129h304c6.66699 0 12.334 -0.666992 17.001 -2s7 -5.33301 7 -12
s-2.33301 -10.167 -7 -10.5s-10.334 -0.5 -17.001 -0.5h-304v-293l380 -1c6.66699 0 12.334 -0.333008 17.001 -1s7 -4.33398 7 -11.001s-2.33301 -10.334 -7 -11.001s-10.334 -1 -17.001 -1h-482c-3.33301 0 -6.33301 0.166992 -9 0.5s-4 2.16602 -4 5.49902z" />
    <glyph glyph-name="yen" unicode="&#xa5;" horiz-adv-x="686" 
d="M303 13v164h-158c-10 0 -15 4.33301 -15 13c0 4 1.33301 7.66699 4 11s6.33398 5 11.001 5h158v124h-158c-4.66699 0 -8.33398 1.16699 -11.001 3.5s-4 5.16602 -4 8.49902c0 4 1.33301 7.5 4 10.5s6.33398 4.5 11.001 4.5h147l-234 322
c-2.66699 2.66699 -3.66699 5.66699 -3 9s2.66699 6 6 8c2.66699 2 5.66699 2.83301 9 2.5s6 -1.83301 8 -4.5l238 -327l237 327c6 6 12 6.66699 18 2c7.33301 -5.33301 8.66602 -11 3.99902 -17l-236 -322h148c4 0 7.5 -1.5 10.5 -4.5s4.5 -6.5 4.5 -10.5
c0 -3.33301 -1.5 -6.16602 -4.5 -8.49902s-6.5 -3.5 -10.5 -3.5h-159v-124h159c4 0 7.5 -1.66699 10.5 -5s4.5 -7 4.5 -11s-1.5 -7.16699 -4.5 -9.5s-6.5 -3.5 -10.5 -3.5h-159v-164c0 -8.66699 -4 -13 -12 -13c-8.66699 -0 -13 4.33301 -13 13z" />
    <glyph glyph-name="dieresis" unicode="&#xa8;" horiz-adv-x="500" 
d="M315 637c0 9.33301 3.33301 17.333 10 24s14.667 10 24 10s17.333 -3.33301 24 -10s10 -14.667 10 -24s-3.33301 -17.333 -10 -24s-14.667 -10 -24 -10s-17.333 3.33301 -24 10s-10 14.667 -10 24zM133 637c0 9.33301 3.33301 17.333 10 24s14.667 10 24 10
s17.166 -3.33301 23.499 -10s9.5 -14.667 9.5 -24s-3.16699 -17.333 -9.5 -24s-14.166 -10 -23.499 -10s-17.333 3.33301 -24 10s-10 14.667 -10 24z" />
    <glyph glyph-name="copyright" unicode="&#xa9;" horiz-adv-x="830" 
d="M419 166c-26 0 -49.999 5.00098 -71.999 15.001s-41.167 23.5 -57.5 40.5s-29.166 36.833 -38.499 59.5s-14 47 -14 73v2c0 25.333 4.66699 49.5 14 72.5s22.333 43.167 39 60.5s36 31 58 41s46 15 72 15c30 0 55 -4.83301 75 -14.5s38 -21.5 54 -35.5
c6 -4.66699 9 -10.667 9 -18c0 -6 -2.16699 -11 -6.5 -15s-9.5 -6 -15.5 -6c-4.66699 0 -10 2.33301 -16 7c-13.333 11.333 -28.166 21.166 -44.499 29.499s-35.166 12.5 -56.499 12.5c-20 0 -38.333 -3.83301 -55 -11.5s-31.167 -18.334 -43.5 -32.001s-22 -29.5 -29 -47.5
s-10.5 -37 -10.5 -57v-2c0 -20 3.66699 -39.167 11 -57.5s17.166 -34.166 29.499 -47.499s27 -24 44 -32s35.167 -12 54.5 -12c22.667 0 42.167 3.83301 58.5 11.5s32.166 18.5 47.499 32.5c1.33301 1.33301 3.16602 2.5 5.49902 3.5s5.16602 1.5 8.49902 1.5
c5.33301 0 10 -2 14 -6s6 -8.66699 6 -14c0 -6.66699 -2.33301 -11.667 -7 -15c-18.667 -16 -38.167 -29 -58.5 -39s-45.5 -15 -75.5 -15zM414.001 16.001c47.333 0 91.333 8.83301 132 26.5s75.834 41.667 105.501 72s53 65.666 70 105.999s25.5 83.5 25.5 129.5v2
c0 46 -8.33301 89.167 -25 129.5s-39.834 75.5 -69.501 105.5s-64.667 53.667 -105 71s-84.166 26 -131.499 26s-91.333 -8.83301 -132 -26.5s-75.834 -41.667 -105.501 -72s-53 -65.666 -70 -105.999s-25.5 -83.5 -25.5 -129.5v-2c0 -46 8.33301 -89.167 25 -129.5
s39.834 -75.5 69.501 -105.5s64.667 -53.667 105 -71s84.166 -26 131.499 -26zM414.001 -11.999c-50.667 0 -98 9.5 -142 28.5s-82.167 44.833 -114.5 77.5s-57.833 70.834 -76.5 114.501s-28 90.167 -28 139.5v2c0 49.333 9.33301 95.833 28 139.5s44.334 82 77.001 115
s71.167 59.167 115.5 78.5s91.833 29 142.5 29s98 -9.5 142 -28.5s82.167 -44.833 114.5 -77.5s57.833 -70.834 76.5 -114.501s28 -90.167 28 -139.5v-2c0 -49.333 -9.33301 -95.833 -28 -139.5s-44.334 -82 -77.001 -115s-71.167 -59.167 -115.5 -78.5
s-91.833 -29 -142.5 -29z" />
    <glyph glyph-name="guillemotleft" unicode="&#xab;" horiz-adv-x="515" 
 />
    <glyph glyph-name="registered" unicode="&#xae;" horiz-adv-x="416" 
d="M148 531v107.998h62c15.333 0 28.333 -5.16699 39 -15.5s16 -23.166 16 -38.499s-5.33301 -28.166 -16 -38.499s-23.667 -15.5 -39 -15.5h-62zM267 432.998c2.66699 -5.33301 6.66602 -7.99805 11.999 -7.99805c1.33301 0 2 0.333008 2 1c2 0 3 1.33301 3 4
c-1.33301 2 -3 3 -5 3s-4 1.33301 -6 4c-1.33301 2.66699 -2.33301 6.5 -3 11.5s-1 12.5 -1 22.5c0 12 -3.16699 22 -9.5 30s-13.166 14 -20.499 18c-3.33301 2 -7.33301 3.66699 -12 5c13.333 4 24.166 11.5 32.499 22.5s12.5 23.833 12.5 38.5
c0 17.333 -6 32.166 -18 44.499s-26.667 18.5 -44 18.5h-66h-1c-2.66699 0 -4 -1.33301 -4 -4v-218c0 -3.33301 1.33301 -5 4 -5c3.33301 0 5 1.66699 5 5v96h61c0.666992 -0.666992 1.33398 -1 2.00098 -1s1.5 -0.166992 2.5 -0.5s2.16699 -0.5 3.5 -0.5l13 -5
c5.33301 -2 10 -5.33301 14 -10c4.66699 -3.33301 8.5 -8 11.5 -14s4.5 -12.667 4.5 -20c0 -10.667 0.666992 -18.834 2 -24.501s3 -10.167 5 -13.5zM207.999 369c23.333 0 45 4.33301 65 13s37.333 20.5 52 35.5s26.167 32.667 34.5 53s12.5 41.833 12.5 64.5v1
c0 22.667 -4.16699 44 -12.5 64s-19.833 37.5 -34.5 52.5s-32 26.833 -52 35.5s-41.667 13 -65 13s-45 -4.33301 -65 -13s-37.333 -20.5 -52 -35.5s-26.167 -32.667 -34.5 -53s-12.5 -41.833 -12.5 -64.5v-1c0 -22.667 4.16699 -44 12.5 -64s19.833 -37.5 34.5 -52.5
s32 -26.833 52 -35.5s41.667 -13 65 -13zM207.999 360c-24.667 0 -47.5 4.66699 -68.5 14s-39.333 21.833 -55 37.5s-28 34 -37 55s-13.5 43.5 -13.5 67.5v1c0 24 4.5 46.5 13.5 67.5s21.333 39.5 37 55.5s34.167 28.667 55.5 38s44 14 68 14
c24.667 0 47.5 -4.66699 68.5 -14s39.333 -21.833 55 -37.5s28 -34 37 -55s13.5 -43.5 13.5 -67.5v-1c0 -24 -4.5 -46.5 -13.5 -67.5s-21.333 -39.5 -37 -55.5s-34.167 -28.667 -55.5 -38s-44 -14 -68 -14z" />
    <glyph glyph-name="degree" unicode="&#xb0;" horiz-adv-x="450" 
d="M223 431c18 0 34.833 3.5 50.5 10.5s29.167 16.333 40.5 28s20.166 25.167 26.499 40.5s9.5 31.333 9.5 48v2c0 16.667 -3.16699 32.667 -9.5 48s-15.166 29 -26.499 41s-24.833 21.5 -40.5 28.5s-32.5 10.5 -50.5 10.5s-34.833 -3.5 -50.5 -10.5
s-29.167 -16.5 -40.5 -28.5s-20.166 -25.667 -26.499 -41s-9.5 -31.333 -9.5 -48v-2c0 -16.667 3.16699 -32.667 9.5 -48s15.166 -28.833 26.499 -40.5s24.833 -21 40.5 -28s32.5 -10.5 50.5 -10.5zM223 412c-21.333 0 -41.001 3.83301 -59.001 11.5
s-33.667 18.167 -47 31.5s-23.833 28.833 -31.5 46.5s-11.5 36.5 -11.5 56.5v2c0 22 4 42 12 60s18.833 33.333 32.5 46s29.5 22.5 47.5 29.5s37 10.5 57 10.5s39 -3.66699 57 -11s33.833 -17.5 47.5 -30.5s24.5 -28.5 32.5 -46.5s12 -37.333 12 -58v-2
c0 -19.333 -3.66699 -37.833 -11 -55.5s-17.666 -33.167 -30.999 -46.5s-29 -24 -47 -32s-38 -12 -60 -12z" />
    <glyph glyph-name="acute" unicode="&#xb4;" horiz-adv-x="500" 
d="M208 598c-4.66699 -2.66699 -7.00098 -1.66602 -7.00098 3.00098c0 3.33301 1.33301 7 4 11l62 93c8 12 17.333 18 28 18c9.33301 0 14.333 -1.83301 15 -5.5s1.66699 -6.83398 3 -9.50098s0.833008 -5.5 -1.5 -8.5s-5.16602 -6.16699 -8.49902 -9.5l-71 -77
c-5.33301 -6 -9.33301 -9.5 -12 -10.5z" />
    <glyph glyph-name="cedilla" unicode="&#xb8;" horiz-adv-x="500" 
d="M230 -122c-3.33301 -6 -6.66797 -10.832 -10.001 -14.499s-8.66602 -5.5 -15.999 -5.5c-8 0 -15.667 2.66699 -23 8s-11 10.666 -11 15.999c0 4 1.66699 9 5 15l77 113h43z" />
    <glyph glyph-name="questiondown" unicode="&#xbf;" horiz-adv-x="534" 
d="M227 688c0 8 3.99902 11.999 11.999 11.999c3.33301 0 6.16602 -1.16699 8.49902 -3.5s3.5 -5.16602 3.5 -8.49902v-23c0 -3.33301 -1.16699 -6.16602 -3.5 -8.49902s-5.16602 -3.5 -8.49902 -3.5s-6.16602 1.16699 -8.49902 3.5s-3.5 5.16602 -3.5 8.49902v23z
M226.999 544.999c0 3.33301 1.17188 6.16602 3.50488 8.49902s5.16602 3.5 8.49902 3.5s6.16602 -1.16699 8.49902 -3.5s3.5 -5.16602 3.5 -8.49902v-122c27.333 -1.33301 53 -7.83301 77 -19.5s45 -27 63 -46s32.333 -41 43 -66s16 -51.5 16 -79.5
c0 -29.333 -5.66699 -56.833 -17 -82.5s-26.5 -48.167 -45.5 -67.5s-41.333 -34.5 -67 -45.5s-52.834 -16.5 -81.501 -16.5c-40 0 -76 9.66699 -108 29s-57 45 -75 77c-4.66699 6 -3.33398 11.333 3.99902 16c6 3.33301 11.333 2 16 -4
c16.667 -28.667 39.167 -51.5 67.5 -68.5s60.166 -25.5 95.499 -25.5c25.333 0 49.333 4.83301 72 14.5s42.5 23 59.5 40s30.333 37 40 60s14.5 47.5 14.5 73.5c0 25.333 -4.83301 49.333 -14.5 72s-23 42.5 -40 59.5s-36.833 30.5 -59.5 40.5s-46.667 15 -72 15
c-8 0 -12 4 -12 12v1v2v131z" />
    <glyph glyph-name="Agrave" unicode="&#xc0;" horiz-adv-x="649" 
d="M358 798l-12.001 4.49902c-2.66699 1 -6.66699 4.5 -12 10.5l-71 77c-3.33301 3.33301 -6.16602 6.5 -8.49902 9.5s-2.83301 5.83301 -1.5 8.5s2.33301 5.83398 3 9.50098s5.66699 5.5 15 5.5c10.667 0 20 -6 28 -18l62 -93c2.66699 -4 4 -7.66699 4 -11
c0 -4.66699 -2.33301 -5.66699 -7 -3zM321.999 653.999l165 -438h-330zM563.999 10.999c3.33301 -6 7.66699 -8.99707 13 -8.99707c0.666992 0 1.16699 0.166992 1.5 0.5s1.16602 0.5 2.49902 0.5c3.33301 1.33301 5.66602 3.66602 6.99902 6.99902
s1.33301 6.66602 0 9.99902l-252 672c-3.33301 5.33301 -7.66602 8 -12.999 8c-6.66699 1.33301 -11 -1.33398 -13 -8.00098l-252 -672c-3.33301 -8 -1.33301 -13.667 6 -17c1.33301 0 2.33301 -0.166992 3 -0.5s1.33398 -0.5 2.00098 -0.5c6 0 9.66699 3 11 9l67 179h350z
" />
    <glyph glyph-name="Aacute" unicode="&#xc1;" horiz-adv-x="646" 
d="M295 798c-4.66699 -2.66699 -7.00098 -1.66602 -7.00098 3.00098c0 3.33301 1.33301 7 4 11l62 93c8 12 17.333 18 28 18c9.33301 0 14.333 -1.83301 15 -5.5s1.66699 -6.83398 3 -9.50098s0.833008 -5.5 -1.5 -8.5s-5.16602 -6.16699 -8.49902 -9.5l-71 -77
c-5.33301 -6 -9.33301 -9.5 -12 -10.5zM156.999 216.001h330l-165 438zM496.999 190.001l-350.001 -0.00292969l-67 -179c-1.33301 -6 -5 -9 -11 -9c-0.666992 0 -1.33398 0.166992 -2.00098 0.5s-1.66699 0.5 -3 0.5c-7.33301 3.33301 -9.33301 9 -6 17l252 672
c2 6.66699 6.33301 9.33398 13 8.00098c5.33301 0 9.66602 -2.66699 12.999 -8l252 -672c1.33301 -3.33301 1.33301 -6.66602 0 -9.99902s-3.66602 -5.66602 -6.99902 -6.99902c-1.33301 0 -2.16602 -0.166992 -2.49902 -0.5s-0.833008 -0.5 -1.5 -0.5
c-5.33301 0 -9.66602 3 -12.999 9z" />
    <glyph glyph-name="Acircumflex" unicode="&#xc2;" horiz-adv-x="664" 
d="M260 818l-10.501 -11c-4.33301 -4.66699 -9.16602 -7 -14.499 -7c-4 0 -7.33301 -0.333008 -10 -1s-4 0.333008 -4 3c0 4 1.66699 8 5 12l72 88c4.66699 5.33301 9 9.66602 13 12.999s9 5 15 5h8c6 0 11 -1.66699 15 -5s8.33301 -7.66602 13 -12.999l72 -88
c3.33301 -4 5 -8 5 -12c0 -2.66699 -1 -3.66699 -3 -3s-5.33301 1 -10 1c-5.33301 0 -10.333 2.33301 -15 7l-12 12l-70 75zM322.999 654l165 -438h-330zM564.999 11c3.33301 -6 7.66699 -8.99707 13 -8.99707c0.666992 0 1.16699 0.166992 1.5 0.5s1.16602 0.5 2.49902 0.5
c3.33301 1.33301 5.66602 3.66602 6.99902 6.99902s1.33301 6.66602 0 9.99902l-252 672c-3.33301 5.33301 -7.66602 8 -12.999 8c-6.66699 1.33301 -11 -1.33398 -13 -8.00098l-252 -672c-3.33301 -8 -1.33301 -13.667 6 -17c1.33301 0 2.33301 -0.166992 3 -0.5
s1.33398 -0.5 2.00098 -0.5c6 0 9.66699 3 11 9l67 179h350z" />
    <glyph glyph-name="Atilde" unicode="&#xc3;" horiz-adv-x="664" 
d="M212 802c-1.33301 -3.33301 -3.00195 -6.16504 -5.00195 -8.49805s-5.66699 -3.5 -11 -3.5c-10.667 0 -16 4.33301 -16 13c0 1.33301 0.5 3.66602 1.5 6.99902s1.83301 5.66602 2.5 6.99902c2.66699 8 6.83398 15.5 12.501 22.5s12 13.333 19 19s14.5 10.167 22.5 13.5
s15.333 5 22 5c9.33301 0 19.666 -2 30.999 -6s22.833 -8.33301 34.5 -13l33.5 -13c10.667 -4 20.334 -6 29.001 -6c20.667 0 37.334 14.333 50.001 43c1.33301 3.33301 2.66602 7 3.99902 11s4.33301 6 9 6c5.33301 0 9.66602 -1.5 12.999 -4.5s5 -7.16699 5 -12.5
c0 -4 -0.666992 -8 -2 -12c-6.66699 -20 -16.667 -36.333 -30 -49s-29.666 -19 -48.999 -19c-9.33301 0 -19.5 2 -30.5 6s-22.167 8.5 -33.5 13.5s-22.666 9.5 -33.999 13.5s-21.333 6 -30 6c-20.667 0 -36.667 -13 -48 -39zM322.998 654.001l165 -438h-330zM564.998 11.001
c3.33301 -6 7.66699 -8.99707 13 -8.99707c0.666992 0 1.16699 0.166992 1.5 0.5s1.16602 0.5 2.49902 0.5c3.33301 1.33301 5.66602 3.66602 6.99902 6.99902s1.33301 6.66602 0 9.99902l-252 672c-3.33301 5.33301 -7.66602 8 -12.999 8
c-6.66699 1.33301 -11 -1.33398 -13 -8.00098l-252 -672c-3.33301 -8 -1.33301 -13.667 6 -17c1.33301 0 2.33301 -0.166992 3 -0.5s1.33398 -0.5 2.00098 -0.5c6 0 9.66699 3 11 9l67 179h350z" />
    <glyph glyph-name="Adieresis" unicode="&#xc4;" horiz-adv-x="663" 
d="M380 837c0 9.33301 3.33301 17.333 10 24s14.667 10 24 10s17.333 -3.33301 24 -10s10 -14.667 10 -24s-3.33301 -17.333 -10 -24s-14.667 -10 -24 -10s-17.333 3.33301 -24 10s-10 14.667 -10 24zM198 837c0 9.33301 3.33301 17.333 10 24s14.667 10 24 10
s17.166 -3.33301 23.499 -10s9.5 -14.667 9.5 -24s-3.16699 -17.333 -9.5 -24s-14.166 -10 -23.499 -10s-17.333 3.33301 -24 10s-10 14.667 -10 24zM323 654l165 -438h-330zM565 11c3.33301 -6 7.66699 -8.99707 13 -8.99707c0.666992 0 1.16699 0.166992 1.5 0.5
s1.16602 0.5 2.49902 0.5c3.33301 1.33301 5.66602 3.66602 6.99902 6.99902s1.33301 6.66602 0 9.99902l-252 672c-3.33301 5.33301 -7.66602 8 -12.999 8c-6.66699 1.33301 -11 -1.33398 -13 -8.00098l-252 -672c-3.33301 -8 -1.33301 -13.667 6 -17
c1.33301 0 2.33301 -0.166992 3 -0.5s1.33398 -0.5 2.00098 -0.5c6 0 9.66699 3 11 9l67 179h350z" />
    <glyph glyph-name="Aring" unicode="&#xc5;" horiz-adv-x="646" 
d="M145 215h330l-165 438zM252 739c0 -12.667 4.00195 -24.167 12.002 -34.5s18.333 -17.166 31 -20.499c2.66699 -0.666992 5 -1.16699 7 -1.5s4.33301 -0.5 7 -0.5c6 0 11.667 1 17 3c12 3.33301 21.667 10.166 29 20.499s11 21.5 11 33.5v1
c0 14.667 -5.33301 27.834 -16 39.501s-24.334 17.5 -41.001 17.5s-30.334 -5.83301 -41.001 -17.5s-16 -24.834 -16 -39.501v-1zM576.002 19c1.33301 -3.33301 1.33008 -6.66895 -0.00292969 -10.002s-3.66602 -5.66602 -6.99902 -6.99902
c-1.33301 0 -2.16602 -0.166992 -2.49902 -0.5s-0.833008 -0.5 -1.5 -0.5c-5.33301 0 -9.66602 3 -12.999 9l-67 179h-350l-67 -179c-1.33301 -6 -5 -9 -11 -9c-0.666992 0 -1.33398 0.166992 -2.00098 0.5s-1.66699 0.5 -3 0.5c-7.33301 3.33301 -9.33301 9 -6 17l241 644
c-17.333 4.66699 -31.5 14 -42.5 28s-16.5 30.333 -16.5 49v1c0 24 8.16699 43 24.5 57s35.166 21 56.499 21c10.667 0 20.834 -2 30.501 -6s18.334 -9.5 26.001 -16.5s13.667 -15.167 18 -24.5s6.5 -19.666 6.5 -30.999v-1c0 -17.333 -5 -33 -15 -47
s-23.667 -23.667 -41 -29z" />
    <glyph glyph-name="AE" unicode="&#xc6;" horiz-adv-x="1045" 
d="M501 233v440h-32l-264 -440h296zM42 19c0 0.666992 0.831055 2.33301 2.49805 5s6.16699 10.5 13.5 23.5l35 59.5l68.5 113.5l112.5 186.5l167 277c3.33301 5.33301 6.83301 9.33301 10.5 12s8.83398 4 15.501 4h497c6.66699 0 12.334 -0.666992 17.001 -2
s7 -5.33301 7 -12s-2.33301 -10.667 -7 -12s-10.334 -2 -17.001 -2h-433v-303h388c6.66699 0 12.334 -1 17.001 -3s7 -6.33301 7 -13s-2.33301 -11 -7 -13s-10.334 -3 -17.001 -3h-388v-308h438c6.66699 0 12.334 -0.666992 17.001 -2s7 -5.33301 7 -12
s-2.33301 -10.834 -7 -12.501s-10.334 -2.5 -17.001 -2.5h-442c-7.33301 0 -13.5 2.5 -18.5 7.5s-7.5 11.167 -7.5 18.5v180h-313l-120 -198c-1.33301 -1.33301 -3.16602 -3.5 -5.49902 -6.5s-6.83301 -3.83301 -13.5 -2.5c-3.33301 0.666992 -5.5 2.16699 -6.5 4.5
s-1.5 4.83301 -1.5 7.5s0.166992 4.83398 0.5 6.50098s0.5 2.16699 0.5 1.5z" />
    <glyph glyph-name="Ccedilla" unicode="&#xc7;" horiz-adv-x="771" 
d="M390 -122c-3.33301 -6 -6.66797 -10.832 -10.001 -14.499s-8.66602 -5.5 -15.999 -5.5c-8 0 -15.667 2.66699 -23 8s-11 10.666 -11 15.999c0 4 1.66699 9 5 15l77 113h43zM72.998 356.001c0 48.667 9.50098 94.499 28.501 137.499s45 80.5 78 112.5
s71.5 57.333 115.5 76s91 28 141 28c43.333 0 84.333 -7 123 -21s73.334 -32.667 104.001 -56c7.33301 -6 8.66602 -12 3.99902 -18c-3.33301 -3.33301 -6.66602 -5.16602 -9.99902 -5.49902s-6.33301 0.833984 -9 3.50098c-29.333 22.667 -61.833 40.167 -97.5 52.5
s-73.834 18.5 -114.501 18.5c-46 0 -89.5 -8.66699 -130.5 -26s-76.833 -40.833 -107.5 -70.5s-54.834 -64.334 -72.501 -104.001s-26.5 -82.167 -26.5 -127.5c0 -46 8.83301 -89 26.5 -129s41.834 -74.833 72.501 -104.5s66.5 -53.167 107.5 -70.5s84.5 -26 130.5 -26
c40 0 77.833 6.16699 113.5 18.5s68.167 29.833 97.5 52.5c7.33301 4.66699 13.666 4 18.999 -2c2.66699 -2.66699 3.66699 -5.66699 3 -9s-2.66699 -6.33301 -6 -9c-32 -23.333 -67 -42 -105 -56s-78.667 -21 -122 -21c-50 0 -97 9.5 -141 28.5s-82.5 44.5 -115.5 76.5
s-59 69.5 -78 112.5s-28.5 89.167 -28.5 138.5z" />
    <glyph glyph-name="Egrave" unicode="&#xc8;" horiz-adv-x="593" 
d="M327 798l-12.001 4.49902c-2.66699 1 -6.66699 4.5 -12 10.5l-71 77c-3.33301 3.33301 -6.16602 6.5 -8.49902 9.5s-2.83301 5.83301 -1.5 8.5s2.33301 5.83398 3 9.50098s5.66699 5.5 15 5.5c10.667 0 20 -6 28 -18l62 -93c2.66699 -4 4 -7.66699 4 -11
c0 -4.66699 -2.33301 -5.66699 -7 -3zM118.999 -0.000976562h369.999c8 0 12 4.33301 12 13c0 8 -4 12 -12 12h-360v313h317c8 0 12 4.33301 12 13c0 3.33301 -1.16699 6.16602 -3.5 8.49902s-5.16602 3.5 -8.49902 3.5h-317v312h360c8 0 12 4 12 12c0 8.66699 -4 13 -12 13
h-371h-1h-1c-8 -1.33301 -12 -5.66602 -12 -12.999v-674c0 -8.66699 4 -13 12 -13h2h1z" />
    <glyph glyph-name="Eacute" unicode="&#xc9;" horiz-adv-x="593" 
d="M258 798c-4.66699 -2.66699 -7.00098 -1.66602 -7.00098 3.00098c0 3.33301 1.33301 7 4 11l62 93c8 12 17.333 18 28 18c9.33301 0 14.333 -1.83301 15 -5.5s1.66699 -6.83398 3 -9.50098s0.833008 -5.5 -1.5 -8.5s-5.16602 -6.16699 -8.49902 -9.5l-71 -77
c-5.33301 -6 -9.33301 -9.5 -12 -10.5zM117.999 0.000976562h-1.99902c-8 0 -12 4.33301 -12 13v674c0 7.33301 4 11.666 12 12.999h1h1h371c8 0 12 -4.33301 12 -13c0 -8 -4 -12 -12 -12h-360v-312h317c3.33301 0 6.16602 -1.16699 8.49902 -3.5s3.5 -5.16602 3.5 -8.49902
c0 -8.66699 -4 -13 -12 -13h-317v-313h360c8 0 12 -4 12 -12c0 -8.66699 -4 -13 -12 -13h-370h-1z" />
    <glyph glyph-name="Ecircumflex" unicode="&#xca;" horiz-adv-x="593" 
d="M233 818l-10.501 -11c-4.33301 -4.66699 -9.16602 -7 -14.499 -7c-4 0 -7.33301 -0.333008 -10 -1s-4 0.333008 -4 3c0 4 1.66699 8 5 12l72 88c4.66699 5.33301 9 9.66602 13 12.999s9 5 15 5h8c6 0 11 -1.66699 15 -5s8.33301 -7.66602 13 -12.999l72 -88
c3.33301 -4 5 -8 5 -12c0 -2.66699 -1 -3.66699 -3 -3s-5.33301 1 -10 1c-5.33301 0 -10.333 2.33301 -15 7l-12 12l-70 75zM118.999 0h369.999c8 -0 12 4.33301 12 13c0 8 -4 12 -12 12h-360v313h317c8 0 12 4.33301 12 13c0 3.33301 -1.16699 6.16602 -3.5 8.49902
s-5.16602 3.5 -8.49902 3.5h-317v312h360c8 0 12 4 12 12c0 8.66699 -4 13 -12 13h-371h-1h-1c-8 -1.33301 -12 -5.66602 -12 -12.999v-674c0 -8.66699 4 -13 12 -13h2h1z" />
    <glyph glyph-name="Edieresis" unicode="&#xcb;" horiz-adv-x="670" 
d="M358 837c0 9.33301 3.33301 17.333 10 24s14.667 10 24 10s17.333 -3.33301 24 -10s10 -14.667 10 -24s-3.33301 -17.333 -10 -24s-14.667 -10 -24 -10s-17.333 3.33301 -24 10s-10 14.667 -10 24zM176 837c0 9.33301 3.33301 17.333 10 24s14.667 10 24 10
s17.166 -3.33301 23.499 -10s9.5 -14.667 9.5 -24s-3.16699 -17.333 -9.5 -24s-14.166 -10 -23.499 -10s-17.333 3.33301 -24 10s-10 14.667 -10 24zM119 0h369.999c8 -0 12 4.33301 12 13c0 8 -4 12 -12 12h-360v313h317c8 0 12 4.33301 12 13
c0 3.33301 -1.16699 6.16602 -3.5 8.49902s-5.16602 3.5 -8.49902 3.5h-317v312h360c8 0 12 4 12 12c0 8.66699 -4 13 -12 13h-371h-1h-1c-8 -1.33301 -12 -5.66602 -12 -12.999v-674c0 -8.66699 4 -13 12 -13h2h1z" />
    <glyph glyph-name="Igrave" unicode="&#xcc;" horiz-adv-x="348" 
d="M256 798l-12.001 4.49902c-2.66699 1 -6.66699 4.5 -12 10.5l-71 77c-3.33301 3.33301 -6.16602 6.5 -8.49902 9.5s-2.83301 5.83301 -1.5 8.5s2.33301 5.83398 3 9.50098s5.66699 5.5 15 5.5c10.667 0 20 -6 28 -18l62 -93c2.66699 -4 4 -7.66699 4 -11
c0 -4.66699 -2.33301 -5.66699 -7 -3zM192.999 12.999c0 -8.66699 4.33301 -13 13 -13c3.33301 0 6.16602 1.16699 8.49902 3.5s3.5 5.5 3.5 9.5v674c0 4 -1.16699 7.16699 -3.5 9.5s-5.16602 3.5 -8.49902 3.5c-8.66699 0 -13 -4.33301 -13 -13v-674z" />
    <glyph glyph-name="Iacute" unicode="&#xcd;" horiz-adv-x="274" 
d="M90 798c-4.66699 -2.66699 -7.00098 -1.66602 -7.00098 3.00098c0 3.33301 1.33301 7 4 11l62 93c8 12 17.333 18 28 18c9.33301 0 14.333 -1.83301 15 -5.5s1.66699 -6.83398 3 -9.50098s0.833008 -5.5 -1.5 -8.5s-5.16602 -6.16699 -8.49902 -9.5l-71 -77
c-5.33301 -6 -9.33301 -9.5 -12 -10.5zM127.999 687.001c0 8.66699 4.33301 13 13 13c3.33301 0 6.16602 -1.16699 8.49902 -3.5s3.5 -5.5 3.5 -9.5v-674c0 -4 -1.16699 -7.16699 -3.5 -9.5s-5.16602 -3.5 -8.49902 -3.5c-8.66699 0 -13 4.33301 -13 13v674z" />
    <glyph glyph-name="Icircumflex" unicode="&#xce;" horiz-adv-x="274" 
d="M40 818l-10.501 -11c-4.33301 -4.66699 -9.16602 -7 -14.499 -7c-4 0 -7.33301 -0.333008 -10 -1s-4 0.333008 -4 3c0 4 1.66699 8 5 12l72 88c4.66699 5.33301 9 9.66602 13 12.999s9 5 15 5h8c6 0 11 -1.66699 15 -5s8.33301 -7.66602 13 -12.999l72 -88
c3.33301 -4 5 -8 5 -12c0 -2.66699 -1 -3.66699 -3 -3s-5.33301 1 -10 1c-5.33301 0 -10.333 2.33301 -15 7l-12 12l-70 75zM97.999 13c0 -8.66699 4.33301 -13 13 -13c3.33301 0 6.16602 1.16699 8.49902 3.5s3.5 5.5 3.5 9.5v674c0 4 -1.16699 7.16699 -3.5 9.5
s-5.16602 3.5 -8.49902 3.5c-8.66699 0 -13 -4.33301 -13 -13v-674z" />
    <glyph glyph-name="Idieresis" unicode="&#xcf;" horiz-adv-x="274" 
d="M174 837c0 9.33301 3.33301 17.333 10 24s14.667 10 24 10s17.333 -3.33301 24 -10s10 -14.667 10 -24s-3.33301 -17.333 -10 -24s-14.667 -10 -24 -10s-17.333 3.33301 -24 10s-10 14.667 -10 24zM-8 837c0 9.33301 3.33301 17.333 10 24s14.667 10 24 10
s17.166 -3.33301 23.499 -10s9.5 -14.667 9.5 -24s-3.16699 -17.333 -9.5 -24s-14.166 -10 -23.499 -10s-17.333 3.33301 -24 10s-10 14.667 -10 24zM105 13c0 -8.66699 4.33301 -13 13 -13c3.33301 0 6.16602 1.16699 8.49902 3.5s3.5 5.5 3.5 9.5v674
c0 4 -1.16699 7.16699 -3.5 9.5s-5.16602 3.5 -8.49902 3.5c-8.66699 0 -13 -4.33301 -13 -13v-674z" />
    <glyph glyph-name="Eth" unicode="&#xd0;" horiz-adv-x="812" 
d="M312 25c44.667 0.666992 86.834 9.50293 126.501 26.5029s74.167 40.167 103.5 69.5s52.5 63.666 69.5 102.999s25.5 81.666 25.5 126.999c0 44.667 -8.5 86.667 -25.5 126s-40.167 73.666 -69.5 102.999s-63.833 52.5 -103.5 69.5s-81.834 25.5 -126.501 25.5h-122v-312
h103c6 0 9 -3.66699 9 -11c0 -6 -3 -9 -9 -9h-103v-318h122zM165 343.003l-100 0.00195312c-6.66699 0 -10 3 -10 9c0 7.33301 3.33301 11 10 11h100v324c0 8.66699 4.33301 13 13 13h134c48.667 0 94.167 -9.16699 136.5 -27.5s79.333 -43.333 111 -75
s56.667 -68.667 75 -111s27.5 -87.5 27.5 -135.5c0 -48.667 -9.16699 -94.334 -27.5 -137.001s-43.333 -79.834 -75 -111.501s-68.667 -56.667 -111 -75s-87.833 -27.5 -136.5 -27.5h-134c-8.66699 0 -13 4.33301 -13 13v330z" />
    <glyph glyph-name="Ntilde" unicode="&#xd1;" horiz-adv-x="790" 
d="M248 802c-1.33301 -3.33301 -3.00195 -6.16504 -5.00195 -8.49805s-5.66699 -3.5 -11 -3.5c-10.667 0 -16 4.33301 -16 13c0 1.33301 0.5 3.66602 1.5 6.99902s1.83301 5.66602 2.5 6.99902c2.66699 8 6.83398 15.5 12.501 22.5s12 13.333 19 19s14.5 10.167 22.5 13.5
s15.333 5 22 5c9.33301 0 19.666 -2 30.999 -6s22.833 -8.33301 34.5 -13l33.5 -13c10.667 -4 20.334 -6 29.001 -6c20.667 0 37.334 14.333 50.001 43c1.33301 3.33301 2.66602 7 3.99902 11s4.33301 6 9 6c5.33301 0 9.66602 -1.5 12.999 -4.5s5 -7.16699 5 -12.5
c0 -4 -0.666992 -8 -2 -12c-6.66699 -20 -16.667 -36.333 -30 -49s-29.666 -19 -48.999 -19c-9.33301 0 -19.5 2 -30.5 6s-22.167 8.5 -33.5 13.5s-22.666 9.5 -33.999 13.5s-21.333 6 -30 6c-20.667 0 -36.667 -13 -48 -39zM588.998 9.00098c0 -0.666992 0.333008 -1 1 -1
c2 -5.33301 6 -8 12 -8c8 0 12 4.33301 12 13v669c0 8.66699 -4 13 -12 13c-3.33301 0 -6.33301 -1.33301 -9 -4s-4 -5.66699 -4 -9v-630l-462 642c-4.66699 5.33301 -10.667 6 -18 2c-3.33301 -3.33301 -5 -7 -5 -11v-3v-669c0 -3.33301 1.33301 -6.33301 4 -9
s5.66699 -4 9 -4c8 0 12 4.33301 12 13v635z" />
    <glyph glyph-name="Ograve" unicode="&#xd2;" horiz-adv-x="850" 
d="M465 798l-12.001 4.49902c-2.66699 1 -6.66699 4.5 -12 10.5l-71 77c-3.33301 3.33301 -6.16602 6.5 -8.49902 9.5s-2.83301 5.83301 -1.5 8.5s2.33301 5.83398 3 9.50098s5.66699 5.5 15 5.5c10.667 0 20 -6 28 -18l62 -93c2.66699 -4 4 -7.66699 4 -11
c0 -4.66699 -2.33301 -5.66699 -7 -3zM99.999 348.999c0 46.667 8.33301 90.334 25 131.001s39.167 76.167 67.5 106.5s61.5 54.166 99.5 71.499s78.667 26 122 26c42.667 0 83 -8.66699 121 -26s71.167 -41.166 99.5 -71.499s51 -65.833 68 -106.5
s25.5 -84.334 25.5 -131.001c0 -46 -8.5 -89.333 -25.5 -130s-39.667 -76 -68 -106s-61.5 -53.833 -99.5 -71.5s-78.333 -26.834 -121 -27.501c-43.333 0.666992 -84 9.83398 -122 27.501s-71.167 41.5 -99.5 71.5s-50.833 65.333 -67.5 106s-25 84 -25 130zM72.999 348.999
c0 -50 9 -97 27 -141s42.333 -82.333 73 -115s66.667 -58.5 108 -77.5s85.666 -28.5 132.999 -28.5s91.666 9.5 132.999 28.5s77.333 44.833 108 77.5s55 71 73 115s27.333 91 28 141c-0.666992 50 -10 97 -28 141s-42.333 82.167 -73 114.5s-66.667 58 -108 77
s-85.666 28.5 -132.999 28.5s-91.666 -9.5 -132.999 -28.5s-77.333 -44.667 -108 -77s-55 -70.5 -73 -114.5s-27 -91 -27 -141z" />
    <glyph glyph-name="Oacute" unicode="&#xd3;" horiz-adv-x="850" 
d="M365 798c-4.66699 -2.66699 -7.00098 -1.66602 -7.00098 3.00098c0 3.33301 1.33301 7 4 11l62 93c8 12 17.333 18 28 18c9.33301 0 14.333 -1.83301 15 -5.5s1.66699 -6.83398 3 -9.50098s0.833008 -5.5 -1.5 -8.5s-5.16602 -6.16699 -8.49902 -9.5l-71 -77
c-5.33301 -6 -9.33301 -9.5 -12 -10.5zM99.999 349.001c0 -46 8.33301 -89.333 25 -130s39.167 -76 67.5 -106s61.5 -53.833 99.5 -71.5s78.667 -26.834 122 -27.501c42.667 0.666992 83 9.83398 121 27.501s71.167 41.5 99.5 71.5s51 65.333 68 106s25.5 84 25.5 130
c0 46.667 -8.5 90.334 -25.5 131.001s-39.667 76.167 -68 106.5s-61.5 54.166 -99.5 71.499s-78.333 26 -121 26c-43.333 0 -84 -8.66699 -122 -26s-71.167 -41.166 -99.5 -71.499s-50.833 -65.833 -67.5 -106.5s-25 -84.334 -25 -131.001zM72.999 349.001c0 50 9 97 27 141
s42.333 82.167 73 114.5s66.667 58 108 77s85.666 28.5 132.999 28.5s91.666 -9.5 132.999 -28.5s77.333 -44.667 108 -77s55 -70.5 73 -114.5s27.333 -91 28 -141c-0.666992 -50 -10 -97 -28 -141s-42.333 -82.333 -73 -115s-66.667 -58.5 -108 -77.5
s-85.666 -28.5 -132.999 -28.5s-91.666 9.5 -132.999 28.5s-77.333 44.833 -108 77.5s-55 71 -73 115s-27 91 -27 141z" />
    <glyph glyph-name="Ocircumflex" unicode="&#xd4;" horiz-adv-x="850" 
d="M345 818l-10.501 -11c-4.33301 -4.66699 -9.16602 -7 -14.499 -7c-4 0 -7.33301 -0.333008 -10 -1s-4 0.333008 -4 3c0 4 1.66699 8 5 12l72 88c4.66699 5.33301 9 9.66602 13 12.999s9 5 15 5h8c6 0 11 -1.66699 15 -5s8.33301 -7.66602 13 -12.999l72 -88
c3.33301 -4 5 -8 5 -12c0 -2.66699 -1 -3.66699 -3 -3s-5.33301 1 -10 1c-5.33301 0 -10.333 2.33301 -15 7l-12 12l-70 75zM99.999 349c0 46.667 8.33301 90.334 25 131.001s39.167 76.167 67.5 106.5s61.5 54.166 99.5 71.499s78.667 26 122 26
c42.667 0 83 -8.66699 121 -26s71.167 -41.166 99.5 -71.499s51 -65.833 68 -106.5s25.5 -84.334 25.5 -131.001c0 -46 -8.5 -89.333 -25.5 -130s-39.667 -76 -68 -106s-61.5 -53.833 -99.5 -71.5s-78.333 -26.834 -121 -27.501c-43.333 0.666992 -84 9.83398 -122 27.501
s-71.167 41.5 -99.5 71.5s-50.833 65.333 -67.5 106s-25 84 -25 130zM72.999 349c0 -50 9 -97 27 -141s42.333 -82.333 73 -115s66.667 -58.5 108 -77.5s85.666 -28.5 132.999 -28.5s91.666 9.5 132.999 28.5s77.333 44.833 108 77.5s55 71 73 115s27.333 91 28 141
c-0.666992 50 -10 97 -28 141s-42.333 82.167 -73 114.5s-66.667 58 -108 77s-85.666 28.5 -132.999 28.5s-91.666 -9.5 -132.999 -28.5s-77.333 -44.667 -108 -77s-55 -70.5 -73 -114.5s-27 -91 -27 -141z" />
    <glyph glyph-name="Otilde" unicode="&#xd5;" horiz-adv-x="850" 
d="M303 802c-1.33301 -3.33301 -3.00195 -6.16504 -5.00195 -8.49805s-5.66699 -3.5 -11 -3.5c-10.667 0 -16 4.33301 -16 13c0 1.33301 0.5 3.66602 1.5 6.99902s1.83301 5.66602 2.5 6.99902c2.66699 8 6.83398 15.5 12.501 22.5s12 13.333 19 19s14.5 10.167 22.5 13.5
s15.333 5 22 5c9.33301 0 19.666 -2 30.999 -6s22.833 -8.33301 34.5 -13l33.5 -13c10.667 -4 20.334 -6 29.001 -6c20.667 0 37.334 14.333 50.001 43c1.33301 3.33301 2.66602 7 3.99902 11s4.33301 6 9 6c5.33301 0 9.66602 -1.5 12.999 -4.5s5 -7.16699 5 -12.5
c0 -4 -0.666992 -8 -2 -12c-6.66699 -20 -16.667 -36.333 -30 -49s-29.666 -19 -48.999 -19c-9.33301 0 -19.5 2 -30.5 6s-22.167 8.5 -33.5 13.5s-22.666 9.5 -33.999 13.5s-21.333 6 -30 6c-20.667 0 -36.667 -13 -48 -39zM99.998 349.001
c0 46.667 8.33301 90.334 25 131.001s39.167 76.167 67.5 106.5s61.5 54.166 99.5 71.499s78.667 26 122 26c42.667 0 83 -8.66699 121 -26s71.167 -41.166 99.5 -71.499s51 -65.833 68 -106.5s25.5 -84.334 25.5 -131.001c0 -46 -8.5 -89.333 -25.5 -130
s-39.667 -76 -68 -106s-61.5 -53.833 -99.5 -71.5s-78.333 -26.834 -121 -27.501c-43.333 0.666992 -84 9.83398 -122 27.501s-71.167 41.5 -99.5 71.5s-50.833 65.333 -67.5 106s-25 84 -25 130zM72.998 349.001c0 -50 9 -97 27 -141s42.333 -82.333 73 -115
s66.667 -58.5 108 -77.5s85.666 -28.5 132.999 -28.5s91.666 9.5 132.999 28.5s77.333 44.833 108 77.5s55 71 73 115s27.333 91 28 141c-0.666992 50 -10 97 -28 141s-42.333 82.167 -73 114.5s-66.667 58 -108 77s-85.666 28.5 -132.999 28.5s-91.666 -9.5 -132.999 -28.5
s-77.333 -44.667 -108 -77s-55 -70.5 -73 -114.5s-27 -91 -27 -141z" />
    <glyph glyph-name="Odieresis" unicode="&#xd6;" horiz-adv-x="850" 
d="M471 837c0 9.33301 3.33301 17.333 10 24s14.667 10 24 10s17.333 -3.33301 24 -10s10 -14.667 10 -24s-3.33301 -17.333 -10 -24s-14.667 -10 -24 -10s-17.333 3.33301 -24 10s-10 14.667 -10 24zM289 837c0 9.33301 3.33301 17.333 10 24s14.667 10 24 10
s17.166 -3.33301 23.499 -10s9.5 -14.667 9.5 -24s-3.16699 -17.333 -9.5 -24s-14.166 -10 -23.499 -10s-17.333 3.33301 -24 10s-10 14.667 -10 24zM100 349c0 46.667 8.33301 90.334 25 131.001s39.167 76.167 67.5 106.5s61.5 54.166 99.5 71.499s78.667 26 122 26
c42.667 0 83 -8.66699 121 -26s71.167 -41.166 99.5 -71.499s51 -65.833 68 -106.5s25.5 -84.334 25.5 -131.001c0 -46 -8.5 -89.333 -25.5 -130s-39.667 -76 -68 -106s-61.5 -53.833 -99.5 -71.5s-78.333 -26.834 -121 -27.501c-43.333 0.666992 -84 9.83398 -122 27.501
s-71.167 41.5 -99.5 71.5s-50.833 65.333 -67.5 106s-25 84 -25 130zM73 349c0 -50 9 -97 27 -141s42.333 -82.333 73 -115s66.667 -58.5 108 -77.5s85.666 -28.5 132.999 -28.5s91.666 9.5 132.999 28.5s77.333 44.833 108 77.5s55 71 73 115s27.333 91 28 141
c-0.666992 50 -10 97 -28 141s-42.333 82.167 -73 114.5s-66.667 58 -108 77s-85.666 28.5 -132.999 28.5s-91.666 -9.5 -132.999 -28.5s-77.333 -44.667 -108 -77s-55 -70.5 -73 -114.5s-27 -91 -27 -141z" />
    <glyph glyph-name="multiply" unicode="&#xd7;" horiz-adv-x="620" 
d="M343 353l168 -166c6 -6 9 -12.667 9 -20s-2.33301 -13.333 -7 -18s-10.667 -7 -18 -7s-14 3 -20 9l-166 168l-167 -169c-5.33301 -5.33301 -11.333 -8 -18 -8s-12.334 2.33301 -17.001 7s-7 10.334 -7 17.001s2.66699 12.667 8 18l169 167l-168 166c-6 6 -9 12.667 -9 20
s2.33301 13.333 7 18s10.667 7 18 7s14 -3 20 -9l166 -168l167 169c5.33301 5.33301 11.333 8 18 8s12.334 -2.33301 17.001 -7s7 -10.334 7 -17.001s-2.66699 -12.667 -8 -18z" />
    <glyph glyph-name="Oslash" unicode="&#xd8;" horiz-adv-x="850" 
d="M100 349c0 -46 8.33301 -89.333 25 -130s39.167 -76 67.5 -106s61.5 -53.833 99.5 -71.5s78.667 -26.834 122 -27.501c42.667 0.666992 83 9.83398 121 27.501s71.167 41.5 99.5 71.5s51 65.333 68 106s25.5 84 25.5 130c0 46.667 -8.5 90.334 -25.5 131.001
s-39.667 76.167 -68 106.5s-61.5 54.166 -99.5 71.499s-78.333 26 -121 26c-43.333 0 -84 -8.66699 -122 -26s-71.167 -41.166 -99.5 -71.499s-50.833 -65.833 -67.5 -106.5s-25 -84.334 -25 -131.001zM73 349c0 50 9 97 27 141s42.333 82.167 73 114.5s66.667 58 108 77
s85.666 28.5 132.999 28.5s91.666 -9.5 132.999 -28.5s77.333 -44.667 108 -77s55 -70.5 73 -114.5s27.333 -91 28 -141c-0.666992 -50 -10 -97 -28 -141s-42.333 -82.333 -73 -115s-66.667 -58.5 -108 -77.5s-85.666 -28.5 -132.999 -28.5s-91.666 9.5 -132.999 28.5
s-77.333 44.833 -108 77.5s-55 71 -73 115s-27 91 -27 141zM101 14c-6 4.66699 -6.00195 10.6689 -0.00195312 18.002l604 626c2 2.66699 4.83301 4.16699 8.5 4.5s6.83398 -0.833984 9.50098 -3.50098c2.66699 -2 4.16699 -4.83301 4.5 -8.5s-0.5 -6.83398 -2.5 -9.50098
l-607 -627c-3.33301 -4 -7.66602 -5 -12.999 -3c-2.66699 0 -4 1 -4 3z" />
    <glyph glyph-name="Ugrave" unicode="&#xd9;" horiz-adv-x="760" 
d="M369 798l-12.001 4.49902c-2.66699 1 -6.66699 4.5 -12 10.5l-71 77c-3.33301 3.33301 -6.16602 6.5 -8.49902 9.5s-2.83301 5.83301 -1.5 8.5s2.33301 5.83398 3 9.50098s5.66699 5.5 15 5.5c10.667 0 20 -6 28 -18l62 -93c2.66699 -4 4 -7.66699 4 -11
c0 -4.66699 -2.33301 -5.66699 -7 -3zM92.999 280.999c0 -39.333 7.33301 -76 22 -110s34.667 -63.667 60 -89s55 -45.333 89 -60s70.333 -22 109 -22s75 7.33301 109 22s63.667 34.667 89 60s45.5 55 60.5 89s22.5 70.667 22.5 110v406c0 3.33301 -1.33301 6.33301 -4 9
s-5.66699 4 -9 4c-8.66699 0 -13 -4.33301 -13 -13v-406c0 -35.333 -6.83301 -68.5 -20.5 -99.5s-32 -58 -55 -81s-50 -41.167 -81 -54.5s-63.833 -20.333 -98.5 -21c-35.333 0.666992 -68.5 7.66699 -99.5 21s-58 31.5 -81 54.5s-41.167 50 -54.5 81s-20 64.167 -20 99.5
v406c0 8.66699 -4 13 -12 13c-8.66699 0 -13 -4.33301 -13 -13v-406z" />
    <glyph glyph-name="Uacute" unicode="&#xda;" horiz-adv-x="760" 
d="M306 798c-4.66699 -2.66699 -7.00098 -1.66602 -7.00098 3.00098c0 3.33301 1.33301 7 4 11l62 93c8 12 17.333 18 28 18c9.33301 0 14.333 -1.83301 15 -5.5s1.66699 -6.83398 3 -9.50098s0.833008 -5.5 -1.5 -8.5s-5.16602 -6.16699 -8.49902 -9.5l-71 -77
c-5.33301 -6 -9.33301 -9.5 -12 -10.5zM92.999 687.001c0 8.66699 4.33301 13 13 13c8 0 12 -4.33301 12 -13v-406c0 -35.333 6.66699 -68.5 20 -99.5s31.5 -58 54.5 -81s50 -41.167 81 -54.5s64.167 -20.333 99.5 -21c34.667 0.666992 67.5 7.66699 98.5 21
s58 31.5 81 54.5s41.333 50 55 81s20.5 64.167 20.5 99.5v406c0 8.66699 4.33301 13 13 13c3.33301 0 6.33301 -1.33301 9 -4s4 -5.66699 4 -9v-406c0 -39.333 -7.5 -76 -22.5 -110s-35.167 -63.667 -60.5 -89s-55 -45.333 -89 -60s-70.333 -22 -109 -22
s-75 7.33301 -109 22s-63.667 34.667 -89 60s-45.333 55 -60 89s-22 70.667 -22 110v406z" />
    <glyph glyph-name="Ucircumflex" unicode="&#xdb;" horiz-adv-x="760" 
d="M269 818l-10.501 -11c-4.33301 -4.66699 -9.16602 -7 -14.499 -7c-4 0 -7.33301 -0.333008 -10 -1s-4 0.333008 -4 3c0 4 1.66699 8 5 12l72 88c4.66699 5.33301 9 9.66602 13 12.999s9 5 15 5h8c6 0 11 -1.66699 15 -5s8.33301 -7.66602 13 -12.999l72 -88
c3.33301 -4 5 -8 5 -12c0 -2.66699 -1 -3.66699 -3 -3s-5.33301 1 -10 1c-5.33301 0 -10.333 2.33301 -15 7l-12 12l-70 75zM92.999 281c0 -39.333 7.33301 -76 22 -110s34.667 -63.667 60 -89s55 -45.333 89 -60s70.333 -22 109 -22s75 7.33301 109 22s63.667 34.667 89 60
s45.5 55 60.5 89s22.5 70.667 22.5 110v406c0 3.33301 -1.33301 6.33301 -4 9s-5.66699 4 -9 4c-8.66699 0 -13 -4.33301 -13 -13v-406c0 -35.333 -6.83301 -68.5 -20.5 -99.5s-32 -58 -55 -81s-50 -41.167 -81 -54.5s-63.833 -20.333 -98.5 -21
c-35.333 0.666992 -68.5 7.66699 -99.5 21s-58 31.5 -81 54.5s-41.167 50 -54.5 81s-20 64.167 -20 99.5v406c0 8.66699 -4 13 -12 13c-8.66699 0 -13 -4.33301 -13 -13v-406z" />
    <glyph glyph-name="Udieresis" unicode="&#xdc;" horiz-adv-x="760" 
d="M430 837c0 9.33301 3.33301 17.333 10 24s14.667 10 24 10s17.333 -3.33301 24 -10s10 -14.667 10 -24s-3.33301 -17.333 -10 -24s-14.667 -10 -24 -10s-17.333 3.33301 -24 10s-10 14.667 -10 24zM248 837c0 9.33301 3.33301 17.333 10 24s14.667 10 24 10
s17.166 -3.33301 23.499 -10s9.5 -14.667 9.5 -24s-3.16699 -17.333 -9.5 -24s-14.166 -10 -23.499 -10s-17.333 3.33301 -24 10s-10 14.667 -10 24zM93 281c0 -39.333 7.33301 -76 22 -110s34.667 -63.667 60 -89s55 -45.333 89 -60s70.333 -22 109 -22s75 7.33301 109 22
s63.667 34.667 89 60s45.5 55 60.5 89s22.5 70.667 22.5 110v406c0 3.33301 -1.33301 6.33301 -4 9s-5.66699 4 -9 4c-8.66699 0 -13 -4.33301 -13 -13v-406c0 -35.333 -6.83301 -68.5 -20.5 -99.5s-32 -58 -55 -81s-50 -41.167 -81 -54.5s-63.833 -20.333 -98.5 -21
c-35.333 0.666992 -68.5 7.66699 -99.5 21s-58 31.5 -81 54.5s-41.167 50 -54.5 81s-20 64.167 -20 99.5v406c0 8.66699 -4 13 -12 13c-8.66699 0 -13 -4.33301 -13 -13v-406z" />
    <glyph glyph-name="Yacute" unicode="&#xdd;" horiz-adv-x="716" 
d="M289 798c-4.66699 -2.66699 -7.00098 -1.66602 -7.00098 3.00098c0 3.33301 1.33301 7 4 11l62 93c8 12 17.333 18 28 18c9.33301 0 14.333 -1.83301 15 -5.5s1.66699 -6.83398 3 -9.50098s0.833008 -5.5 -1.5 -8.5s-5.16602 -6.16699 -8.49902 -9.5l-71 -77
c-5.33301 -6 -9.33301 -9.5 -12 -10.5zM303.999 342.001l-244.999 337c-2.66699 2.66699 -3.66699 5.66699 -3 9s2.66699 6 6 8c2.66699 2 5.66699 2.83301 9 2.5s6 -1.83301 8 -4.5l238 -327l237 327c6 6 12 6.66699 18 2c7.33301 -5.33301 8.66602 -11 3.99902 -17
l-247 -337v-329c0 -8.66699 -4 -13 -12 -13c-8.66699 0 -13 4.33301 -13 13v329z" />
    <glyph glyph-name="germandbls" unicode="&#xdf;" horiz-adv-x="620" 
d="M286 14c0 6 1.99902 10.835 5.99902 14.502s8.66699 5.83398 14 6.50098c28.667 1.33301 56 5.66602 82 12.999s49 17.333 69 30s35.833 28.334 47.5 47.001s17.5 40 17.5 64c0 22.667 -6 42.667 -18 60s-27.833 32 -47.5 44s-42.167 21.833 -67.5 29.5
s-51.333 13.167 -78 16.5c-16.667 2 -25 10 -25 24c0 6.66699 2 12 6 16s8.66699 7 14 9c21.333 7.33301 42.5 16.333 63.5 27s39.667 23.167 56 37.5s29.666 30.5 39.999 48.5s15.5 38.333 15.5 61c0 18.667 -4.66699 36.834 -14 54.501s-21.666 33.334 -36.999 47.001
s-33.166 24.5 -53.499 32.5s-41.5 12 -63.5 12c-24 0 -47.333 -5.33301 -70 -16s-42.667 -25.334 -60 -44.001s-31.166 -40.667 -41.499 -66s-15.5 -52.666 -15.5 -81.999v-480c0 -7.33301 -1.33301 -13.166 -4 -17.499s-7.66699 -6.5 -15 -6.5s-11.333 2.16699 -12 6.5
s-1 10.166 -1 17.499v480c0 34.667 5.33301 66.667 16 96s25.5 54.666 44.5 75.999s42 37.666 69 48.999s57.167 16.666 90.5 15.999c30 -1.33301 57.167 -6.5 81.5 -15.5s45.333 -21.333 63 -37s31.167 -34 40.5 -55s14 -43.5 14 -67.5v-2c0 -24.667 -5.33301 -47 -16 -67
s-24.334 -38 -41.001 -54s-35.334 -29.833 -56.001 -41.5s-40.667 -20.834 -60 -27.501c26 -4.66699 52.167 -11.5 78.5 -20.5s49.833 -20.833 70.5 -35.5s37.5 -32.334 50.5 -53.001s19.167 -44.667 18.5 -72c-0.666992 -28 -7.33398 -53.5 -20.001 -76.5
s-30.167 -42.667 -52.5 -59s-48.666 -29.333 -78.999 -39s-63.5 -15.167 -99.5 -16.5c-5.33301 0 -10.166 1.16699 -14.499 3.5s-6.5 6.5 -6.5 12.5z" />
    <glyph glyph-name="agrave" unicode="&#xe0;" horiz-adv-x="574" 
d="M345 573l-12.001 4.49902c-2.66699 1 -6.66699 4.5 -12 10.5l-71 77c-3.33301 3.33301 -6.16602 6.5 -8.49902 9.5s-2.83301 5.83301 -1.5 8.5s2.33301 5.83398 3 9.50098s5.66699 5.5 15 5.5c10.667 0 20 -6 28 -18l62 -93c2.66699 -4 4 -7.66699 4 -11
c0 -4.66699 -2.33301 -5.66699 -7 -3zM293.999 24.999c28 0 54.5 5.66699 79.5 17s46.833 27 65.5 47s33.5 43.333 44.5 70s16.5 55.334 16.5 86.001c0 30 -5.5 58.333 -16.5 85s-25.833 50 -44.5 70s-40.5 35.667 -65.5 47s-51.5 17 -79.5 17s-54.5 -5.66699 -79.5 -17
s-46.833 -27 -65.5 -47s-33.5 -43.333 -44.5 -70s-16.5 -55 -16.5 -85c0 -30.667 5.5 -59.334 16.5 -86.001s25.833 -50 44.5 -70s40.5 -35.667 65.5 -47s51.5 -17 79.5 -17zM512.999 489.999c3.33301 0 6.16699 -1.33301 8.5 -4s3.5 -5.66699 3.5 -9v-464
c0 -8.66699 -4 -13 -12 -13c-8.66699 0 -13 4.33301 -13 13v122c-19.333 -40 -47.166 -72.5 -83.499 -97.5s-77.166 -37.5 -122.499 -37.5c-32 0 -62 6.5 -90 19.5s-52.5 30.667 -73.5 53s-37.5 48.333 -49.5 78s-18 61.167 -18 94.5s6 64.833 18 94.5s28.5 55.667 49.5 78
s45.5 40 73.5 53s58 19.5 90 19.5c45.333 0 86.166 -12.5 122.499 -37.5s64.166 -57.5 83.499 -97.5v122c0 3.33301 1.16699 6.33301 3.5 9s5.5 4 9.5 4z" />
    <glyph glyph-name="aacute" unicode="&#xe1;" horiz-adv-x="574" 
d="M245 573c-4.66699 -2.66699 -7.00098 -1.66602 -7.00098 3.00098c0 3.33301 1.33301 7 4 11l62 93c8 12 17.333 18 28 18c9.33301 0 14.333 -1.83301 15 -5.5s1.66699 -6.83398 3 -9.50098s0.833008 -5.5 -1.5 -8.5s-5.16602 -6.16699 -8.49902 -9.5l-71 -77
c-5.33301 -6 -9.33301 -9.5 -12 -10.5zM293.999 25.001c28 0 54.5 5.66699 79.5 17s46.833 27 65.5 47s33.5 43.333 44.5 70s16.5 55.334 16.5 86.001c0 30 -5.5 58.333 -16.5 85s-25.833 50 -44.5 70s-40.5 35.667 -65.5 47s-51.5 17 -79.5 17s-54.5 -5.66699 -79.5 -17
s-46.833 -27 -65.5 -47s-33.5 -43.333 -44.5 -70s-16.5 -55 -16.5 -85c0 -30.667 5.5 -59.334 16.5 -86.001s25.833 -50 44.5 -70s40.5 -35.667 65.5 -47s51.5 -17 79.5 -17zM512.999 490.001c3.33301 0 6.16699 -1.33301 8.5 -4s3.5 -5.66699 3.5 -9v-464
c0 -8.66699 -4 -13 -12 -13c-8.66699 0 -13 4.33301 -13 13v122c-19.333 -40 -47.166 -72.5 -83.499 -97.5s-77.166 -37.5 -122.499 -37.5c-32 0 -62 6.5 -90 19.5s-52.5 30.667 -73.5 53s-37.5 48.333 -49.5 78s-18 61.167 -18 94.5s6 64.833 18 94.5s28.5 55.667 49.5 78
s45.5 40 73.5 53s58 19.5 90 19.5c45.333 0 86.166 -12.5 122.499 -37.5s64.166 -57.5 83.499 -97.5v122c0 3.33301 1.16699 6.33301 3.5 9s5.5 4 9.5 4z" />
    <glyph glyph-name="acircumflex" unicode="&#xe2;" horiz-adv-x="574" 
d="M252 591l-10.501 -11c-4.33301 -4.66699 -9.16602 -7 -14.499 -7c-4 0 -7.33301 -0.333008 -10 -1s-4 0.333008 -4 3c0 4 1.66699 8 5 12l72 88c4.66699 5.33301 9 9.66602 13 12.999s9 5 15 5h8c6 0 11 -1.66699 15 -5s8.33301 -7.66602 13 -12.999l72 -88
c3.33301 -4 5 -8 5 -12c0 -2.66699 -1 -3.66699 -3 -3s-5.33301 1 -10 1c-5.33301 0 -10.333 2.33301 -15 7l-12 12l-70 75zM293.999 25c28 0 54.5 5.66699 79.5 17s46.833 27 65.5 47s33.5 43.333 44.5 70s16.5 55.334 16.5 86.001c0 30 -5.5 58.333 -16.5 85
s-25.833 50 -44.5 70s-40.5 35.667 -65.5 47s-51.5 17 -79.5 17s-54.5 -5.66699 -79.5 -17s-46.833 -27 -65.5 -47s-33.5 -43.333 -44.5 -70s-16.5 -55 -16.5 -85c0 -30.667 5.5 -59.334 16.5 -86.001s25.833 -50 44.5 -70s40.5 -35.667 65.5 -47s51.5 -17 79.5 -17z
M512.999 490c3.33301 0 6.16699 -1.33301 8.5 -4s3.5 -5.66699 3.5 -9v-464c0 -8.66699 -4 -13 -12 -13c-8.66699 -0 -13 4.33301 -13 13v122c-19.333 -40 -47.166 -72.5 -83.499 -97.5s-77.166 -37.5 -122.499 -37.5c-32 0 -62 6.5 -90 19.5s-52.5 30.667 -73.5 53
s-37.5 48.333 -49.5 78s-18 61.167 -18 94.5s6 64.833 18 94.5s28.5 55.667 49.5 78s45.5 40 73.5 53s58 19.5 90 19.5c45.333 0 86.166 -12.5 122.499 -37.5s64.166 -57.5 83.499 -97.5v122c0 3.33301 1.16699 6.33301 3.5 9s5.5 4 9.5 4z" />
    <glyph glyph-name="atilde" unicode="&#xe3;" horiz-adv-x="574" 
d="M183 582c-1.33301 -3.33301 -3.00195 -6.16504 -5.00195 -8.49805s-5.66699 -3.5 -11 -3.5c-10.667 0 -16 4.33301 -16 13c0 1.33301 0.5 3.66602 1.5 6.99902s1.83301 5.66602 2.5 6.99902c2.66699 8 6.83398 15.5 12.501 22.5s12 13.333 19 19s14.5 10.167 22.5 13.5
s15.333 5 22 5c9.33301 0 19.666 -2 30.999 -6s22.833 -8.33301 34.5 -13l33.5 -13c10.667 -4 20.334 -6 29.001 -6c20.667 0 37.334 14.333 50.001 43c1.33301 3.33301 2.66602 7 3.99902 11s4.33301 6 9 6c5.33301 0 9.66602 -1.5 12.999 -4.5s5 -7.16699 5 -12.5
c0 -4 -0.666992 -8 -2 -12c-6.66699 -20 -16.667 -36.333 -30 -49s-29.666 -19 -48.999 -19c-9.33301 0 -19.5 2 -30.5 6s-22.167 8.5 -33.5 13.5s-22.666 9.5 -33.999 13.5s-21.333 6 -30 6c-20.667 0 -36.667 -13 -48 -39zM293.998 25.001c28 0 54.5 5.66699 79.5 17
s46.833 27 65.5 47s33.5 43.333 44.5 70s16.5 55.334 16.5 86.001c0 30 -5.5 58.333 -16.5 85s-25.833 50 -44.5 70s-40.5 35.667 -65.5 47s-51.5 17 -79.5 17s-54.5 -5.66699 -79.5 -17s-46.833 -27 -65.5 -47s-33.5 -43.333 -44.5 -70s-16.5 -55 -16.5 -85
c0 -30.667 5.5 -59.334 16.5 -86.001s25.833 -50 44.5 -70s40.5 -35.667 65.5 -47s51.5 -17 79.5 -17zM512.998 490.001c3.33301 0 6.16699 -1.33301 8.5 -4s3.5 -5.66699 3.5 -9v-464c0 -8.66699 -4 -13 -12 -13c-8.66699 0 -13 4.33301 -13 13v122
c-19.333 -40 -47.166 -72.5 -83.499 -97.5s-77.166 -37.5 -122.499 -37.5c-32 0 -62 6.5 -90 19.5s-52.5 30.667 -73.5 53s-37.5 48.333 -49.5 78s-18 61.167 -18 94.5s6 64.833 18 94.5s28.5 55.667 49.5 78s45.5 40 73.5 53s58 19.5 90 19.5
c45.333 0 86.166 -12.5 122.499 -37.5s64.166 -57.5 83.499 -97.5v122c0 3.33301 1.16699 6.33301 3.5 9s5.5 4 9.5 4z" />
    <glyph glyph-name="adieresis" unicode="&#xe4;" horiz-adv-x="574" 
d="M351 613c0 9.33301 3.33301 17.333 10 24s14.667 10 24 10s17.333 -3.33301 24 -10s10 -14.667 10 -24s-3.33301 -17.333 -10 -24s-14.667 -10 -24 -10s-17.333 3.33301 -24 10s-10 14.667 -10 24zM169 613c0 9.33301 3.33301 17.333 10 24s14.667 10 24 10
s17.166 -3.33301 23.499 -10s9.5 -14.667 9.5 -24s-3.16699 -17.333 -9.5 -24s-14.166 -10 -23.499 -10s-17.333 3.33301 -24 10s-10 14.667 -10 24zM294 25c28 0 54.5 5.66699 79.5 17s46.833 27 65.5 47s33.5 43.333 44.5 70s16.5 55.334 16.5 86.001
c0 30 -5.5 58.333 -16.5 85s-25.833 50 -44.5 70s-40.5 35.667 -65.5 47s-51.5 17 -79.5 17s-54.5 -5.66699 -79.5 -17s-46.833 -27 -65.5 -47s-33.5 -43.333 -44.5 -70s-16.5 -55 -16.5 -85c0 -30.667 5.5 -59.334 16.5 -86.001s25.833 -50 44.5 -70s40.5 -35.667 65.5 -47
s51.5 -17 79.5 -17zM513 490c3.33301 0 6.16699 -1.33301 8.5 -4s3.5 -5.66699 3.5 -9v-464c0 -8.66699 -4 -13 -12 -13c-8.66699 -0 -13 4.33301 -13 13v122c-19.333 -40 -47.166 -72.5 -83.499 -97.5s-77.166 -37.5 -122.499 -37.5c-32 0 -62 6.5 -90 19.5
s-52.5 30.667 -73.5 53s-37.5 48.333 -49.5 78s-18 61.167 -18 94.5s6 64.833 18 94.5s28.5 55.667 49.5 78s45.5 40 73.5 53s58 19.5 90 19.5c45.333 0 86.166 -12.5 122.499 -37.5s64.166 -57.5 83.499 -97.5v122c0 3.33301 1.16699 6.33301 3.5 9s5.5 4 9.5 4z" />
    <glyph glyph-name="aring" unicode="&#xe5;" horiz-adv-x="574" 
d="M282 25c28 0 54.5 5.66699 79.5 17s46.833 27 65.5 47s33.5 43.333 44.5 70s16.5 55.334 16.5 86.001c0 30 -5.5 58.333 -16.5 85s-25.833 50 -44.5 70s-40.5 35.667 -65.5 47s-51.5 17 -79.5 17s-54.5 -5.66699 -79.5 -17s-46.833 -27 -65.5 -47
s-33.5 -43.333 -44.5 -70s-16.5 -55 -16.5 -85c0 -30.667 5.5 -59.334 16.5 -86.001s25.833 -50 44.5 -70s40.5 -35.667 65.5 -47s51.5 -17 79.5 -17zM501 490c3.33301 0 6.16699 -1.33301 8.5 -4s3.5 -5.66699 3.5 -9v-464c0 -8.66699 -4 -13 -12 -13
c-8.66699 -0 -13 4.33301 -13 13v122c-19.333 -40 -47.166 -72.5 -83.499 -97.5s-77.166 -37.5 -122.499 -37.5c-32 0 -62 6.5 -90 19.5s-52.5 30.667 -73.5 53s-37.5 48.333 -49.5 78s-18 61.167 -18 94.5s6 64.833 18 94.5s28.5 55.667 49.5 78s45.5 40 73.5 53
s58 19.5 90 19.5c45.333 0 86.166 -12.5 122.499 -37.5s64.166 -57.5 83.499 -97.5v122c0 3.33301 1.16699 6.33301 3.5 9s5.5 4 9.5 4zM283.001 592c16.667 0 30.334 5.83301 41.001 17.5s16 24.834 16 39.501v1c0 14.667 -5.33301 27.834 -16 39.501
s-24.334 17.5 -41.001 17.5s-30.334 -5.83301 -41.001 -17.5s-16 -24.834 -16 -39.501v-1c0 -14.667 5.33301 -27.834 16 -39.501s24.334 -17.5 41.001 -17.5zM283.001 570c-22.667 0 -41.835 7.83203 -57.502 23.499s-23.5 34.5 -23.5 56.5v1c0 24 8.16699 43 24.5 57
s35.166 21 56.499 21c10.667 0 20.834 -2 30.501 -6s18.334 -9.5 26.001 -16.5s13.667 -15.167 18 -24.5s6.5 -19.666 6.5 -30.999v-1c0 -21.333 -7.66699 -40 -23 -56s-34.666 -24 -57.999 -24z" />
    <glyph glyph-name="ae" unicode="&#xe6;" horiz-adv-x="954" 
d="M521 271h420.998c-3.33301 27.333 -11.166 52.666 -23.499 75.999s-27.833 43.666 -46.5 60.999s-40 30.833 -64 40.5s-49.333 14.5 -76 14.5c-27.333 0 -53 -4.83301 -77 -14.5s-45.333 -23.167 -64 -40.5s-34.167 -37.666 -46.5 -60.999
s-20.166 -48.666 -23.499 -75.999zM281.998 25c28.667 0 55.5 5.66699 80.5 17s46.833 27 65.5 47s33.5 43.333 44.5 70s16.5 55.334 16.5 86.001s-5.5 59.334 -16.5 86.001s-25.833 50 -44.5 70s-40.5 35.667 -65.5 47s-51.833 17 -80.5 17c-28 0 -54.5 -5.66699 -79.5 -17
s-46.833 -27 -65.5 -47s-33.5 -43.333 -44.5 -70s-16.5 -55.334 -16.5 -86.001s5.5 -59.334 16.5 -86.001s25.833 -50 44.5 -70s40.5 -35.667 65.5 -47s51.5 -17 79.5 -17zM731.998 489c31.333 0 60.6631 -5.83496 87.9961 -17.502s51.5 -27.667 72.5 -48
s38.167 -44.166 51.5 -71.499s21 -57 23 -89v-1v-2v-1c-0.666992 -3.33301 -2 -6.16602 -4 -8.49902s-4.66699 -3.5 -8 -3.5h-435v-3c0 -30 5.5 -58.167 16.5 -84.5s26.167 -49.5 45.5 -69.5s41.833 -35.833 67.5 -47.5s53.167 -17.5 82.5 -17.5
c37.333 0 71.333 9.16699 102 27.5s55.334 42.5 74.001 72.5c4 5.33301 10 6.33301 18 3c2.66699 -1.33301 4.33398 -3.66602 5.00098 -6.99902s0 -6.66602 -2 -9.99902c-21.333 -32.667 -49.166 -59.334 -83.499 -80.001s-72.166 -31 -113.499 -31
c-49.333 0.666992 -93.5 15 -132.5 43s-67.5 64 -85.5 108v-138c0 -8.66699 -4 -13 -12 -13c-8.66699 0 -13 4.33301 -13 13v122c-19.333 -40 -47.166 -72.5 -83.499 -97.5s-77.5 -37.5 -123.5 -37.5c-32 0 -62 6.5 -90 19.5s-52.5 30.667 -73.5 53s-37.5 48.333 -49.5 78
s-18 61.167 -18 94.5c0 34 6 65.833 18 95.5s28.5 55.667 49.5 78s45.5 40 73.5 53s58 19.5 90 19.5c46 0 87.167 -12.5 123.5 -37.5s64.166 -57.5 83.499 -97.5v122c0 3.33301 1.16699 6.33301 3.5 9s5.5 4 9.5 4c3.33301 0 6.16602 -1.33301 8.49902 -4
s3.5 -5.66699 3.5 -9v-140c8.66699 22 20.334 42.333 35.001 61s31.5 34.667 50.5 48s39.667 23.666 62 30.999s45.833 11 70.5 11z" />
    <glyph glyph-name="ccedilla" unicode="&#xe7;" horiz-adv-x="571" 
d="M271 -122c-3.33301 -6 -6.66797 -10.832 -10.001 -14.499s-8.66602 -5.5 -15.999 -5.5c-8 0 -15.667 2.66699 -23 8s-11 10.666 -11 15.999c0 4 1.66699 9 5 15l77 113h43zM57.998 245.001c0 34 6.66699 65.832 20 95.499s31.333 55.5 54 77.5s49.334 39.5 80.001 52.5
s63.334 19.5 98.001 19.5c29.333 0 57.333 -4.5 84 -13.5s50.667 -22.167 72 -39.5c5.33301 -5.33301 5.66602 -11.666 0.999023 -18.999c-4 -5.33301 -9.66699 -5.66602 -17 -0.999023c-19.333 15.333 -41 27.166 -65 35.499s-49 12.5 -75 12.5
c-32 0 -61.667 -5.83301 -89 -17.5s-51.333 -27.5 -72 -47.5s-36.834 -43.333 -48.501 -70s-17.5 -55 -17.5 -85s5.83301 -58.333 17.5 -85s27.834 -50 48.501 -70s44.667 -35.833 72 -47.5s57 -17.5 89 -17.5c26 0 51 4.33301 75 13s45.667 20.667 65 36
c2.66699 1.33301 5.66699 1.83301 9 1.5s6 -1.83301 8 -4.5c4.66699 -6.66699 4.33398 -12.667 -0.999023 -18c-21.333 -16.667 -45.333 -29.667 -72 -39s-54.667 -14 -84 -14c-34.667 0 -67.334 6.5 -98.001 19.5s-57.334 30.667 -80.001 53s-40.667 48.333 -54 78
s-20 61.167 -20 94.5z" />
    <glyph glyph-name="egrave" unicode="&#xe8;" horiz-adv-x="609" 
d="M345 573l-12.001 4.49902c-2.66699 1 -6.66699 4.5 -12 10.5l-71 77c-3.33301 3.33301 -6.16602 6.5 -8.49902 9.5s-2.83301 5.83301 -1.5 8.5s2.33301 5.83398 3 9.50098s5.66699 5.5 15 5.5c10.667 0 20 -6 28 -18l62 -93c2.66699 -4 4 -7.66699 4 -11
c0 -4.66699 -2.33301 -5.66699 -7 -3zM295.999 463.999c26.667 0 52.0029 -4.83301 76.0029 -14.5s45.333 -23.167 64 -40.5s34.167 -37.666 46.5 -60.999s20.166 -48.666 23.499 -75.999h-422c3.33301 27.333 11.166 52.666 23.499 75.999s27.833 43.666 46.5 60.999
s40.167 30.833 64.5 40.5s50.166 14.5 77.499 14.5zM296.002 -0.000976562c41.333 0 79.1689 10.3359 113.502 31.0029s62.166 47.334 83.499 80.001c2 3.33301 2.66699 6.66602 2 9.99902s-2.33398 5.66602 -5.00098 6.99902c-8 3.33301 -14 2.33301 -18 -3
c-18.667 -30 -43.334 -54.167 -74.001 -72.5s-64.667 -27.5 -102 -27.5c-29.333 0 -57 5.83301 -83 17.5s-48.667 27.5 -68 47.5s-34.5 43.333 -45.5 70s-16.5 55 -16.5 85v3h436c3.33301 0 6 1.16699 8 3.5s3.33301 5.16602 4 8.49902v1v2v1c-2 32 -9.66699 61.667 -23 89
s-30.5 51.166 -51.5 71.499s-45.167 36.333 -72.5 48s-56.666 17.5 -87.999 17.5c-32.667 0 -63.334 -6.33301 -92.001 -19s-53.834 -30.167 -75.501 -52.5s-38.667 -48.333 -51 -78s-18.833 -61.5 -19.5 -95.5c0.666992 -33.333 7.16699 -64.833 19.5 -94.5
s29.333 -55.5 51 -77.5s46.834 -39.5 75.501 -52.5s59.334 -19.833 92.001 -20.5z" />
    <glyph glyph-name="eacute" unicode="&#xe9;" horiz-adv-x="609" 
d="M244 573c-4.66699 -2.66699 -7.00098 -1.66602 -7.00098 3.00098c0 3.33301 1.33301 7 4 11l62 93c8 12 17.333 18 28 18c9.33301 0 14.333 -1.83301 15 -5.5s1.66699 -6.83398 3 -9.50098s0.833008 -5.5 -1.5 -8.5s-5.16602 -6.16699 -8.49902 -9.5l-71 -77
c-5.33301 -6 -9.33301 -9.5 -12 -10.5zM295.999 464.001c-27.333 0 -53.1689 -4.83301 -77.502 -14.5s-45.833 -23.167 -64.5 -40.5s-34.167 -37.666 -46.5 -60.999s-20.166 -48.666 -23.499 -75.999h422c-3.33301 27.333 -11.166 52.666 -23.499 75.999
s-27.833 43.666 -46.5 60.999s-40 30.833 -64 40.5s-49.333 14.5 -76 14.5zM295.996 0.000976562c-32.667 0.666992 -63.3369 7.49707 -92.0039 20.4971s-53.834 30.5 -75.501 52.5s-38.667 47.833 -51 77.5s-18.833 61.167 -19.5 94.5
c0.666992 34 7.16699 65.833 19.5 95.5s29.333 55.667 51 78s46.834 39.833 75.501 52.5s59.334 19 92.001 19c31.333 0 60.666 -5.83301 87.999 -17.5s51.5 -27.667 72.5 -48s38.167 -44.166 51.5 -71.499s21 -57 23 -89v-1v-2v-1
c-0.666992 -3.33301 -2 -6.16602 -4 -8.49902s-4.66699 -3.5 -8 -3.5h-436v-3c0 -30 5.5 -58.333 16.5 -85s26.167 -50 45.5 -70s42 -35.833 68 -47.5s53.667 -17.5 83 -17.5c37.333 0 71.333 9.16699 102 27.5s55.334 42.5 74.001 72.5c4 5.33301 10 6.33301 18 3
c2.66699 -1.33301 4.33398 -3.66602 5.00098 -6.99902s0 -6.66602 -2 -9.99902c-21.333 -32.667 -49.166 -59.334 -83.499 -80.001s-72.166 -31 -113.499 -31z" />
    <glyph glyph-name="ecircumflex" unicode="&#xea;" horiz-adv-x="609" 
d="M225 591l-10.501 -11c-4.33301 -4.66699 -9.16602 -7 -14.499 -7c-4 0 -7.33301 -0.333008 -10 -1s-4 0.333008 -4 3c0 4 1.66699 8 5 12l72 88c4.66699 5.33301 9 9.66602 13 12.999s9 5 15 5h8c6 0 11 -1.66699 15 -5s8.33301 -7.66602 13 -12.999l72 -88
c3.33301 -4 5 -8 5 -12c0 -2.66699 -1 -3.66699 -3 -3s-5.33301 1 -10 1c-5.33301 0 -10.333 2.33301 -15 7l-12 12l-70 75zM295.999 464c26.667 0 52.0029 -4.83301 76.0029 -14.5s45.333 -23.167 64 -40.5s34.167 -37.666 46.5 -60.999s20.166 -48.666 23.499 -75.999
h-422c3.33301 27.333 11.166 52.666 23.499 75.999s27.833 43.666 46.5 60.999s40.167 30.833 64.5 40.5s50.166 14.5 77.499 14.5zM296.002 0c41.333 0 79.1689 10.3359 113.502 31.0029s62.166 47.334 83.499 80.001c2 3.33301 2.66699 6.66602 2 9.99902
s-2.33398 5.66602 -5.00098 6.99902c-8 3.33301 -14 2.33301 -18 -3c-18.667 -30 -43.334 -54.167 -74.001 -72.5s-64.667 -27.5 -102 -27.5c-29.333 0 -57 5.83301 -83 17.5s-48.667 27.5 -68 47.5s-34.5 43.333 -45.5 70s-16.5 55 -16.5 85v3h436
c3.33301 0 6 1.16699 8 3.5s3.33301 5.16602 4 8.49902v1v2v1c-2 32 -9.66699 61.667 -23 89s-30.5 51.166 -51.5 71.499s-45.167 36.333 -72.5 48s-56.666 17.5 -87.999 17.5c-32.667 0 -63.334 -6.33301 -92.001 -19s-53.834 -30.167 -75.501 -52.5
s-38.667 -48.333 -51 -78s-18.833 -61.5 -19.5 -95.5c0.666992 -33.333 7.16699 -64.833 19.5 -94.5s29.333 -55.5 51 -77.5s46.834 -39.5 75.501 -52.5s59.334 -19.833 92.001 -20.5z" />
    <glyph glyph-name="edieresis" unicode="&#xeb;" horiz-adv-x="584" 
d="M354 604c0 9.33301 3.33301 17.333 10 24s14.667 10 24 10s17.333 -3.33301 24 -10s10 -14.667 10 -24s-3.33301 -17.333 -10 -24s-14.667 -10 -24 -10s-17.333 3.33301 -24 10s-10 14.667 -10 24zM172 604c0 9.33301 3.33301 17.333 10 24s14.667 10 24 10
s17.166 -3.33301 23.499 -10s9.5 -14.667 9.5 -24s-3.16699 -17.333 -9.5 -24s-14.166 -10 -23.499 -10s-17.333 3.33301 -24 10s-10 14.667 -10 24zM299 464c26.667 0 52.0029 -4.83301 76.0029 -14.5s45.333 -23.167 64 -40.5s34.167 -37.666 46.5 -60.999
s20.166 -48.666 23.499 -75.999h-422c3.33301 27.333 11.166 52.666 23.499 75.999s27.833 43.666 46.5 60.999s40.167 30.833 64.5 40.5s50.166 14.5 77.499 14.5zM299.003 0c41.333 0 79.1689 10.3359 113.502 31.0029s62.166 47.334 83.499 80.001
c2 3.33301 2.66699 6.66602 2 9.99902s-2.33398 5.66602 -5.00098 6.99902c-8 3.33301 -14 2.33301 -18 -3c-18.667 -30 -43.334 -54.167 -74.001 -72.5s-64.667 -27.5 -102 -27.5c-29.333 0 -57 5.83301 -83 17.5s-48.667 27.5 -68 47.5s-34.5 43.333 -45.5 70
s-16.5 55 -16.5 85v3h436c3.33301 0 6 1.16699 8 3.5s3.33301 5.16602 4 8.49902v1v2v1c-2 32 -9.66699 61.667 -23 89s-30.5 51.166 -51.5 71.499s-45.167 36.333 -72.5 48s-56.666 17.5 -87.999 17.5c-32.667 0 -63.334 -6.33301 -92.001 -19
s-53.834 -30.167 -75.501 -52.5s-38.667 -48.333 -51 -78s-18.833 -61.5 -19.5 -95.5c0.666992 -33.333 7.16699 -64.833 19.5 -94.5s29.333 -55.5 51 -77.5s46.834 -39.5 75.501 -52.5s59.334 -19.833 92.001 -20.5z" />
    <glyph glyph-name="igrave" unicode="&#xec;" horiz-adv-x="281" 
d="M158 573l-12.001 4.49902c-2.66699 1 -6.66699 4.5 -12 10.5l-71 77c-3.33301 3.33301 -6.16602 6.5 -8.49902 9.5s-2.83301 5.83301 -1.5 8.5s2.33301 5.83398 3 9.50098s5.66699 5.5 15 5.5c10.667 0 20 -6 28 -18l62 -93c2.66699 -4 4 -7.66699 4 -11
c0 -4.66699 -2.33301 -5.66699 -7 -3zM94.999 12.999c0 -8.66699 4.33301 -13 13 -13c3.33301 0 6.16602 1.33301 8.49902 4s3.5 5.66699 3.5 9v465c0 4 -1.16699 7 -3.5 9s-5.16602 3 -8.49902 3c-8.66699 0 -13 -4 -13 -12v-465z" />
    <glyph glyph-name="iacute" unicode="&#xed;" horiz-adv-x="281" 
d="M57 573c-4.66699 -2.66699 -7.00098 -1.66602 -7.00098 3.00098c0 3.33301 1.33301 7 4 11l62 93c8 12 17.333 18 28 18c9.33301 0 14.333 -1.83301 15 -5.5s1.66699 -6.83398 3 -9.50098s0.833008 -5.5 -1.5 -8.5s-5.16602 -6.16699 -8.49902 -9.5l-71 -77
c-5.33301 -6 -9.33301 -9.5 -12 -10.5zM94.999 478.001c0 8 4.33301 12 13 12c3.33301 0 6.16602 -1 8.49902 -3s3.5 -5 3.5 -9v-465c0 -3.33301 -1.16699 -6.33301 -3.5 -9s-5.16602 -4 -8.49902 -4c-8.66699 0 -13 4.33301 -13 13v465z" />
    <glyph glyph-name="icircumflex" unicode="&#xee;" horiz-adv-x="281" 
d="M48 591l-10.501 -11c-4.33301 -4.66699 -9.16602 -7 -14.499 -7c-4 0 -7.33301 -0.333008 -10 -1s-4 0.333008 -4 3c0 4 1.66699 8 5 12l72 88c4.66699 5.33301 9 9.66602 13 12.999s9 5 15 5h8c6 0 11 -1.66699 15 -5s8.33301 -7.66602 13 -12.999l72 -88
c3.33301 -4 5 -8 5 -12c0 -2.66699 -1 -3.66699 -3 -3s-5.33301 1 -10 1c-5.33301 0 -10.333 2.33301 -15 7l-12 12l-70 75zM105.999 13c0 -8.66699 4.33301 -13 13 -13c3.33301 -0 6.16602 1.33301 8.49902 4s3.5 5.66699 3.5 9v465c0 4 -1.16699 7 -3.5 9
s-5.16602 3 -8.49902 3c-8.66699 0 -13 -4 -13 -12v-465z" />
    <glyph glyph-name="idieresis" unicode="&#xef;" horiz-adv-x="281" 
d="M176 604c0 9.33301 3.33301 17.333 10 24s14.667 10 24 10s17.333 -3.33301 24 -10s10 -14.667 10 -24s-3.33301 -17.333 -10 -24s-14.667 -10 -24 -10s-17.333 3.33301 -24 10s-10 14.667 -10 24zM-6 604c0 9.33301 3.33301 17.333 10 24s14.667 10 24 10
s17.166 -3.33301 23.499 -10s9.5 -14.667 9.5 -24s-3.16699 -17.333 -9.5 -24s-14.166 -10 -23.499 -10s-17.333 3.33301 -24 10s-10 14.667 -10 24zM107 13c0 -8.66699 4.33301 -13 13 -13c3.33301 -0 6.16602 1.33301 8.49902 4s3.5 5.66699 3.5 9v465
c0 4 -1.16699 7 -3.5 9s-5.16602 3 -8.49902 3c-8.66699 0 -13 -4 -13 -12v-465z" />
    <glyph glyph-name="ntilde" unicode="&#xf1;" 
d="M179 582c-1.33301 -3.33301 -3.00195 -6.16504 -5.00195 -8.49805s-5.66699 -3.5 -11 -3.5c-10.667 0 -16 4.33301 -16 13c0 1.33301 0.5 3.66602 1.5 6.99902s1.83301 5.66602 2.5 6.99902c2.66699 8 6.83398 15.5 12.501 22.5s12 13.333 19 19s14.5 10.167 22.5 13.5
s15.333 5 22 5c9.33301 0 19.666 -2 30.999 -6s22.833 -8.33301 34.5 -13l33.5 -13c10.667 -4 20.334 -6 29.001 -6c20.667 0 37.334 14.333 50.001 43c1.33301 3.33301 2.66602 7 3.99902 11s4.33301 6 9 6c5.33301 0 9.66602 -1.5 12.999 -4.5s5 -7.16699 5 -12.5
c0 -4 -0.666992 -8 -2 -12c-6.66699 -20 -16.667 -36.333 -30 -49s-29.666 -19 -48.999 -19c-9.33301 0 -19.5 2 -30.5 6s-22.167 8.5 -33.5 13.5s-22.666 9.5 -33.999 13.5s-21.333 6 -30 6c-20.667 0 -36.667 -13 -48 -39zM463.998 13.001
c0 -8.66699 3.99805 -12.998 11.998 -12.998c8.66699 0 13 4.33301 13 13v279c0 27.333 -5.16699 53 -15.5 77s-24.5 45 -42.5 63s-39 32.167 -63 42.5s-49.333 15.5 -76 15.5c-37.333 0 -71.166 -9.33301 -101.499 -28s-54.166 -43.334 -71.499 -74.001v90
c0 8 -4 12 -12 12c-8.66699 0 -13 -4 -13 -12v-178v-8v-279v-2c0 -2 0.666992 -3.66699 2 -5c0 -0.666992 0.333008 -1.33398 1 -2.00098c1.33301 -1.33301 2.33301 -2 3 -2c0.666992 -0.666992 1.16699 -1 1.5 -1s0.833008 -0.333008 1.5 -1h2h2c4 0 7 1.66699 9 5
c2 2 3 4.66699 3 8v279c0 24 4.66699 46.667 14 68s21.833 39.666 37.5 54.999s34 27.5 55 36.5s43.167 13.5 66.5 13.5s45.5 -4.5 66.5 -13.5s39.333 -21.167 55 -36.5s28 -33.666 37 -54.999s13.5 -44 13.5 -68v-279z" />
    <glyph glyph-name="ograve" unicode="&#xf2;" horiz-adv-x="640" 
d="M340 573l-12.001 4.49902c-2.66699 1 -6.66699 4.5 -12 10.5l-71 77c-3.33301 3.33301 -6.16602 6.5 -8.49902 9.5s-2.83301 5.83301 -1.5 8.5s2.33301 5.83398 3 9.50098s5.66699 5.5 15 5.5c10.667 0 20 -6 28 -18l62 -93c2.66699 -4 4 -7.66699 4 -11
c0 -4.66699 -2.33301 -5.66699 -7 -3zM82.999 244.999c0 30.667 5.5 59.334 16.5 86.001s25.833 50 44.5 70s40.5 35.667 65.5 47s51.5 17 79.5 17s54.667 -5.66699 80 -17s47.333 -27 66 -47s33.5 -43.333 44.5 -70s16.5 -55.334 16.5 -86.001
c0 -30 -5.5 -58.333 -16.5 -85s-25.833 -50 -44.5 -70s-40.667 -35.833 -66 -47.5s-52 -17.5 -80 -17.5s-54.5 5.83301 -79.5 17.5s-46.833 27.5 -65.5 47.5s-33.5 43.333 -44.5 70s-16.5 55 -16.5 85zM57.999 244.999c0 -33.333 6 -64.833 18 -94.5s28.5 -55.667 49.5 -78
s45.5 -40 73.5 -53s58 -19.5 90 -19.5s62 6.5 90 19.5s52.5 30.667 73.5 53s37.667 48.333 50 78s18.5 61.167 18.5 94.5c0 34 -6.16699 65.833 -18.5 95.5s-29 55.5 -50 77.5s-45.5 39.5 -73.5 52.5s-58 19.5 -90 19.5s-62 -6.5 -90 -19.5s-52.5 -30.5 -73.5 -52.5
s-37.5 -47.833 -49.5 -77.5s-18 -61.5 -18 -95.5z" />
    <glyph glyph-name="oacute" unicode="&#xf3;" horiz-adv-x="640" 
d="M238 573c-4.66699 -2.66699 -7.00098 -1.66602 -7.00098 3.00098c0 3.33301 1.33301 7 4 11l62 93c8 12 17.333 18 28 18c9.33301 0 14.333 -1.83301 15 -5.5s1.66699 -6.83398 3 -9.50098s0.833008 -5.5 -1.5 -8.5s-5.16602 -6.16699 -8.49902 -9.5l-71 -77
c-5.33301 -6 -9.33301 -9.5 -12 -10.5zM82.999 245.001c0 -30 5.5 -58.333 16.5 -85s25.833 -50 44.5 -70s40.5 -35.833 65.5 -47.5s51.5 -17.5 79.5 -17.5s54.667 5.83301 80 17.5s47.333 27.5 66 47.5s33.5 43.333 44.5 70s16.5 55 16.5 85
c0 30.667 -5.5 59.334 -16.5 86.001s-25.833 50 -44.5 70s-40.667 35.667 -66 47s-52 17 -80 17s-54.5 -5.66699 -79.5 -17s-46.833 -27 -65.5 -47s-33.5 -43.333 -44.5 -70s-16.5 -55.334 -16.5 -86.001zM57.999 245.001c0 34 6 65.833 18 95.5s28.5 55.5 49.5 77.5
s45.5 39.5 73.5 52.5s58 19.5 90 19.5s62 -6.5 90 -19.5s52.5 -30.5 73.5 -52.5s37.667 -47.833 50 -77.5s18.5 -61.5 18.5 -95.5c0 -33.333 -6.16699 -64.833 -18.5 -94.5s-29 -55.667 -50 -78s-45.5 -40 -73.5 -53s-58 -19.5 -90 -19.5s-62 6.5 -90 19.5
s-52.5 30.667 -73.5 53s-37.5 48.333 -49.5 78s-18 61.167 -18 94.5z" />
    <glyph glyph-name="ocircumflex" unicode="&#xf4;" horiz-adv-x="640" 
d="M218 591l-10.501 -11c-4.33301 -4.66699 -9.16602 -7 -14.499 -7c-4 0 -7.33301 -0.333008 -10 -1s-4 0.333008 -4 3c0 4 1.66699 8 5 12l72 88c4.66699 5.33301 9 9.66602 13 12.999s9 5 15 5h8c6 0 11 -1.66699 15 -5s8.33301 -7.66602 13 -12.999l72 -88
c3.33301 -4 5 -8 5 -12c0 -2.66699 -1 -3.66699 -3 -3s-5.33301 1 -10 1c-5.33301 0 -10.333 2.33301 -15 7l-12 12l-70 75zM82.999 245c0 30.667 5.5 59.334 16.5 86.001s25.833 50 44.5 70s40.5 35.667 65.5 47s51.5 17 79.5 17s54.667 -5.66699 80 -17s47.333 -27 66 -47
s33.5 -43.333 44.5 -70s16.5 -55.334 16.5 -86.001c0 -30 -5.5 -58.333 -16.5 -85s-25.833 -50 -44.5 -70s-40.667 -35.833 -66 -47.5s-52 -17.5 -80 -17.5s-54.5 5.83301 -79.5 17.5s-46.833 27.5 -65.5 47.5s-33.5 43.333 -44.5 70s-16.5 55 -16.5 85zM57.999 245
c0 -33.333 6 -64.833 18 -94.5s28.5 -55.667 49.5 -78s45.5 -40 73.5 -53s58 -19.5 90 -19.5s62 6.5 90 19.5s52.5 30.667 73.5 53s37.667 48.333 50 78s18.5 61.167 18.5 94.5c0 34 -6.16699 65.833 -18.5 95.5s-29 55.5 -50 77.5s-45.5 39.5 -73.5 52.5s-58 19.5 -90 19.5
s-62 -6.5 -90 -19.5s-52.5 -30.5 -73.5 -52.5s-37.5 -47.833 -49.5 -77.5s-18 -61.5 -18 -95.5z" />
    <glyph glyph-name="otilde" unicode="&#xf5;" horiz-adv-x="640" 
d="M177 582c-1.33301 -3.33301 -3.00195 -6.16504 -5.00195 -8.49805s-5.66699 -3.5 -11 -3.5c-10.667 0 -16 4.33301 -16 13c0 1.33301 0.5 3.66602 1.5 6.99902s1.83301 5.66602 2.5 6.99902c2.66699 8 6.83398 15.5 12.501 22.5s12 13.333 19 19s14.5 10.167 22.5 13.5
s15.333 5 22 5c9.33301 0 19.666 -2 30.999 -6s22.833 -8.33301 34.5 -13l33.5 -13c10.667 -4 20.334 -6 29.001 -6c20.667 0 37.334 14.333 50.001 43c1.33301 3.33301 2.66602 7 3.99902 11s4.33301 6 9 6c5.33301 0 9.66602 -1.5 12.999 -4.5s5 -7.16699 5 -12.5
c0 -4 -0.666992 -8 -2 -12c-6.66699 -20 -16.667 -36.333 -30 -49s-29.666 -19 -48.999 -19c-9.33301 0 -19.5 2 -30.5 6s-22.167 8.5 -33.5 13.5s-22.666 9.5 -33.999 13.5s-21.333 6 -30 6c-20.667 0 -36.667 -13 -48 -39zM82.998 245.001
c0 30.667 5.5 59.334 16.5 86.001s25.833 50 44.5 70s40.5 35.667 65.5 47s51.5 17 79.5 17s54.667 -5.66699 80 -17s47.333 -27 66 -47s33.5 -43.333 44.5 -70s16.5 -55.334 16.5 -86.001c0 -30 -5.5 -58.333 -16.5 -85s-25.833 -50 -44.5 -70s-40.667 -35.833 -66 -47.5
s-52 -17.5 -80 -17.5s-54.5 5.83301 -79.5 17.5s-46.833 27.5 -65.5 47.5s-33.5 43.333 -44.5 70s-16.5 55 -16.5 85zM57.998 245.001c0 -33.333 6 -64.833 18 -94.5s28.5 -55.667 49.5 -78s45.5 -40 73.5 -53s58 -19.5 90 -19.5s62 6.5 90 19.5s52.5 30.667 73.5 53
s37.667 48.333 50 78s18.5 61.167 18.5 94.5c0 34 -6.16699 65.833 -18.5 95.5s-29 55.5 -50 77.5s-45.5 39.5 -73.5 52.5s-58 19.5 -90 19.5s-62 -6.5 -90 -19.5s-52.5 -30.5 -73.5 -52.5s-37.5 -47.833 -49.5 -77.5s-18 -61.5 -18 -95.5z" />
    <glyph glyph-name="odieresis" unicode="&#xf6;" horiz-adv-x="640" 
d="M346 604c0 9.33301 3.33301 17.333 10 24s14.667 10 24 10s17.333 -3.33301 24 -10s10 -14.667 10 -24s-3.33301 -17.333 -10 -24s-14.667 -10 -24 -10s-17.333 3.33301 -24 10s-10 14.667 -10 24zM164 604c0 9.33301 3.33301 17.333 10 24s14.667 10 24 10
s17.166 -3.33301 23.499 -10s9.5 -14.667 9.5 -24s-3.16699 -17.333 -9.5 -24s-14.166 -10 -23.499 -10s-17.333 3.33301 -24 10s-10 14.667 -10 24zM83 245c0 30.667 5.5 59.334 16.5 86.001s25.833 50 44.5 70s40.5 35.667 65.5 47s51.5 17 79.5 17
s54.667 -5.66699 80 -17s47.333 -27 66 -47s33.5 -43.333 44.5 -70s16.5 -55.334 16.5 -86.001c0 -30 -5.5 -58.333 -16.5 -85s-25.833 -50 -44.5 -70s-40.667 -35.833 -66 -47.5s-52 -17.5 -80 -17.5s-54.5 5.83301 -79.5 17.5s-46.833 27.5 -65.5 47.5
s-33.5 43.333 -44.5 70s-16.5 55 -16.5 85zM58 245c0 -33.333 6 -64.833 18 -94.5s28.5 -55.667 49.5 -78s45.5 -40 73.5 -53s58 -19.5 90 -19.5s62 6.5 90 19.5s52.5 30.667 73.5 53s37.667 48.333 50 78s18.5 61.167 18.5 94.5c0 34 -6.16699 65.833 -18.5 95.5
s-29 55.5 -50 77.5s-45.5 39.5 -73.5 52.5s-58 19.5 -90 19.5s-62 -6.5 -90 -19.5s-52.5 -30.5 -73.5 -52.5s-37.5 -47.833 -49.5 -77.5s-18 -61.5 -18 -95.5z" />
    <glyph glyph-name="divide" unicode="&#xf7;" horiz-adv-x="620" 
d="M274 158c0 12.667 4.5 23.5 13.5 32.5s19.833 13.5 32.5 13.5s23.5 -4.5 32.5 -13.5s13.5 -19.833 13.5 -32.5s-4.5 -23.5 -13.5 -32.5s-19.833 -13.5 -32.5 -13.5s-23.5 4.5 -32.5 13.5s-13.5 19.833 -13.5 32.5zM274 547c0 12.667 4.5 23.5 13.5 32.5
s19.833 13.5 32.5 13.5s23.5 -4.5 32.5 -13.5s13.5 -19.833 13.5 -32.5s-4.5 -23.5 -13.5 -32.5s-19.833 -13.5 -32.5 -13.5s-23.5 4.5 -32.5 13.5s-13.5 19.833 -13.5 32.5zM532 328c6.66699 0 12.334 2.33301 17.001 7s7 10.334 7 17.001s-2.33301 12.334 -7 17.001
s-10.334 7 -17.001 7h-444c-6.66699 0 -12.334 -2.33301 -17.001 -7s-7 -10.334 -7 -17.001s2.33301 -12.334 7 -17.001s10.334 -7 17.001 -7h444z" />
    <glyph glyph-name="oslash" unicode="&#xf8;" horiz-adv-x="640" 
d="M83 245c0 -30 5.5 -58.333 16.5 -85s25.833 -50 44.5 -70s40.5 -35.833 65.5 -47.5s51.5 -17.5 79.5 -17.5s54.667 5.83301 80 17.5s47.333 27.5 66 47.5s33.5 43.333 44.5 70s16.5 55 16.5 85c0 30.667 -5.5 59.334 -16.5 86.001s-25.833 50 -44.5 70
s-40.667 35.667 -66 47s-52 17 -80 17s-54.5 -5.66699 -79.5 -17s-46.833 -27 -65.5 -47s-33.5 -43.333 -44.5 -70s-16.5 -55.334 -16.5 -86.001zM58 245c0 34 6 65.833 18 95.5s28.5 55.5 49.5 77.5s45.5 39.5 73.5 52.5s58 19.5 90 19.5s62 -6.5 90 -19.5
s52.5 -30.5 73.5 -52.5s37.667 -47.833 50 -77.5s18.5 -61.5 18.5 -95.5c0 -33.333 -6.16699 -64.833 -18.5 -94.5s-29 -55.667 -50 -78s-45.5 -40 -73.5 -53s-58 -19.5 -90 -19.5s-62 6.5 -90 19.5s-52.5 30.667 -73.5 53s-37.5 48.333 -49.5 78s-18 61.167 -18 94.5z
M80 -11c-6 6 -5.66602 12.332 1.00098 18.999l419 461c1.33301 2 3.83301 3.33301 7.5 4s6.83398 -0.666016 9.50098 -3.99902c2.66699 -2 4.16699 -4.66699 4.5 -8s-0.5 -6.33301 -2.5 -9l-422 -462c-2 -4.66699 -6.33301 -5.66699 -13 -3
c-0.666992 0 -1.33398 0.333008 -2.00098 1s-1.33398 1 -2.00098 1z" />
    <glyph glyph-name="ugrave" unicode="&#xf9;" 
d="M298 573l-12.001 4.49902c-2.66699 1 -6.66699 4.5 -12 10.5l-71 77c-3.33301 3.33301 -6.16602 6.5 -8.49902 9.5s-2.83301 5.83301 -1.5 8.5s2.33301 5.83398 3 9.50098s5.66699 5.5 15 5.5c10.667 0 20 -6 28 -18l62 -93c2.66699 -4 4 -7.66699 4 -11
c0 -4.66699 -2.33301 -5.66699 -7 -3zM82.999 197.999c0 -27.333 5.16602 -53 15.499 -77s24.333 -45 42 -63s38.334 -32.167 62.001 -42.5s49.167 -15.5 76.5 -15.5s53 5.16699 77 15.5s45 24.5 63 42.5s32.167 39 42.5 63s15.5 49.667 15.5 77v279
c0 8.66699 -4.33301 13 -13 13c-3.33301 0 -6.33301 -1.33301 -9 -4s-4 -5.66699 -4 -9v-279c0 -24 -4.5 -46.5 -13.5 -67.5s-21.333 -39.333 -37 -55s-33.834 -28 -54.501 -37s-43 -13.5 -67 -13.5c-23.333 0 -45.5 4.5 -66.5 13.5s-39.167 21.333 -54.5 37
s-27.5 34 -36.5 55s-13.5 43.5 -13.5 67.5v279c0 3.33301 -1.16699 6.33301 -3.5 9s-5.16602 4 -8.49902 4c-8.66699 0 -13 -4.33301 -13 -13v-279z" />
    <glyph glyph-name="uacute" unicode="&#xfa;" 
d="M235 573c-4.66699 -2.66699 -7.00098 -1.66602 -7.00098 3.00098c0 3.33301 1.33301 7 4 11l62 93c8 12 17.333 18 28 18c9.33301 0 14.333 -1.83301 15 -5.5s1.66699 -6.83398 3 -9.50098s0.833008 -5.5 -1.5 -8.5s-5.16602 -6.16699 -8.49902 -9.5l-71 -77
c-5.33301 -6 -9.33301 -9.5 -12 -10.5zM82.999 477.001c0 8.66699 4.33398 13 13.001 13c3.33301 0 6.16602 -1.33301 8.49902 -4s3.5 -5.66699 3.5 -9v-279c0 -24 4.5 -46.5 13.5 -67.5s21.167 -39.333 36.5 -55s33.5 -28 54.5 -37s43.167 -13.5 66.5 -13.5
c24 0 46.333 4.5 67 13.5s38.834 21.333 54.501 37s28 34 37 55s13.5 43.5 13.5 67.5v279c0 3.33301 1.33301 6.33301 4 9s5.66699 4 9 4c8.66699 0 13 -4.33301 13 -13v-279c0 -27.333 -5.16699 -53 -15.5 -77s-24.5 -45 -42.5 -63s-39 -32.167 -63 -42.5
s-49.667 -15.5 -77 -15.5s-52.833 5.16699 -76.5 15.5s-44.334 24.5 -62.001 42.5s-31.667 39 -42 63s-15.5 49.667 -15.5 77v279z" />
    <glyph glyph-name="ucircumflex" unicode="&#xfb;" 
d="M198 591l-10.501 -11c-4.33301 -4.66699 -9.16602 -7 -14.499 -7c-4 0 -7.33301 -0.333008 -10 -1s-4 0.333008 -4 3c0 4 1.66699 8 5 12l72 88c4.66699 5.33301 9 9.66602 13 12.999s9 5 15 5h8c6 0 11 -1.66699 15 -5s8.33301 -7.66602 13 -12.999l72 -88
c3.33301 -4 5 -8 5 -12c0 -2.66699 -1 -3.66699 -3 -3s-5.33301 1 -10 1c-5.33301 0 -10.333 2.33301 -15 7l-12 12l-70 75zM82.999 198c0 -27.333 5.16602 -53 15.499 -77s24.333 -45 42 -63s38.334 -32.167 62.001 -42.5s49.167 -15.5 76.5 -15.5s53 5.16699 77 15.5
s45 24.5 63 42.5s32.167 39 42.5 63s15.5 49.667 15.5 77v279c0 8.66699 -4.33301 13 -13 13c-3.33301 0 -6.33301 -1.33301 -9 -4s-4 -5.66699 -4 -9v-279c0 -24 -4.5 -46.5 -13.5 -67.5s-21.333 -39.333 -37 -55s-33.834 -28 -54.501 -37s-43 -13.5 -67 -13.5
c-23.333 0 -45.5 4.5 -66.5 13.5s-39.167 21.333 -54.5 37s-27.5 34 -36.5 55s-13.5 43.5 -13.5 67.5v279c0 3.33301 -1.16699 6.33301 -3.5 9s-5.16602 4 -8.49902 4c-8.66699 0 -13 -4.33301 -13 -13v-279z" />
    <glyph glyph-name="udieresis" unicode="&#xfc;" 
d="M338 604c0 9.33301 3.33301 17.333 10 24s14.667 10 24 10s17.333 -3.33301 24 -10s10 -14.667 10 -24s-3.33301 -17.333 -10 -24s-14.667 -10 -24 -10s-17.333 3.33301 -24 10s-10 14.667 -10 24zM156 604c0 9.33301 3.33301 17.333 10 24s14.667 10 24 10
s17.166 -3.33301 23.499 -10s9.5 -14.667 9.5 -24s-3.16699 -17.333 -9.5 -24s-14.166 -10 -23.499 -10s-17.333 3.33301 -24 10s-10 14.667 -10 24zM83 198c0 -27.333 5.16602 -53 15.499 -77s24.333 -45 42 -63s38.334 -32.167 62.001 -42.5s49.167 -15.5 76.5 -15.5
s53 5.16699 77 15.5s45 24.5 63 42.5s32.167 39 42.5 63s15.5 49.667 15.5 77v279c0 8.66699 -4.33301 13 -13 13c-3.33301 0 -6.33301 -1.33301 -9 -4s-4 -5.66699 -4 -9v-279c0 -24 -4.5 -46.5 -13.5 -67.5s-21.333 -39.333 -37 -55s-33.834 -28 -54.501 -37
s-43 -13.5 -67 -13.5c-23.333 0 -45.5 4.5 -66.5 13.5s-39.167 21.333 -54.5 37s-27.5 34 -36.5 55s-13.5 43.5 -13.5 67.5v279c0 3.33301 -1.16699 6.33301 -3.5 9s-5.16602 4 -8.49902 4c-8.66699 0 -13 -4.33301 -13 -13v-279z" />
    <glyph glyph-name="yacute" unicode="&#xfd;" horiz-adv-x="588" 
d="M236 573c-4.66699 -2.66699 -7.00098 -1.66602 -7.00098 3.00098c0 3.33301 1.33301 7 4 11l62 93c8 12 17.333 18 28 18c9.33301 0 14.333 -1.83301 15 -5.5s1.66699 -6.83398 3 -9.50098s0.833008 -5.5 -1.5 -8.5s-5.16602 -6.16699 -8.49902 -9.5l-71 -77
c-5.33301 -6 -9.33301 -9.5 -12 -10.5zM51.999 477.001c0 8.66699 4.3291 12.9971 12.9961 12.9971c3.33301 0 6.16602 -1.33301 8.49902 -4s3.5 -5.66699 3.5 -9v-279c0 -23.333 4.5 -45.5 13.5 -66.5s21.333 -39.167 37 -54.5s33.834 -27.5 54.501 -36.5
s43 -13.5 67 -13.5c22.667 0 44 4.33301 64 13s37.667 20.334 53 35.001s27.5 32 36.5 52s14.167 41.333 15.5 64v286v2c0 0.666992 0.666992 2.33398 2 5.00098c0 0.666992 0.333008 1 1 1l3 3c2.66699 1.33301 5 2 7 2h2c0.666992 0 1.16699 -0.166992 1.5 -0.5
s0.833008 -0.5 1.5 -0.5l3 -3l1 -1c2 -2 3 -4.66699 3 -8v-449c0 -31.333 -6 -61 -18 -89s-28.333 -52.5 -49 -73.5s-45 -37.5 -73 -49.5s-58 -18 -90 -18c-18 0 -35.333 2.16699 -52 6.5s-32.667 10.166 -48 17.499c-8 3.33301 -9.66699 9 -5 17
c1.33301 3.33301 3.5 5.5 6.5 6.5s5.83301 0.833008 8.5 -0.5c14 -7.33301 28.333 -12.833 43 -16.5s30.334 -5.5 47.001 -5.5c28.667 0 55.334 5.33301 80.001 16s46.334 25.334 65.001 44.001s33.334 40.5 44.001 65.5s16 51.5 16 79.5v74c-16 -30 -39 -54.167 -69 -72.5
s-63.333 -27.5 -100 -27.5c-27.333 0 -53 5.16699 -77 15.5s-44.833 24.333 -62.5 42s-31.667 38.334 -42 62.001s-15.5 49.167 -15.5 76.5v279z" />
    <glyph glyph-name="ydieresis" unicode="&#xff;" horiz-adv-x="588" 
d="M303 604c0 9.33301 3.33301 17.333 10 24s14.667 10 24 10s17.333 -3.33301 24 -10s10 -14.667 10 -24s-3.33301 -17.333 -10 -24s-14.667 -10 -24 -10s-17.333 3.33301 -24 10s-10 14.667 -10 24zM121 604c0 9.33301 3.33301 17.333 10 24s14.667 10 24 10
s17.166 -3.33301 23.499 -10s9.5 -14.667 9.5 -24s-3.16699 -17.333 -9.5 -24s-14.166 -10 -23.499 -10s-17.333 3.33301 -24 10s-10 14.667 -10 24zM52 198c0 -27.333 5.1709 -52.8301 15.5039 -76.4971s24.333 -44.334 42 -62.001s38.5 -31.667 62.5 -42
s49.667 -15.5 77 -15.5c36.667 0 70 9.16699 100 27.5s53 42.5 69 72.5v-74c0 -28 -5.33301 -54.5 -16 -79.5s-25.334 -46.833 -44.001 -65.5s-40.334 -33.334 -65.001 -44.001s-51.334 -16 -80.001 -16c-16.667 0 -32.334 1.83301 -47.001 5.5s-29 9.16699 -43 16.5
c-2.66699 1.33301 -5.5 1.5 -8.5 0.5s-5.16699 -3.16699 -6.5 -6.5c-4.66699 -8 -3 -13.667 5 -17c15.333 -7.33301 31.333 -13.166 48 -17.499s34 -6.5 52 -6.5c32 0 62 6 90 18s52.333 28.5 73 49.5s37 45.5 49 73.5s18 57.667 18 89v449c0 3.33301 -1 6 -3 8
c0 0.666992 -0.333008 1 -1 1l-3 3c-0.666992 0 -1.16699 0.166992 -1.5 0.5s-0.833008 0.5 -1.5 0.5h-2c-2 0 -4.33301 -0.666992 -7 -2l-3 -3l-1 -1c-1.33301 -2.66699 -2 -4.33398 -2 -5.00098v-2v-286c-1.33301 -22.667 -6.5 -44 -15.5 -64s-21.167 -37.333 -36.5 -52
s-33 -26.334 -53 -35.001s-41.333 -13 -64 -13c-24 0 -46.333 4.5 -67 13.5s-38.834 21.167 -54.501 36.5s-28 33.5 -37 54.5s-13.5 43.167 -13.5 66.5v279c0 3.33301 -1.16699 6.33301 -3.5 9s-5.16602 4 -8.49902 4c-8.66699 0 -13 -4.33301 -13 -13v-279z" />
    <glyph glyph-name="OE" unicode="&#x152;" horiz-adv-x="1443" 
d="M100 349c0 -46 8.33301 -89.333 25 -130s39.167 -76 67.5 -106s61.5 -53.833 99.5 -71.5s78.667 -26.834 122 -27.501c42.667 0.666992 83 9.83398 121 27.501s71.167 41.5 99.5 71.5s51 65.333 68 106s25.5 84 25.5 130c0 46.667 -8.5 90.334 -25.5 131.001
s-39.667 76.167 -68 106.5s-61.5 54.166 -99.5 71.499s-78.333 26 -121 26c-43.333 0 -84 -8.66699 -122 -26s-71.167 -41.166 -99.5 -71.499s-50.833 -65.833 -67.5 -106.5s-25 -84.334 -25 -131.001zM748 0c-8 0 -11.999 4.3291 -11.999 12.9961v215
c-12 -35.333 -28.5 -67.666 -49.5 -96.999s-45.5 -54.666 -73.5 -75.999s-58.833 -38 -92.5 -50s-69.167 -18 -106.5 -18c-47.333 0 -91.666 9.5 -132.999 28.5s-77.333 44.833 -108 77.5s-55 71 -73 115s-27 91 -27 141s9 97 27 141s42.333 82.167 73 114.5
s66.667 58 108 77s85.666 28.5 132.999 28.5c37.333 0 72.833 -6 106.5 -18s64.5 -28.667 92.5 -50s52.5 -46.666 73.5 -75.999s37.5 -61.666 49.5 -96.999v218c0 7.33301 4 11.666 12 12.999h373c8 0 12 -4.33301 12 -13c0 -8 -4 -12 -12 -12h-360v-312h317
c3.33301 0 6.16602 -1.16699 8.49902 -3.5s3.5 -5.16602 3.5 -8.49902c0 -8.66699 -4 -13 -12 -13h-317v-313h360c8 0 12 -4 12 -12c0 -8.66699 -4 -13 -12 -13h-373z" />
    <glyph glyph-name="oe" unicode="&#x153;" horiz-adv-x="1055" 
d="M737 463c-27.333 0 -53.002 -4.83301 -77.002 -14.5s-45.333 -23.167 -64 -40.5s-34.167 -37.666 -46.5 -60.999s-20.166 -48.666 -23.499 -75.999h421c-3.33301 27.333 -11.166 52.666 -23.499 75.999s-27.833 43.666 -46.5 60.999s-40 30.833 -64 40.5
s-49.333 14.5 -76 14.5zM82.998 245c0 -30 5.5 -58.333 16.5 -85s25.833 -50 44.5 -70s40.5 -35.833 65.5 -47.5s51.5 -17.5 79.5 -17.5s54.667 5.83301 80 17.5s47.333 27.5 66 47.5s33.5 43.333 44.5 70s16.5 55 16.5 85c0 30.667 -5.5 59.334 -16.5 86.001
s-25.833 50 -44.5 70s-40.667 35.667 -66 47s-52 17 -80 17s-54.5 -5.66699 -79.5 -17s-46.833 -27 -65.5 -47s-33.5 -43.333 -44.5 -70s-16.5 -55.334 -16.5 -86.001zM736.998 0c-26.667 0 -52.0029 4.50098 -76.0029 13.501s-45.833 21.167 -65.5 36.5
s-36.834 33.666 -51.501 54.999s-25.667 44.333 -33 69c-7.33301 -25.333 -18.166 -48.5 -32.499 -69.5s-31.166 -39.333 -50.499 -55s-40.833 -27.834 -64.5 -36.501s-48.5 -13 -74.5 -13c-32 0 -62 6.5 -90 19.5s-52.5 30.667 -73.5 53s-37.5 48.333 -49.5 78
s-18 61.167 -18 94.5c0 34 6 65.833 18 95.5s28.5 55.5 49.5 77.5s45.5 39.5 73.5 52.5s58 19.5 90 19.5c26 0 50.833 -4.33301 74.5 -13s45.167 -20.834 64.5 -36.501s36.166 -34.167 50.499 -55.5s25.166 -44.333 32.499 -69c7.33301 24.667 18.333 47.667 33 69
s31.834 39.666 51.501 54.999s41.5 27.333 65.5 36s49.333 13 76 13c31.333 0 60.666 -5.83301 87.999 -17.5s51.5 -27.667 72.5 -48s38.167 -44.166 51.5 -71.499s21 -57 23 -89v-4c-0.666992 -3.33301 -2 -6.16602 -4 -8.49902s-4.66699 -3.5 -8 -3.5h-435v-3
c0 -30 5.5 -58.167 16.5 -84.5s26.167 -49.5 45.5 -69.5s41.833 -35.833 67.5 -47.5s53.167 -17.5 82.5 -17.5c37.333 0 71.333 9.16699 102 27.5s55.334 42.5 74.001 72.5c4 5.33301 10 6.33301 18 3c2.66699 -1.33301 4.33398 -3.66602 5.00098 -6.99902
s0 -6.66602 -2 -9.99902c-21.333 -32.667 -49.166 -59.334 -83.499 -80.001s-72.166 -31 -113.499 -31z" />
    <glyph glyph-name="Scaron" unicode="&#x160;" horiz-adv-x="640" 
d="M71 102c-2.66699 2 -4.16504 4.66797 -4.49805 8.00098s0.5 6.33301 2.5 9c5.33301 5.33301 10.666 5.66602 15.999 0.999023c14 -11.333 29.833 -22.666 47.5 -33.999s37 -21.5 58 -30.5s43.167 -16.5 66.5 -22.5s47 -9 71 -9c32.667 0 63 4.5 91 13.5
s52.667 21.167 74 36.5s37.833 33 49.5 53s17.5 41.333 17.5 64s-5.5 42.667 -16.5 60s-26.833 33 -47.5 47s-45.334 25.833 -74.001 35.5s-60.667 17.5 -96 23.5l-2 1c-33.333 6 -64 13.833 -92 23.5s-52.667 21.5 -74 35.5s-38.166 30.667 -50.499 50
s-18.5 41.666 -18.5 66.999c0 24.667 6.5 47.834 19.5 69.501s30.167 40.334 51.5 56.001s46.333 28 75 37s59 13.5 91 13.5c22.667 0 44 -2.5 64 -7.5s39 -11.5 57 -19.5s34.833 -16.833 50.5 -26.5l44.5 -28.5c2.66699 -1.33301 4.33398 -3.5 5.00098 -6.5
s0 -6.16699 -2 -9.5c-1.33301 -2.66699 -3.5 -4.16699 -6.5 -4.5s-5.83301 0.166992 -8.5 1.5l-44 28c-15.333 9.33301 -31.333 17.666 -48 24.999s-34.334 13.333 -53.001 18s-38.334 7 -59.001 7c-30 0 -58.167 -4.16699 -84.5 -12.5s-49.166 -19.5 -68.499 -33.5
s-34.333 -30.167 -45 -48.5s-16 -37.833 -16 -58.5s5 -38.834 15 -54.501s24.667 -30.167 44 -43.5s42.333 -24.5 69 -33.5s56 -16.5 88 -22.5h2c36 -7.33301 69 -15.833 99 -25.5s56.667 -22.167 80 -37.5c22.667 -15.333 40.667 -33.333 54 -54s20 -44.667 20 -72
s-6.83301 -52.5 -20.5 -75.5s-32.167 -43 -55.5 -60s-50.333 -30.333 -81 -40s-63.334 -14.5 -98.001 -14.5c-26 0 -51.5 3.16699 -76.5 9.5s-48.5 14.333 -70.5 24s-42.333 20.5 -61 32.5s-35 23.667 -49 35zM337.002 793.001l70.001 75l12 12
c4.66699 4.66699 9.66699 7 15 7c4.66699 0 8 0.333008 10 1s3 -0.333008 3 -3c0 -4 -1.66699 -8 -5 -12l-72 -88c-4.66699 -5.33301 -9 -9.66602 -13 -12.999s-9 -5 -15 -5h-8c-6 0 -11 1.66699 -15 5s-8.33301 7.66602 -13 12.999l-72 88c-3.33301 4 -5 8 -5 12
c0 2.66699 1.33301 3.66699 4 3s6 -1 10 -1c5.33301 0 10.166 -2.33301 14.499 -7l10.5 -11z" />
    <glyph glyph-name="scaron" unicode="&#x161;" horiz-adv-x="497" 
d="M57 70c-3.33301 2 -5 4.50195 -5 7.50195s1 5.83301 3 8.5c2 3.33301 4.66699 5.33301 8 6s6.66602 -0.666016 9.99902 -3.99902c18 -14.667 41.333 -28.834 70 -42.501s59.334 -20.5 92.001 -20.5c21.333 0 41.166 3 59.499 9s34.5 14 48.5 24
c29.333 20.667 44 46 44 76c-0.666992 27.333 -14.334 50.333 -41.001 69c-27.333 17.333 -65 30.666 -113 39.999h-3c-22.667 3.33301 -43.667 8.16602 -63 14.499s-36.333 14.833 -51 25.5c-14.667 9.33301 -26.5 21.166 -35.5 35.499s-13.5 30.166 -13.5 47.499
c0 18 4.5 34.5 13.5 49.5s21.167 28 36.5 39s33 19.667 53 26s41.333 9.5 64 9.5c31.333 0 59 -6.16699 83 -18.5s45.667 -25.166 65 -38.499c3.33301 -2 5.16602 -4.66699 5.49902 -8s-0.166992 -6.33301 -1.5 -9c-4.66699 -7.33301 -10.667 -8.66602 -18 -3.99902
c-19.333 12.667 -39.666 24.667 -60.999 36s-45.666 17 -72.999 17c-20.667 0 -39.667 -2.83301 -57 -8.5s-32.333 -13.167 -45 -22.5c-26 -20 -39 -42.667 -39 -68c0 -24.667 12.333 -45.334 37 -62.001c12.667 -8.66699 28 -16 46 -22s38 -11.333 60 -16h1
c24.667 -5.33301 47.334 -11 68.001 -17s39 -14.333 55 -25c15.333 -10.667 27.833 -23.5 37.5 -38.5s14.5 -32.167 14.5 -51.5s-4.83301 -37.166 -14.5 -53.499s-22.5 -30.5 -38.5 -42.5s-34.667 -21.333 -56 -28s-44 -10 -68 -10c-18.667 0 -36.5 2.16699 -53.5 6.5
s-33.167 9.83301 -48.5 16.5s-29.333 14.167 -42 22.5s-24 16.5 -34 24.5zM249 568.002l70.001 75l12 12c4.66699 4.66699 9.66699 7 15 7c4.66699 0 8 0.333008 10 1s3 -0.333008 3 -3c0 -4 -1.66699 -8 -5 -12l-72 -88c-4.66699 -5.33301 -9 -9.66602 -13 -12.999
s-9 -5 -15 -5h-8c-6 0 -11 1.66699 -15 5s-8.33301 7.66602 -13 12.999l-72 88c-3.33301 4 -5 8 -5 12c0 2.66699 1.33301 3.66699 4 3s6 -1 10 -1c5.33301 0 10.166 -2.33301 14.499 -7l10.5 -11z" />
    <glyph glyph-name="Ydieresis" unicode="&#x178;" horiz-adv-x="716" 
d="M304 13c0 -8.66699 4.33203 -13 12.999 -13c8 -0 12 4.33301 12 13v329l247 337c4.66699 6 3.33398 11.667 -3.99902 17c-6 4.66699 -12 4 -18 -2l-237 -327l-238 327c-2 2.66699 -4.66699 4.16699 -8 4.5s-6.33301 -0.5 -9 -2.5c-3.33301 -2 -5.33301 -4.66699 -6 -8
s0.333008 -6.33301 3 -9l245 -337v-329zM376.999 777c0 9.33301 3.33301 17.333 10 24s14.667 10 24 10s17.333 -3.33301 24 -10s10 -14.667 10 -24s-3.33301 -17.333 -10 -24s-14.667 -10 -24 -10s-17.333 3.33301 -24 10s-10 14.667 -10 24zM195.999 777
c0 9.33301 3.33301 17.333 10 24s14.667 10 24 10s17.333 -3.33301 24 -10s10 -14.667 10 -24s-3.33301 -17.333 -10 -24s-14.667 -10 -24 -10s-17.333 3.33301 -24 10s-10 14.667 -10 24z" />
    <glyph glyph-name="florin" unicode="&#x192;" horiz-adv-x="506" 
d="M94 -1c-25.333 0 -37.9971 5.66602 -37.9971 16.999c0 7.33301 3.5 11.333 10.5 12s15.167 1.66699 24.5 3c26 2.66699 44.167 11.334 54.5 26.001s18.166 36 23.499 64l49 272h-90c-6 0 -11.333 0.666992 -16 2s-7 5 -7 11c0 6.66699 2.33301 10.667 7 12s10 2 16 2h98
l26 145c9.33301 50 25.5 85.833 48.5 107.5s54.5 32.5 94.5 32.5c11.333 0 21.5 -0.333008 30.5 -1s18.5 -2.33398 28.5 -5.00098c6.66699 -1.33301 11.667 -3.16602 15 -5.49902s5 -6.5 5 -12.5s-2.16699 -9.16699 -6.5 -9.5s-9.5 -0.5 -15.5 -0.5
c8.66699 0 10 0.333008 4 1l-23 2.5c-9.33301 1 -18.166 1.83301 -26.499 2.5s-10.5 0.666992 -6.5 0c-15.333 2 -29.333 0.5 -42 -4.5s-23.834 -12.667 -33.501 -23s-17.834 -23 -24.501 -38s-11.667 -31.5 -15 -49.5l-25 -142h136c6 0 11.333 -0.833008 16 -2.5
s7 -5.5 7 -11.5s-2.33301 -9.66699 -7 -11s-10 -2 -16 -2h-144l-50 -275c-8.66699 -42 -21.334 -72.333 -38.001 -91s-40 -28 -70 -28z" />
    <glyph glyph-name="circumflex" unicode="&#x2c6;" horiz-adv-x="500" 
d="M180 618l-10.501 -11c-4.33301 -4.66699 -9.16602 -7 -14.499 -7c-4 0 -7.33301 -0.333008 -10 -1s-4 0.333008 -4 3c0 4 1.66699 8 5 12l72 88c4.66699 5.33301 9 9.66602 13 12.999s9 5 15 5h8c6 0 11 -1.66699 15 -5s8.33301 -7.66602 13 -12.999l72 -88
c3.33301 -4 5 -8 5 -12c0 -2.66699 -1 -3.66699 -3 -3s-5.33301 1 -10 1c-5.33301 0 -10.333 2.33301 -15 7l-12 12l-70 75z" />
    <glyph glyph-name="tilde" unicode="&#x2dc;" horiz-adv-x="500" 
d="M137 602c-1.33301 -3.33301 -3.00195 -6.16504 -5.00195 -8.49805s-5.66699 -3.5 -11 -3.5c-10.667 0 -16 4.33301 -16 13c0 1.33301 0.5 3.66602 1.5 6.99902s1.83301 5.66602 2.5 6.99902c2.66699 8 6.83398 15.5 12.501 22.5s12 13.333 19 19s14.5 10.167 22.5 13.5
s15.333 5 22 5c9.33301 0 19.666 -2 30.999 -6s22.833 -8.33301 34.5 -13l33.5 -13c10.667 -4 20.334 -6 29.001 -6c20.667 0 37.334 14.333 50.001 43c1.33301 3.33301 2.66602 7 3.99902 11s4.33301 6 9 6c5.33301 0 9.66602 -1.5 12.999 -4.5s5 -7.16699 5 -12.5
c0 -4 -0.666992 -8 -2 -12c-6.66699 -20 -16.667 -36.333 -30 -49s-29.666 -19 -48.999 -19c-9.33301 0 -19.5 2 -30.5 6s-22.167 8.5 -33.5 13.5s-22.666 9.5 -33.999 13.5s-21.333 6 -30 6c-20.667 0 -36.667 -13 -48 -39z" />
    <glyph glyph-name="endash" unicode="&#x2013;" horiz-adv-x="528" 
d="M92 280c-10 -1.33301 -16.833 0.333008 -20.5 5s-5.5 8.66699 -5.5 12c0 7.33301 2.5 12.5 7.5 15.5s11.167 4.5 18.5 4.5h344c7.33301 0 13.5 -1.5 18.5 -4.5s7.5 -8.16699 7.5 -15.5s-2.5 -12 -7.5 -14s-11.167 -3 -18.5 -3h-344z" />
    <glyph glyph-name="emdash" unicode="&#x2014;" horiz-adv-x="898" 
d="M92 280c-10 -1.33301 -16.833 0.333008 -20.5 5s-5.5 8.66699 -5.5 12c0 7.33301 2.5 12.5 7.5 15.5s11.167 4.5 18.5 4.5h429c7.33301 0 13.5 -1.5 18.5 -4.5s7.5 -8.16699 7.5 -15.5s-2.5 -12 -7.5 -14s-11.167 -3 -18.5 -3h-429z" />
    <glyph glyph-name="quoteleft" unicode="&#x2018;" horiz-adv-x="230" 
d="M171 688c0 -5.33301 -2.66504 -9.66797 -7.99805 -13.001c-18 -10 -30.667 -21 -38 -33s-10.333 -26.667 -9 -44c7.33301 -2 13.666 -5.83301 18.999 -11.5s8 -13.5 8 -23.5v-21c0 -9.33301 -3.16699 -17.166 -9.5 -23.499s-14.166 -9.5 -23.499 -9.5
s-17.166 3.16699 -23.499 9.5s-9.5 14.166 -9.5 23.499v25c0 28 2.16699 50 6.5 66s11.166 28.667 20.499 38s19.166 17 29.499 23s17.833 9 22.5 9c3.33301 0 6.66602 -1.16699 9.99902 -3.5s5 -6.16602 5 -11.499z" />
    <glyph glyph-name="quoteright" unicode="&#x2019;" horiz-adv-x="230" 
d="M59 525c0 5.33301 2.66504 9.66797 7.99805 13.001c18 10 30.667 21 38 33s10.333 26.667 9 44c-7.33301 2 -13.666 5.83301 -18.999 11.5s-8 13.5 -8 23.5v21c0 9.33301 3.16699 17.166 9.5 23.499s14.166 9.5 23.499 9.5s17.166 -3.16699 23.499 -9.5
s9.5 -14.166 9.5 -23.499v-25c0 -28 -2.16699 -50 -6.5 -66s-11.166 -28.667 -20.499 -38s-19.166 -17 -29.499 -23s-17.833 -9 -22.5 -9c-3.33301 0 -6.66602 1.16699 -9.99902 3.5s-5 6.16602 -5 11.499z" />
    <glyph glyph-name="quotesinglbase" unicode="&#x201a;" horiz-adv-x="230" 
 />
    <glyph glyph-name="quotedblleft" unicode="&#x201c;" horiz-adv-x="405" 
d="M167 688c0 -5.33301 -2.66504 -9.66797 -7.99805 -13.001c-18 -10 -30.667 -21 -38 -33s-10.333 -26.667 -9 -44c7.33301 -2 13.666 -5.83301 18.999 -11.5s8 -13.5 8 -23.5v-21c0 -9.33301 -3.16699 -17.166 -9.5 -23.499s-14.166 -9.5 -23.499 -9.5
s-17.166 3.16699 -23.499 9.5s-9.5 14.166 -9.5 23.499v25c0 28 2.16699 50 6.5 66s11.166 28.667 20.499 38s19.166 17 29.499 23s17.833 9 22.5 9c3.33301 0 6.66602 -1.16699 9.99902 -3.5s5 -6.16602 5 -11.499zM347.002 687.998
c0 -5.33301 -2.66504 -9.66797 -7.99805 -13.001c-18 -10 -30.667 -21 -38 -33s-10.333 -26.667 -9 -44c7.33301 -2 13.666 -5.83301 18.999 -11.5s8 -13.5 8 -23.5v-21c0 -9.33301 -3.16699 -17.166 -9.5 -23.499s-14.166 -9.5 -23.499 -9.5s-17.166 3.16699 -23.499 9.5
s-9.5 14.166 -9.5 23.499v25c0 28 2.16699 50 6.5 66s11.166 28.667 20.499 38s19.166 17 29.499 23s17.833 9 22.5 9c3.33301 0 6.66602 -1.16699 9.99902 -3.5s5 -6.16602 5 -11.499z" />
    <glyph glyph-name="quotedblright" unicode="&#x201d;" horiz-adv-x="410" 
d="M239 525c0 5.33301 2.66504 9.66797 7.99805 13.001c18 10 30.667 21 38 33s10.333 26.667 9 44c-7.33301 2 -13.666 5.83301 -18.999 11.5s-8 13.5 -8 23.5v21c0 9.33301 3.16699 17.166 9.5 23.499s14.166 9.5 23.499 9.5s17.166 -3.16699 23.499 -9.5
s9.5 -14.166 9.5 -23.499v-25c0 -28 -2.16699 -50 -6.5 -66s-11.166 -28.667 -20.499 -38s-19.166 -17 -29.499 -23s-17.833 -9 -22.5 -9c-3.33301 0 -6.66602 1.16699 -9.99902 3.5s-5 6.16602 -5 11.499zM58.998 525.002c0 5.33301 2.66504 9.66797 7.99805 13.001
c18 10 30.667 21 38 33s10.333 26.667 9 44c-7.33301 2 -13.666 5.83301 -18.999 11.5s-8 13.5 -8 23.5v21c0 9.33301 3.16699 17.166 9.5 23.499s14.166 9.5 23.499 9.5s17.166 -3.16699 23.499 -9.5s9.5 -14.166 9.5 -23.499v-25c0 -28 -2.16699 -50 -6.5 -66
s-11.166 -28.667 -20.499 -38s-19.166 -17 -29.499 -23s-17.833 -9 -22.5 -9c-3.33301 0 -6.66602 1.16699 -9.99902 3.5s-5 6.16602 -5 11.499z" />
    <glyph glyph-name="quotedblbase" unicode="&#x201e;" horiz-adv-x="410" 
d="M234 -90c0 5.33301 2.66504 9.66797 7.99805 13.001c18 10 30.667 21 38 33s10.333 26.667 9 44c-7.33301 2 -13.666 5.83301 -18.999 11.5s-8 13.5 -8 23.5v21c0 9.33301 3.16699 17.166 9.5 23.499s14.166 9.5 23.499 9.5s17.166 -3.16699 23.499 -9.5
s9.5 -14.166 9.5 -23.499v-25c0 -28 -2.16699 -50 -6.5 -66s-11.166 -28.667 -20.499 -38s-19.166 -17 -29.499 -23s-17.833 -9 -22.5 -9c-3.33301 0 -6.66602 1.16699 -9.99902 3.5s-5 6.16602 -5 11.499zM53.998 -89.998c0 5.33301 2.66504 9.66797 7.99805 13.001
c18 10 30.667 21 38 33s10.333 26.667 9 44c-7.33301 2 -13.666 5.83301 -18.999 11.5s-8 13.5 -8 23.5v21c0 9.33301 3.16699 17.166 9.5 23.499s14.166 9.5 23.499 9.5s17.166 -3.16699 23.499 -9.5s9.5 -14.166 9.5 -23.499v-25c0 -28 -2.16699 -50 -6.5 -66
s-11.166 -28.667 -20.499 -38s-19.166 -17 -29.499 -23s-17.833 -9 -22.5 -9c-3.33301 0 -6.66602 1.16699 -9.99902 3.5s-5 6.16602 -5 11.499z" />
    <glyph glyph-name="ellipsis" unicode="&#x2026;" horiz-adv-x="680" 
d="M504 30c0 12 4.16699 22.167 12.5 30.5s18.5 12.5 30.5 12.5s22.167 -4.16699 30.5 -12.5s12.5 -18.5 12.5 -30.5s-4.16699 -22.167 -12.5 -30.5s-18.5 -12.5 -30.5 -12.5s-22.167 4.16699 -30.5 12.5s-12.5 18.5 -12.5 30.5zM293 30c0 12 4.16699 22.167 12.5 30.5
s18.5 12.5 30.5 12.5s22.167 -4.16699 30.5 -12.5s12.5 -18.5 12.5 -30.5s-4.16699 -22.167 -12.5 -30.5s-18.5 -12.5 -30.5 -12.5s-22.167 4.16699 -30.5 12.5s-12.5 18.5 -12.5 30.5zM82 30c0 12 4.16699 22.167 12.5 30.5s18.5 12.5 30.5 12.5
s22.167 -4.16699 30.5 -12.5s12.5 -18.5 12.5 -30.5s-4.16699 -22.167 -12.5 -30.5s-18.5 -12.5 -30.5 -12.5s-22.167 4.16699 -30.5 12.5s-12.5 18.5 -12.5 30.5z" />
    <glyph glyph-name="guilsinglleft" unicode="&#x2039;" horiz-adv-x="311" 
d="M231 450c0.666992 -3.33301 0.833008 -5.99902 0.5 -7.99902s-1.83301 -4.66699 -4.5 -8l-141 -180l141 -178c4.66699 -5.33301 7.33398 -11.666 8.00098 -18.999s-3.33301 -11 -12 -11c-4 0 -7.83301 0.666992 -11.5 2s-6.83398 3.66602 -9.50098 6.99902l-137 178
c-6.66699 8.66699 -10 16 -10 22s3.33301 13.333 10 22l137 179c2.66699 3.33301 8 4.66602 16 3.99902s12.333 -4 13 -10z" />
    <glyph glyph-name="guilsinglright" unicode="&#x203a;" horiz-adv-x="311" 
d="M76 450c0.666992 6 4.99902 9.33203 12.999 9.99902s13.333 -0.666016 16 -3.99902l137 -179c6.66699 -8.66699 10 -16 10 -22s-3.33301 -13.333 -10 -22l-137 -178c-2.66699 -3.33301 -5.83398 -5.66602 -9.50098 -6.99902s-7.5 -2 -11.5 -2
c-8.66699 0 -12.667 3.66699 -12 11s3.33398 13.666 8.00098 18.999l141 178l-141 180c-2.66699 3.33301 -4.16699 6 -4.5 8s-0.166016 4.66699 0.500977 8z" />
    <glyph glyph-name="trademark" unicode="&#x2122;" horiz-adv-x="690" 
d="M540 678l-110.002 -153c-2.66699 -1.33301 -4.33398 -2 -5.00098 -2h-2c-1.33301 0 -2.66602 0.666992 -3.99902 2l-111 153v-274c0 -3.33301 -1.66699 -5 -5 -5s-5 1.66699 -5 5v290c0 4 1.66699 6 5 6c0.666992 0 1.33398 -0.333008 2.00098 -1
c0.666992 0 1.16699 -0.166992 1.5 -0.5s0.833008 -0.5 1.5 -0.5l117 -161l115 161c0.666992 0 1.16699 0.166992 1.5 0.5s0.833008 0.5 1.5 0.5c0.666992 0.666992 1.33398 1 2.00098 1c3.33301 0 5 -2 5 -6v-290c0 -3.33301 -1.66699 -5 -5 -5s-5 1.66699 -5 5v274z
M127.998 690h-101c-3.33301 0 -5 1.66699 -5 5s1.66699 5 5 5h210c4 0 6 -1.66699 6 -5s-2 -5 -6 -5h-99v-286c0 -3.33301 -1.66699 -5 -5 -5s-5 1.66699 -5 5v286z" />
    <glyph glyph-name=".null" horiz-adv-x="0" 
 />
    <glyph glyph-name="nonmarkingreturn" horiz-adv-x="300" 
 />
    <glyph glyph-name="percent" horiz-adv-x="824" 
d="M616 5c18 0 34.833 4.16699 50.5 12.5s29.5 20 41.5 35s21.333 32.333 28 52s10 41.167 10 64.5v2c0 24 -3.66699 46 -11 66s-17.166 37.5 -29.499 52.5s-26.5 26.667 -42.5 35s-32.333 12.5 -49 12.5c-18 0 -34.833 -4.33301 -50.5 -13s-29.5 -20.5 -41.5 -35.5
s-21.333 -32.5 -28 -52.5s-10 -41 -10 -63v-2c0 -24 3.66699 -46.167 11 -66.5s17.166 -37.833 29.499 -52.5s26.333 -26.167 42 -34.5s32.167 -12.5 49.5 -12.5zM210 362c18 0 35 4.16797 51 12.501s29.667 20 41 35s20.333 32.5 27 52.5s10 41.667 10 65v2
c0 24 -3.66699 46.167 -11 66.5s-17 38 -29 53s-25.833 26.667 -41.5 35s-32.167 12.5 -49.5 12.5c-18 0 -35 -4.33301 -51 -13s-29.667 -20.5 -41 -35.5s-20.333 -32.5 -27 -52.5s-10 -41.333 -10 -64v-2c0 -24 3.66699 -46.333 11 -67s17 -38.334 29 -53.001
s25.833 -26.167 41.5 -34.5s32.167 -12.5 49.5 -12.5zM614 -7.99902c-23.333 0 -44.333 4.83789 -63 14.5049s-34.667 22.667 -48 39s-23.666 35.166 -30.999 56.499s-11 43.666 -11 66.999v2c0 23.333 3.66699 45.833 11 67.5s17.833 40.667 31.5 57s30 29.5 49 39.5
s40.167 15 63.5 15c22.667 0 43.5 -4.83301 62.5 -14.5s35.167 -22.834 48.5 -39.501s23.666 -35.667 30.999 -57s11 -43.333 11 -66v-2c0 -23.333 -3.66699 -45.833 -11 -67.5s-17.833 -40.834 -31.5 -57.501s-30 -29.834 -49 -39.501s-40.167 -14.5 -63.5 -14.5z
M156 16.0059c0 0.666992 0.332031 1.33203 0.999023 1.99902s1.66699 2.33398 3 5.00098c1.33301 2 3 4.33301 5 7l487 663c2.66699 3.33301 5.33398 5.33301 8.00098 6s4.66699 1 6 1c2 0 3.66699 -1.33301 5 -4c0.666992 -1.33301 1 -2.33301 1 -3
c0.666992 -2 -0.833008 -5.5 -4.5 -10.5s-6.5 -9.16699 -8.5 -12.5l-487 -662c-0.666992 -0.666992 -1.5 -1.66699 -2.5 -3s-2.83301 -2 -5.5 -2c-6.66699 0 -10 2 -10 6c0 2 0.666992 4.33301 2 7zM207.999 350.004c-23.333 0 -44.333 4.83789 -63 14.5049
s-34.667 22.667 -48 39s-23.666 35.166 -30.999 56.499s-11 43.666 -11 66.999v2c0 23.333 3.66699 45.833 11 67.5s17.833 40.667 31.5 57s30 29.5 49 39.5s40.167 15 63.5 15c22.667 0 43.5 -4.83301 62.5 -14.5s35.167 -22.834 48.5 -39.501s23.666 -35.667 30.999 -57
s11 -43.333 11 -66v-2c0 -23.333 -3.66699 -45.833 -11 -67.5s-17.833 -40.834 -31.5 -57.501s-30 -29.834 -49 -39.501s-40.167 -14.5 -63.5 -14.5z" />
    </font>
</defs>
</svg>
